/* XPM */
static char *_c51edee9c01453f93d5ba92713b4532mfpfNANV4dwoHtDf[] = {
/* columns rows colors chars-per-pixel */
"50 50 178 2 ",
"   c #041A05",
".  c #0F2411",
"X  c #152A17",
"o  c #1D311E",
"O  c #223522",
"+  c #253A26",
"@  c #293A28",
"#  c #27432C",
"$  c #2E452F",
"%  c #2F4431",
"&  c #324A33",
"*  c #354E38",
"=  c #3B4F3D",
"-  c #365239",
";  c #3C523D",
":  c #3E583F",
">  c #3E5A41",
",  c #435344",
"<  c #435B44",
"1  c #465E48",
"2  c #4A5F4C",
"3  c #476148",
"4  c #4B634D",
"5  c #4C684F",
"6  c #4E6651",
"7  c #4F6A51",
"8  c #526453",
"9  c #526B55",
"0  c #59675A",
"q  c #566E59",
"w  c #596D5B",
"e  c #567057",
"r  c #57715B",
"t  c #5B735D",
"y  c #5D795F",
"u  c #607A5F",
"i  c #5E6E61",
"p  c #5E7560",
"a  c #5E7A61",
"s  c #626E63",
"d  c #627564",
"f  c #627B65",
"g  c #667368",
"h  c #6A766B",
"j  c #657D68",
"k  c #6A7C6B",
"l  c #707E6F",
"z  c #6F7D72",
"x  c #727E73",
"c  c #648067",
"v  c #668169",
"b  c #6C836D",
"n  c #6C886F",
"m  c #6E8671",
"M  c #6F8B72",
"N  c #728374",
"B  c #738B74",
"V  c #7A847A",
"C  c #768E79",
"Z  c #798C7B",
"A  c #749077",
"S  c #75917A",
"D  c #7B937D",
"F  c #7C997E",
"G  c #808D7E",
"H  c #80917F",
"J  c #7F8B81",
"K  c #7E9582",
"L  c #7E9B81",
"P  c #818B83",
"I  c #819482",
"U  c #829A84",
"Y  c #87978A",
"T  c #8C968D",
"R  c #869C88",
"E  c #8A9C8B",
"W  c #939E93",
"Q  c #87A28A",
"!  c #8AA48D",
"~  c #8EA491",
"^  c #8EAA93",
"/  c #93A593",
"(  c #93AC95",
")  c #98AE97",
"_  c #96A399",
"`  c #9DA79E",
"'  c #96AD99",
"]  c #9BAB9E",
"[  c #93B094",
"{  c #95B099",
"}  c #9AB39C",
"|  c #9EB89F",
" . c #9EAAA0",
".. c #9EB6A1",
"X. c #9EBAA1",
"o. c #A0AAA1",
"O. c #A3B6A4",
"+. c #A3BCA5",
"@. c #A6BDA9",
"#. c #ABBFAC",
"$. c #B5BDB5",
"%. c #B8BDB9",
"&. c #A6C3A7",
"*. c #A6C2A9",
"=. c #AAC6AD",
"-. c #A7C8AC",
";. c #ABCAAE",
":. c #B0C3AF",
">. c #AEC6B1",
",. c #AFCBB4",
"<. c #AECBB1",
"1. c #B3C5B5",
"2. c #B1C6B3",
"3. c #B0C9B3",
"4. c #B0CAB1",
"5. c #B0CCB3",
"6. c #B2CCB3",
"7. c #B2CBB5",
"8. c #B1CAB4",
"9. c #B6CAB6",
"0. c #B1CDB4",
"q. c #B3CDB6",
"w. c #B4CDB7",
"e. c #B5CFB6",
"r. c #B5CDB6",
"t. c #B2CCB4",
"y. c #BAC5BC",
"u. c #B3CFB8",
"i. c #B6CEB8",
"p. c #B6CFB9",
"a. c #B5CEB8",
"s. c #B6CEB9",
"d. c #B9CFBA",
"f. c #BACEBC",
"g. c #B4D0B7",
"h. c #B4D1B6",
"j. c #B8D2B7",
"k. c #B7D1B8",
"l. c #B7D3BA",
"z. c #B6D2B9",
"x. c #B6D2B9",
"c. c #B9D1BB",
"v. c #B9D3BA",
"b. c #B8D4BB",
"n. c #BAD4BB",
"m. c #B9D2BC",
"M. c #BAD2BC",
"N. c #B9D5BC",
"B. c #BBD5BC",
"V. c #BBD7BE",
"C. c #BCD5BF",
"Z. c #BCD6BD",
"A. c #BAD3BC",
"S. c #BCD8BF",
"D. c #BED3C0",
"F. c #BFD7C1",
"G. c #BFD5C0",
"H. c #BED6C0",
"J. c #BDD9C0",
"K. c #C2C7C1",
"L. c #C2CDC4",
"P. c #C1D5C3",
"I. c #C4DBC6",
"U. c #CAD2CB",
"Y. c #CED8CF",
"T. c #CDE2CF",
"R. c #D6E0D7",
"E. c #D6E0D8",
"W. c #DBE6DD",
"Q. c #E2E6E1",
"!. c #E6EEE6",
"~. c #E9EFE9",
"^. c #E8F1EE",
"/. c #F5F7F4",
"(. c #F4FDF5",
"). c #F8FAF6",
"_. c #F7FCF9",
"`. c #FDFEFD",
/* pixels */
"j H T.>.] D q 1 4 Q m.a.=.>.>.>.#.p a.a.+.R 9 6 D a.i.=.2.>.,.=.,.9.m.d.>.' C f } n.2.=.2.9.! b P.@.",
"O.; i w 6 b U *.' 7 t } H.w.u.H.D.w 4 d 9 j L X.t r &.b.2.q.m.v.>.( B p 4 p b D 4 f =.G.v.G.=.$ + 2 ",
"k X o U a.m.m.,.,.t.C - C @.{ m < ; b { =.b.b.5.B.n & ( t.X.C j & + j ( O.8.b.b.e.B < U B n < < o Y ",
"/ >.B m H.#.,.>.,.,.b.&.v # 7 m ' a.c.u.<.-.;.;.=.v.) ; > 3 a ~ U f J.z.8.>.3.=.;.k.} y f ! ) Z.E k ",
"a.C.^ a m.=.>.,.;.;.=.h.l.&.j.B.q.=.;.;.=.6.;.;.6.;.h.<.+.,.S.l.q.9 @.>.;.;.&.j.=.<.<.N.S.h.6.v.T 8 ",
">.>.@.; =.8.,.=.;.5.3.=.-.;.5.-.,.=.6.=.<.,.;.;.;.-.=.<.h.=.-.-.v.b Q c.;.6.;.;.<.=.<.;.-.;.,.,.1., ",
"=.8.x.5 +.t.=.;.;.;.;.;.5.;.-.<.=.5.;.;.=.-.<.;.;.;.<.;.=.=.3.=.x.! B h.4.4.;.;.;.;.;.5.=.<.-.,.9.@ ",
"3.9.[ 9 <.;.;.;.;.;.5.;.;.;.<.;.;.;.;.;.5.;.;.;.;.6.;.=.6.,.=.=.Z.D v j.;.;.;.;.;.;.;.-.;.<.=.l.E i ",
"=.h.9 ! h.;.5.;.;.;.;.;.;.;.;.;.;.;.;.;.;.;.-.;.;.;.;.;.;.;.-.h.-.e ;.4.4.;.;.;.;.;.4.:.;.;.;.6.4 ) ",
"v.R 3 h.=.<.-.=.;.;.;.<.<.;.;.<.;.;.;.;.;.;.-.;.-.;.;.;.;.;.-.V.e H j.;.;.4.;.;.4.;.;.;.6.=.n.A e j.",
";.& ! l.=.<.;.5.;.;.;.<.;.;.;.;.;.;.;.;.;.;.;.;.;.-.<.;.;.;.b.F 7 j.;.j.;.;.4.;.&.;.;.;.=.;.4.: [ 6.",
"D 9 Z.-.<.<.-.=.;.;.<.;.;.;.5.-.;.;.;.;.;.;.4.;.;.;.;.;.<.-.;.y ) 4.;.;.;.;.;.;.;.;.;.;.4.n.S 3 B.;.",
"< +.a.>.=.>.<.<.<.;.;.;.;.;.;.;.;.h.;.<.;.;.&.4.;.;.-.4.<.;.&.c j.;.;.;.;.;.;.;.;.;.;.;.=.k.t ( h.4.",
"3 { 8.>.,.,.;.-.<.;.;.;.<.;.;.<.;.;.;.<.;.;.4.;.;.;.;.;.;.<.;.e | ;.;.;.;.;.-.;.;.;.-.j.3.n.d U j.;.",
"B B Z.=.=.,.6.l.;.5.<.=.5.<.=.5.;.;.;.-.6.e.B.6.;.4.;.;.4.;.j.A F j.;.-.h.-.;.;.;.;.;.;.*.v.Q r b.-.",
"/ < 3.v.x.-.! D -.h.h.&.;.;.<.=.h.h.b.B.+.[ A X.j.;.;.6.;.&.j.Q 3 j.-.h.-.-.;.;.;.;.;.;.,.q.@.8 ,.S.",
"1.= ! / u e c F p S =.v.x.d.k.:.} ( m z s T W d J 8.d.2.9.f.f.O.= #.6.4.-.;.;.;.;.;.;.;.4.4.i.y L B ",
"f.B = b ! ;.B.j.=.D w B K D q j p , $.~.).`.`.`. .s E 2.O.Y V Z 8 / 9.=.;.-.;.;.;.;.;.;.=.=.v.D 5 L ",
"a.' t I.v.=.h.-.t.x.*.A c ! ( &.H.J K._.`.)._.`.`.W.W V V  .U._.Y.h D.=.;.-.;.;.<.;.;.;.;.4.4.[ q H.",
"3.q.3 } e.=.<.;.>.=.;.b.b.h.i.4.d.~ W `.`.`.`.`._._.`./.`._.`.`._.g #.a.;.;.4.;.<.<.;.;.;.;.4.6.6 ' ",
"*.Z.y D j.;.;.<.<.=.;.;.-.;.;.;.8.O.Z `._.`.`.`.`.`.).`.`.`.`.).`.T ~ s.>.-.;.<.<.<.;.;.;.;.;.Z.j K ",
"3.v.F f j.;.;.;.-.<.;.=.<.;.5.;.>.f.g U.`.).`.`.`.`.`.`.`.`.`.`.`.y.B F.=.<.<.<.;.;.;.;.;.;.;.j.R 6 ",
";.b.C c S.-.;.;.<.-.;.;.=.;.;.t.>.9.g E.`.`.`.`.`.`.`.`.`.`.`._._.~ Q x.>.<.;.;.;.6.<.<.;.;.;.j.k k ",
"4.6.5 | ;.;.;.;.-.<.-.;.6.;.;.=.s.E _ `.`.`.`.`.`.`.`.`.`.`._.`.L.h m.;.;.;.;.<.;.;.-.;.;.;.;.;.q #.",
"n.D q h.=.<.;.;.;.;.<.;.<.;.6.=.f.i R.`.`.`.`.`.`.`.`.`.`.`.`.(.w O.q.;.;.;.;.;.;.-.;.-.<.=.H.M f B.",
"q.; E v.=.=.;.5.;.;.;.<.;.;.;.Z.Y G `.).`.`.`.`.`.`.`.`.`._.`. .g v.=.;.;.-.;.;.;.;.;.<.=.>.>.> ( t.",
"I q v.=.<.t.;.;.;.;.;.0.;.;.5.:.0 !.`.).`.`.`.`.`.`.`.`._.`.Q.h 2.4.;.-.;.;.;.<.<.;.;.;.-.l.~ q x.-.",
"w +.8.3.=.;.;.;.;.;.;.;.<.;.h.Q ` `.`.`.`.`.`.`.`.`.`.`.`._.K.J G.;.;.=.;.;.<.;.;.;.;.;.=.Z.p Q B.=.",
"6 ! v.:.<.t.=.;.;.;.;.;.,.-.D.Z y._.`.`.`.`.`.`.`.`.`.`.`.`.Q.V 1.>.=.;.;.=.;.6.4.4.-.;.=.B.f Z x.;.",
"m S H.=.<.<.;.;.;.;.;.;.>.>.u.( P `.).`.).`.`.`.`.`.`.`.`.`.`.P O.9.a.q.q.k.q.;.6.;.;.;.=.a.Q q b.;.",
"/ 1 ,.;.;.;.5.-.-.;.;.;.=.>.>.w.g ~.`.`.`.!.%.U.`.`./.`.`._.`.$.x D.} D f f ( n.6.;.;.;.,.,.@.7 =.<.",
"8.& { h.;.;.;.;.;.;.;.<.<.>.>.D.z D._.!. .x P g J W.`.`.`.`.`.R.> j p C +.! e n 6.j.-.;.,.D.,.; ( z.",
"d $ D b.=.<.-.;.<.;.;.;.;.;.5.5.' h ~ j I #.C.f./ k T )._.U.G l S / h.b.3.v.>.U 5 H b.b.| c e : m J.",
"+./ y h.=.<.0.<.;.;.;.<.;.;.;.<.f.= m a.f.2.3.=.f.9.b N Z 8 G :.v.h.=.=.t.3.=.Z.} 3 c c 7 c ,.[ p ,.",
"b.+.3 &.<.=.;.;.;.;.<.;.;.;.;.;.x.B / a.*.6.=.<.>.,.n.O.} c.J.<.;.;.<.<.;.;.;.<.h.h.H Q 3.H.t.=.6 @.",
"3.h.e / h.;.;.;.;.;.;.;.<.;.;.;.t.( v x.6.=.<.<.=.t.=.e.z.>.-.<.=.=.;.,.;.;.6.;.-.;.j.j.3.=.=.a.r ~ ",
"=.n.B M h.;.5.;.;.;.;.;.;.;.<.;.,.@.y *.;.;.<.-.<.>.<.-.<.<.h.;.5.;.;.;.<.;.;.;.;.5.;.-.6.;.>.m.S g ",
"6.k.Q y B.=.<.;.;.<.;.;.;.;.;.<.>.,.y +.h.;.-.-.<.-.-.<.<.-.;.;.-.-.<.;.<.<.<.;.;.-.;.<.;.=.3.a.~ 6 ",
"=.n.n A h.;.;.;.5.;.;.;.;.;.=.;.l.F A h.-.-.h.-.<.;.;.5.-.<.-.;.;.<.;.;.<.;.;.;.;.;.-.<.,.-.>.m.j D ",
"6.#.5 =.<.;.<.;.;.;.;.;.;.;.;.<.=.3 -.<.<.;.;.<.-.<.;.;.;.<.;.;.;.-.;.;.;.;.;.;.;.;.-.;.>.>.z.} 9 ,.",
"m.f M x.=.<.<.=.;.;.4.4.;.;.-.j.v L J.=.;.>.-.;.;.;.;.;.;.;.-.;.;.;.6.;.;.;.;.;.-.;.;.;.;.-.b.c L z.",
"} & =.,.<.;.;.<.;.;.&.;.;.-.j.! 7 N.=.;.<.;.<.<.;.j.;.;.;.;.;.;.-.;.-.;.6.;.;.;.;.-.;.<.-.h.X.3 ;.5.",
"9 b H.=.<.<.<.-.;.5.4.;.;.;.j.c ^ z.<.>.<.-.;.-.;.;.6.;.;.;.;.;.;.6.;.;.<.=.;.;.;.;.;.;.;.N.y c N.-.",
"; >.,.,.<.=.<.<.5.-.4.;.;.-.;.y { u.=.<.-.<.-.<.6.;.;.;.;.;.5.-.;.-.-.-.6.<.<.=.;.<.;.;.z.[ * -.<.=.",
"4 d.=.2.=.<.=.;.=.,.;.<.;.4.j.Q r h.,.<.=.<.;.-.;.;.4.;.=.-.;.6.;.;.6.;.;.=.;.<.;.=.;.;.h.+.3 3.;.,.",
"1 @.3.2.,.<.l.l.v.;.;.<.4.;.-.B.q / t.=.,.6.h.B.6.;.;.;.,.,.-.-.;.;.;.5.=.,.3.t.;.;.;.6.-.B.9 Q a.=.",
"8 I I.v.t.@.! a c =.B.-.;.;.;.h.! 9 I.j.k.&.Q y @.v.;.;.,.-.6.=.;.;.5.j.v.3.+.Q 6.b.;.=.3.q.m j I.9.",
"/ 9 E b t 9 f S 7 > H k.k.;.;.h.I.d S H j q v j * D n.i.=.t.<.v.n.5.} F B y u : < U b.d.q.P.2., B n ",
"H O   k | &.B.B.Z.) 5 < R v.=.! j 4 9 B ! *.b.Z.} < 8 +.C.2.} D e e u m E } <.h.Q 4 4 ] ( D k % . B ",
"Y } B ( B.4.:.:.=.k.d.R ; 8 < d I O.d.v.x.3.*.=.9.n.k @ d 4 9 C h u n.i.k.6.3.;.a.v.l ; 8 l E :.N E "
};
