/* XPM */
static char *_c56fc66614340b9fe3101a340bcf36f9Mlkfb7kJf7BBwnA[] = {
/* columns rows colors chars-per-pixel */
"50 50 185 2 ",
"   c #190500",
".  c #250A02",
"X  c #2B0E05",
"o  c #230E0B",
"O  c #300F06",
"+  c #2F1107",
"@  c #2C130B",
"#  c #33150B",
"$  c #3A140B",
"%  c #3E180F",
"&  c #2F1A15",
"*  c #301410",
"=  c #381712",
"-  c #351B13",
";  c #3B1C14",
":  c #3B1E18",
">  c #3F2116",
",  c #36221C",
"<  c #3E231C",
"1  c #421D14",
"2  c #472116",
"3  c #43251D",
"4  c #4A241B",
"5  c #46291E",
"6  c #4B291E",
"7  c #50281C",
"8  c #472621",
"9  c #4E2721",
"0  c #442923",
"q  c #4D2C24",
"w  c #542C24",
"e  c #532E28",
"r  c #4F3127",
"t  c #4E312A",
"y  c #523126",
"u  c #593127",
"i  c #54332C",
"p  c #5B352C",
"a  c #5C392E",
"s  c #4D3A36",
"d  c #5D3731",
"f  c #573932",
"g  c #5D3B33",
"h  c #61392F",
"j  c #633D33",
"k  c #693E33",
"l  c #633E38",
"z  c #5D443C",
"x  c #664136",
"c  c #694237",
"v  c #65433B",
"b  c #6B443B",
"n  c #6E483E",
"m  c #72473E",
"M  c #73493E",
"N  c #5E4642",
"B  c #604742",
"V  c #6A4541",
"C  c #6D4C44",
"Z  c #744C43",
"A  c #794D46",
"S  c #7C4F49",
"D  c #6C514B",
"F  c #725047",
"G  c #7C5246",
"H  c #73544B",
"J  c #7B554C",
"K  c #75584F",
"L  c #7D594E",
"P  c #735650",
"I  c #775A52",
"U  c #7C5D54",
"Y  c #7D615A",
"T  c #80564C",
"R  c #8A5A4F",
"E  c #845D54",
"W  c #8A5E54",
"Q  c #875F58",
"!  c #8A5F58",
"~  c #846052",
"^  c #896256",
"/  c #85635A",
"(  c #8B635A",
")  c #8A695E",
"_  c #916154",
"`  c #92645B",
"'  c #9B675A",
"]  c #93695D",
"[  c #9B6A5F",
"{  c #8E6762",
"}  c #8D6B64",
"|  c #946C63",
" . c #9A6F64",
".. c #947064",
"X. c #9B7165",
"o. c #9D746A",
"O. c #9D796D",
"+. c #9D7D75",
"@. c #A37465",
"#. c #A97567",
"$. c #A2766B",
"%. c #AE7669",
"&. c #A47A6D",
"*. c #AA7B6C",
"=. c #B07B6D",
"-. c #A07771",
";. c #A47D74",
":. c #AB7E73",
">. c #A67E79",
",. c #A58177",
"<. c #AB8176",
"1. c #A5827B",
"2. c #AC847A",
"3. c #A9887E",
"4. c #B38375",
"5. c #B88477",
"6. c #B3867A",
"7. c #BA867A",
"8. c #B5897D",
"9. c #BB8B7D",
"0. c #C28C7F",
"q. c #AE8781",
"w. c #AF8980",
"e. c #B28780",
"r. c #B38C82",
"t. c #BC8D82",
"y. c #B79186",
"u. c #BD9185",
"i. c #B59088",
"p. c #BD948B",
"a. c #BE988D",
"s. c #BE9990",
"d. c #C28E82",
"f. c #C08F88",
"g. c #C39285",
"h. c #CA9486",
"j. c #CB9887",
"k. c #C4958A",
"l. c #CB968A",
"z. c #C5998C",
"x. c #CB9A8D",
"c. c #D09786",
"v. c #D0968B",
"b. c #D29B8E",
"n. c #C99790",
"m. c #C49B92",
"M. c #CC9D92",
"N. c #CA9F98",
"B. c #D39E92",
"V. c #D89F94",
"C. c #CEA195",
"Z. c #CEA195",
"A. c #C6A199",
"S. c #CFA79E",
"D. c #CDA39A",
"F. c #CEA89F",
"G. c #D1A092",
"H. c #D2A193",
"J. c #D2A196",
"K. c #D4A395",
"L. c #D6A297",
"P. c #D6A597",
"I. c #D4A195",
"U. c #D9A597",
"Y. c #D9A295",
"T. c #D2A39B",
"R. c #D6A699",
"E. c #D1A59D",
"W. c #D4A59A",
"Q. c #D9A699",
"!. c #DAA599",
"~. c #D5A89D",
"^. c #DCAA9D",
"/. c #D2A7A0",
"(. c #D7ABA2",
"). c #D3ACA7",
"_. c #D5ABA1",
"`. c #DBACA1",
"'. c #DCB0A7",
"]. c #DAB0A4",
"[. c #DEB2A9",
"{. c #E2AEA1",
"}. c #E2B3A6",
"|. c #E2B3AB",
" X c #E1B6A9",
/* pixels */
"@ D P P C H U D F Y Y Y N N U U Y U U U Y } I } s 0 V h k l j x g l v z l B f l g i g g g x g f i * ",
"0 I H J J J V V h i f i , f g d g B b B Z F I / & Y ).D./.M.m.N.s.s.s.i.i.s.s.N.i.q.m.s.a.y.e.a.1.: ",
"g F.E.`.|.T.(./.T.m.F.z.J D.N.m.N.D.m.m.m.p.F.z., H /.C.x.z.D.p.z.g.p.k.k.f.m.n.n.k.p.u.9.9.u.z.3.; ",
"g D.~.!.V.n.M.f.x.u.u.2.M m.x.z.z.p.z.p.p.z.m.;.- K '.G.G.x.C.C.B.x.9.9.t.k.B.n.n.h.g.n.b.x.g.6.w.8 ",
"h k.G.K.!.B.7.B.J.x.k.<.M m.x.x.z.u.n.M.M.n.u.3.# F [.!.G.x.Z.K.C.C.z.7.g.m.x.z.g.t.x.k.k.h.g.8.2.: ",
"c u.M.P.!.!.K.R.Q.x.x.8.G C.z.M.k.N.B.M.M.n.u.r.; D (.B.G.G.J.R.C.M.M.9.z.z.x.z.g.t.k.z.0.k.j.u.w.< ",
"b a.R.B.Y.^.~.B.G.G.J.$.M J.z.M.M.N.N.N.D.z.p.2.: D (.K.B.^.^.R.B.x.x.x.z.h.G.x.g.g.6.x.u.z.j.u.i.5 ",
"M k.x.Y.!.!.K.!.^.G.~.<.m D.n.x.V.N.V.M.C.x.M.2.# D (.!.B.B.K.P.K.P.z.k.t.z.x.9.t.g.e.x.9.k.g.u.e.8 ",
"A :.t.V.V.B.B./.!.N.N.6.Z G.M.x.l.x.B.M.x.x.x.2.# F ~.H.Y.b.V.b.x.G.x.z.g.x.z.g.8.0.9.z.x.4.8.9.1.> ",
"G z.M.V.L.B.M.V.V.V.M.$.Z A.z.n.x.x.M.l.x.z.l.2.+ C ^.G.b.b.l.!.B.x.M.x.x.9.k.k.C.9.9.9.9.j.9.a.r.2 ",
"G u.M.B.b.b.M.l.N.x.u.$.n D.k.z.x.x.M.M.K.x.z.6.# F ].J.M.x.x.G.G.M.m.x.m.h.z.z.a.0.z.j.z.a.8.9.i.q ",
"T k.x.B.x.l.B.B.x.9.9.o.F z.u.k.g.z.x.x.B.x.n.6.@ z y.6.9.6.6.6.8.6.4.2.<.:.:.&.) ,.<.] ) ] ,...+.t ",
"W x.x.b.H.H.B.B.v.h.k.&.G y.e.t.p.n.M.M.B.N.n.>.@ 0 n k m k Z b M b b M c x c c x x x y z x y z i @ ",
"R z.b.Y.c.c.B.x.l.l.z.&.c r.t.z.f.x.n.x.n.B.l.2.X U ).n.z.z.n.t.p.u.k.u.y.,.,.3.,.a.4.3.3.8.9.,.+., ",
"^ m.x.b.b.b.B.B.M.x.J.X.k t.u.u.k.k.x.x.B.x.x.6.# I z.f.x.M.n.h.z.x.k.g.z.9.g.9.<.a.a.9.a.9.8.8.1.< ",
"W C.x.B.b.b.l.B.b.x.C.X.M D.g.k.u.k.x.g.x.x.b.2.$ I x.d.B.x.x.g.j.b.g.9.k.x.z.9.4.8.x.0.0.9.8.8.,.r ",
"` x.x.B.h.b.B.B.b.x.T.&.M u.f.k.g.g.x.x.x.B.x.6.y Y m.x.x.H.H.x.l.g.f.z.l.x.6.8.9.<.z.j.<.<.9.8.;.q ",
"W n.B.!.B.b.V.V.B.G.C.-.Z n.f.n.l.z.x.x.x.x.x.2.5 Y x.x.b.b.k.b.x.z.z.x.l.9.#.6.9.u.9.9.j.0.0.9.w.2 ",
"` G.h.l.b.B.V.V.B.G.~.$.n u.t.M.x.x.x.g.l.M.x.<.+ K u.x.b.G.x.x.B.h.g.h.h.9.g.g.9.0.<.4.9.4.4.j.w.8 ",
"W x.h.B.V.V.V.B.B.B._.o.Z t.f.n.n.x.l.k.x.G.M.:.% K 8.h.h.x.U.x.h.l.z.t.z.l.g.9.9.9.4.9.4.9.4.8.q.3 ",
"` n.B.L.Y.B.Y.!.V.B.N.-.A z.f.k.k.n.x.x.C.M.x.;.- Y z.9.t.B.M.g.x.M.l.9.g.z.t.p.8.g.g.4.9.0.4.8.w.5 ",
"` h.G.L.H.B.B.B.N.k.k.` A p.t.f.g.M.C.x.x.M.M.O.# Y Z.9.9.x.M.u.f.x.9.z.x.9.k.g.9.9.k.9.x.9.@.4.+.- ",
"` x.M.H.H.U.H.G.B.g.k.W A M.k.x.z.l.z.x.z.k.z.o.# Y M.x.k.9.x.k.9.g.z.g.z.u.t.n.u.9.0.j.G.9.<.4.3.r ",
"*. X{.}.{.^.~.`.^.(.|.o.J (.D.T.N.M.M.J.J.C.~.,.. Y A.9.9.u.8.t.8.6.t.e.t.p.t.>.<.<.4.8.8.&.,.<.;.q ",
"x L T Q R T T U L ! { C l +.E Q E Q ( ( ( / E v   , i u u e p w 7 w 4 e u e q 9 9 h l 2 1 w w 2 q > ",
"g ( ! ! ( { ^ ^ Q | { } } { { { Q E Q Q E J E K o D 1.>.e.<.>.2.2.>.>.e.+.= / >.>.q.-.o.;.>.;.;.| ) ",
"E D.M.x.x.z.n.m.n.n.n.i.u.N.p.n.m.m.f.i.p.m.E.A.& I C.n.L.L.M.N.G.~.G.E.m.1 | m.m.$.h.M.t.4.u.6.8.:.",
"R G.x.l.x.x.k.k.f.f.t.g.u.g.t.t.t.t.t.t.f.t.z.a., K M.l.h.n.B.V.h.M.B.n.r.1 | T.g.@.x.d.7.4.9.4.9.&.",
"_ K.l.b.x.b.z.g.g.g.x.h.9.g.z.h.f.f.g.f.z.g.n.z.: E x.v.l.v.Y.B.b.v.b.l.4.4 X.m.M.z.9.=.0.h.0.5.6.@.",
"R ^.v.b.b.b.x.x.l.l.f.d.d.l.h.k.f.k.t.4.9.Z.T.u.O H z.l.v.B.V.b.v.V.b.B.8.7 o.u.g.h.9.h.%.0.0.5.4.] ",
"_ ^.H.Y.H.H.G.G.k.b.B.x.h.b.x.x.g.z.g.t.u.x.J.y.X F G.x.v.b.V.Y.b.b.M.x.p.2 X.r.9.k.x.7.0.0.0.9.6.@.",
"_ ^.Y.Y.c.x.x.x.b.d.x.b.h.k.z.x.z.z.z.z.z.x.J.k.O K x.c.V.c.Y.V.B.b.B.M.u.; O.u.g.0.g.g.g.7.7.g.4.X.",
"[ M.l.^.V.V.v.h.l.l.B.h.x.l.x.B.9.k.x.j.C.x.M.p.X H n.x.b.c.b.V.b.c.B.P.r.1 ` u.t.d.5.0.g.7.9.g.g.X.",
"' !.!.!.!.!.^.B.b.B.K.h.b.B.x.x.M.x.k.j.G.J.B.p.X Z z.h.v.b.c.h.B.V.B.B.z.=  .t.5.z.0.7.5.4.7.0.9.[ ",
"' L.B.!.V.!.!.B.B.l.b.B.b.b.x.V.B.b.G.x.B.L.~.u.X Z z.h.v.v.B.v.b.U.h.b.u.1 | 9.*.5.g.g.k.9.9.9.5._ ",
"&.}.L.!.^.{.^.{.L.!.G.R.R.K.x.^.B.G.P.Z.M.~.`.p.. C f.f.B.h.l.v.H.b.0.x.t.1 | t.t.*.d.0.9.9.9.9.*.^ ",
"Z / J E / E ( ( E E ~ ^ ^ ^ ! E E ^ ~ L ~ ~ ^ L @ D m.h.f.h.h.h.b.0.c.x.p.1 ] r.8.g.h.7.4.4.@.#.8.| ",
"g V v b b x l k x c n n Z V b n x b c x x c c p o I m.k.l.d.d.v.l.0.j.G.8.1 ( t.<.7.d.9.4.4.6.@.8...",
"o.~.m.z.z.g.t.k.x.x.G.z.z.g.x.z.k.f.f.u.z.z.z.,.. I Z.g.h.l.h.4.c.h.c.x.r.1 | u.5.9.9.u.8.<.<.#.;.^ ",
"@.x.z.x.x.f.d.h.d.f.k.g.k.7.0.f.g.f.f.t.t.t.u.<.. F n.k.x.h.t.9.b.b.l.B.t.% | p.9.9.0.9.9.4.<.<.>.E ",
":.g.z.z.B.l.j.j.d.d.g.g.M.x.t.t.k.u.g.z.z.u.u.,.. K M.k.G.g.4.g.H.b.0.x.t.% X.8.k.0.7.4.t.6.6.8.2.| ",
"$.M.x.h.h.x.B.j.0.7.B.l.k.h.n.x.u.6.y.g.z.u.M.<.. K z.k.h.j.g.g.h.b.j.b.p.; X.t.9.g.k.u.5.u.8.t.6.| ",
"#.~.b.l.l.b.Y.b.h.h.l.d.l.l.l.x.k.7.g.g.k.k.x.,.+ Y Z.x.x.0.0.0.5.h.b.b.r.$ o.2.9.j.9.9.9.t.u.8.t. .",
"#.V.x.Y.V.v.j.b.b.b.l.l.x.b.M.g.x.u.9.j.g.z.x.u.+ U x.j.c.j.x.x.x.x.H.x.2.% o.2.9.z.j.u.g.4.6.4.<.^ ",
"@.G.b.H.V.b.0.c.0.j.k.x.x.x.z.j.x.g.4.x.0.9.~.9.# ) 0.4.j.h.h.b.c.G.B.j.<.6 X.8.9.9.g.g.t.5.6.9.5.( ",
"#.U.H.Y.Y.V.b.b.0.G.j.g.9.<.<.u.G.x.k.x.g.z.P.9.; ) g.0.c.H.b.x.l.0.b.x.r.2 | u.g.g.h.k.k.0.g.6.t.X.",
"=.^.V.V.V.Y.V.b.b.j.0.t.9.9.9.u.u.9.g.j.M.M.x.z.# ) j.g.c.H.l.x.0.7.x.x.3.$ o.9.9.0.0.7.9.9.k.9.9.X.",
"5.{.G.c.b.H.U.G.j.g.t.u.u.u.u.u.y.9.u.9.p.p.Z.p.@ } ~.g.G.B.T.G.J.P.G.~.y.2 O.p.a.u.x.k.k.p.u.u.y.O.",
"[ r.<.8.8.8.<.t.8.6.2.2.q.2.q.,.,.,.,.2.e.3.r.3.- z / U E U U E ~ / ~ / Y : F U H J K ~ E U U / / K ",
"y b p p u e w u a u e w 9 9 q 6 6 7 9 9 r y y 5   , t t r 0 3 5 3 3 3 3 < < < < : : ; 5 0 5 3 q 3   "
};
