/* XPM */
static char *_9d12bd856f24d57da1d4e0b979b9f3aGatIsNmTEisbkEqG[] = {
/* columns rows colors chars-per-pixel */
"50 50 201 2 ",
"   c #514E47",
".  c #504D48",
"X  c #514E49",
"o  c #524F48",
"O  c #524F4A",
"+  c #535049",
"@  c #53504B",
"#  c #54514C",
"$  c #55524D",
"%  c #56534E",
"&  c #57544D",
"*  c #57544F",
"=  c #58554E",
"-  c #59564F",
";  c #585550",
":  c #585451",
">  c #595651",
",  c #5A5750",
"<  c #5A5752",
"1  c #5B5754",
"2  c #5B5851",
"3  c #5B5853",
"4  c #5C5952",
"5  c #5D5A53",
"6  c #5C5954",
"7  c #5C5855",
"8  c #5D5A55",
"9  c #5E5B54",
"0  c #5E5B56",
"q  c #5E5A57",
"w  c #5F5C55",
"e  c #5F5C57",
"r  c #605D56",
"t  c #615E57",
"y  c #605D58",
"u  c #605C59",
"i  c #615E59",
"p  c #625F58",
"a  c #615D5A",
"s  c #625F5A",
"d  c #635F5C",
"f  c #636059",
"g  c #63605B",
"h  c #64615A",
"j  c #65625B",
"k  c #64615C",
"l  c #64605D",
"z  c #65625D",
"x  c #66635C",
"c  c #65615E",
"v  c #66635E",
"b  c #66625F",
"n  c #67645D",
"m  c #67645F",
"M  c #68655C",
"N  c #68655E",
"B  c #69665F",
"V  c #676360",
"C  c #686560",
"Z  c #696661",
"A  c #6A6760",
"S  c #696562",
"D  c #6A6762",
"F  c #6B6861",
"G  c #6B6863",
"H  c #6C6962",
"J  c #6D6A63",
"K  c #6C6964",
"L  c #6D6A65",
"P  c #6E6B66",
"I  c #6E6A67",
"U  c #6F6C65",
"Y  c #6F6C67",
"T  c #6F6B68",
"R  c #706D66",
"E  c #716E67",
"W  c #706D68",
"Q  c #706C69",
"!  c #716E69",
"~  c #726F68",
"^  c #716D6A",
"/  c #726F6A",
"(  c #726E6B",
")  c #736F6C",
"_  c #737069",
"`  c #73706B",
"'  c #74716A",
"]  c #75726B",
"[  c #74716C",
"{  c #74706D",
"}  c #75726D",
"|  c #76736C",
" . c #75716E",
".. c #76736E",
"X. c #76726F",
"o. c #77746D",
"O. c #77746F",
"+. c #78756C",
"@. c #79766D",
"#. c #78756E",
"$. c #79766F",
"%. c #7B786F",
"&. c #777370",
"*. c #787570",
"=. c #787471",
"-. c #797671",
";. c #7A7770",
":. c #797572",
">. c #7A7772",
",. c #7A7673",
"<. c #7B7871",
"1. c #7B7873",
"2. c #7D7A71",
"3. c #7C7972",
"4. c #7D7A73",
"5. c #7E7B72",
"6. c #7C7974",
"7. c #7C7875",
"8. c #7D7A75",
"9. c #7E7B74",
"0. c #7D7976",
"q. c #7E7B76",
"w. c #7E7A77",
"e. c #7F7C75",
"r. c #7F7C77",
"t. c #7F7B78",
"y. c #817E75",
"u. c #807D76",
"i. c #817E77",
"p. c #807D78",
"a. c #807C79",
"s. c #817E79",
"d. c #827F78",
"f. c #817D7A",
"g. c #827F7A",
"h. c #827E7B",
"j. c #837F7C",
"k. c #838077",
"l. c #838079",
"z. c #83807B",
"x. c #848178",
"c. c #84817A",
"v. c #85827B",
"b. c #86837A",
"n. c #87847B",
"m. c #84817C",
"M. c #84807D",
"N. c #85827D",
"B. c #86837C",
"V. c #85817E",
"C. c #86837E",
"Z. c #86827F",
"A. c #87847D",
"S. c #87847F",
"D. c #88857C",
"F. c #89867D",
"G. c #88857E",
"H. c #89867F",
"J. c #8A877E",
"K. c #8B887F",
"L. c #878380",
"P. c #888580",
"I. c #888481",
"U. c #898681",
"Y. c #8A8780",
"T. c #898582",
"R. c #8A8782",
"E. c #8A8683",
"W. c #8B8784",
"Q. c #8B8881",
"!. c #8B8883",
"~. c #8C8980",
"^. c #8D8A81",
"/. c #8C8982",
"(. c #8D8A83",
"). c #8E8B82",
"_. c #8F8D81",
"`. c #8F8C83",
"'. c #8C8984",
"]. c #8D8A85",
"[. c #8E8B84",
"{. c #8D8986",
"}. c #8E8B86",
"|. c #8F8C85",
" X c #8F8C87",
".X c #908D84",
"XX c #918E85",
"oX c #908D86",
"OX c #918E87",
"+X c #928F86",
"@X c #908D88",
"#X c #918E89",
"$X c #928F88",
"%X c #928F8A",
"&X c #939087",
"*X c #939089",
"=X c #93908B",
"-X c #959289",
";X c #97948B",
":X c #96938E",
">X c #99968F",
/* pixels */
"U.S.C.-./ ..-.p.p.8.r.z.!.'.U.U.C.!.!.C.S.O.8.1.z.z.p.8.p.r.@ 3 - - ; 4 - 4 8.........Y / G ` r.O...",
"S.C.S.1.-.O.-.8.r.8.p.C.'.'.U.C.z.z.C.z.p...8.-.p.p.p.-.p.p.6 ; 4 t t 4 t t 8.O.....1.t.O...*.z.-...",
"C.r.r.8.r.C.p.-.../ ..8.p.8.U.U.'.U.'.#X#X'.'.C.p.C.S.'.'.'.U.'.'.C.'.C.C.U.L.p.8.p.-.r.-.r.t.8.1.-.",
"O.P C G P -./ C v g y y C m p.U.#X!.U.S.U.'.'.C.1.p.p.C.C.C.C.p.p.p.,.a.8.2.-.P / p.G G C Y ` C C G ",
"Y / / / P 8.Y v v g y y v g 8.U.'.!.'.U.'.'.U.C.-.p.C.p.p.-.8.t.j.t.&.) ) ..-.-.8.S./ Y ../ ` P G Y ",
"....8.C.p.S.p.C.8.8.p.C.p.8.U.!.U.U.U.U.!.p.p.z.L.U.C.j.S.C.L.W.W.p.W.a.L.W.p.p.C.r.-.#.-.1.8.y.C.S.",
"y 6 ..'. XU.p.C.z.z.S.U.z.r.p.p.8.p.C.C.z.P P G O.8.-.&.,.W.I.L.j.j.C.C.C.C.-.f m g N f t f J S.C.S.",
"y 6 ..'.U.U.p.!.C.p.C.U.-.1.r.z.C.r.p.C.r.G / P P / Q ) T L.j.j.C.L.8.p.,.C.-.v C m t 9 e 4 f x.t.p.",
"/ ..'.'.S.C.U.U.C.U.C.U.C.p.p.C.S.C.p.p.C.p.S.8.p.8.r.C.p.U.C.U.I.p.p.z.C.C.y.' 2.2.%.@.%.@.%.K.b.z.",
"/ P ` -.` C.r.1.p.z.p.U.-.-.S.y y g 6 6 6 v y 8.!.#X'.U.'. X#X#X..; 6 y 6 6 - 4 v .X&X.X_.&X&X.X#X X",
"v g v C G -.O.-.r.8.p.p.-./ r.@ X % ; ; ; % X 8. X!.'.C.U.!.U.'...O X O X # -   - C.F..X(..X.X.X!.K.",
"......-.-.C.1.8.C.'.C.8.8...C.v v C P G G m C C.!.S.U.U.U.'.'.U.p.C C C f f N N R (.F.K.K.(.(.K.K.K.",
"C.C.'.-.8.p.C.z.r.-./ C.p.U.C.U.C.U.S.!.'.'.U.U.x.z.'.G.S.G.G G ..-.T C S / U...y...B B N N ~ G.8.8.",
"..O.8.` ..1...../ / P 8.p.-.C.8.8.1.-.O.U.U.C.p.x.G.x.y.y.#.4 f v e ; 6 ; 6 ..v G y f f e t x #.` ` ",
"p.p.S.-.O.O.1.8.O.1.O.U.8.-.8.C.z.r.p.8.'.C.x.S.C.S.K.!.F.x.M J v d d V v C 7.P ..Y J G C m Y z.` &.",
"r.p.U.p.p.U.-./ P Y -./ P / C.-.-.-.P ..R / 1.x.' #.#.%.@.b.y.' p.=.=.&.=.=./ / / U.'.(.'.U.'.#XC.L.",
"-.8.8.p.....; ; * X ; ; 1 : &.7 ; 6 e ; - - e 2.N t t t x J J v -.y v v y v y 6 6 z.oXoXG.(.G.x.C.p.",
"O.1.8.p.-.-.y ; ; ; % 1 d u T y 6 6 6 3 4 6 f #.f x N m B J J / 8.m C m v m v v m x.(.oXz.F.b.G.S.p.",
"8.8.C.z.p.S.p.p.p.p.8.C.I.p.L.t.8.r.8.r.p.C.S.'.x.x.!.S.C.y...8.8./ ........p.S.x.(.(.oX!.G.K.S.p.r.",
"P G -.-...8.z.C.p.p.8.C.p.8.j.8.r.C.S.!.#XoX.X(.U.oX*X&X>Xz.y f g y 6 y y e U.#X*X'.K.(.oXK.!.%.P G ",
"C v -.....-.-.8.-.8.1.C.8.p.C.C.p.C.j.C.'.W.!.S.G.G.(.!.(.2.y y 6 e ; 3 6 6 U. X'.oX(.(. X(.oX1.C C ",
"8.-.C.p.8.C.8.p.p.C.p.C.z.p.C.p.j.j.U.I.!.C.p.C.z.G.b.C.oX(.-.-.-./ -.-.-.-.C.z.G.oXx.U.x.x.G.k.-.-.",
"-.8.8.8.-.p./ ../ ..-.-...P -...) ) P C C C / C.' R P G Y ....` 8.G Y / / / C v P O.v P m G B J C G ",
"-.8./ P C -.P P / P ` ..C g -.C C V y y y v v p./ P P C m C P Y ` 6 e y m C v 6 e ' g v g f x t y y ",
"p.8.8.8.-.U.-.-.-.8.1.../ P p.-.` ` / ..-./ `  X8.-.-.-./ ..O...z.../ ../ Y ` Y O.C...` ..-./ / ....",
"p.8.U.p.p.p.-.-.` 8.8.z.../ #.' / / ..1.U.G / P G G m G C 8.C v C C C C C Y 8./ ` Y P ../ / O.p./ ..",
"../ 8.-.-.P P C / ..-.8.v B B x t f f M P - 6 6 ; ; ; 6 ; Y X % % * % * % 3 / v v 6 6 y 6 6 v Y y v ",
"` / C.p./ ..-...-.8.p.C.P R R N G f B B r.f f y g g v C P 8.6 v v g g g e P 8.P G P G m G P / 8./ / ",
"'.!.'.C.U.S./ / C P C P ' #.G.'.K.x.F.K.&XoXG.!.p.C.S.p.8.U.z.C.S./ ..-.....O.-.p.!.z.p.-.8.p.p.-.O.",
"p.C.C.C.C.p.; X ; % % % e - #.(.K.F._..X!.K.oXx.` / P C / ..p.r.O.6 v m v m g v C 8.Y C G / / C v g ",
"S.U.C.C.C.C.y 3 y ; 6 y 4 4 8.oX_..XF.(.G.(.(.p./ ` ....O.-.r.z.1.v m P m v y v P 8.P C ` -./ P P P ",
"C.C.'.p.8.C.C.8.-.1.8.U.x.y.x.x.2.y.x.y.oXx.G.S.p.8.-.-.8. XU.S.#XC.p.z.p.z.S.z.p.z.1.p.z.C.z.C.-.-.",
"-.r.C.-...8.8...../ / p.C.8./ / R R R P -.Y ) &...C G P N (.(.K.U.U.S.p.p.C.U.z.8.8.-.-.8.C.U.-.6 y ",
"..8.p...-.8.-.p.../ G C.p...` C P / / / 8.C T T P G C C M S.F.b.C.U.S.S.p.C.z.C.C.8.8.8.8.p.S.-.; 3 ",
"p.8.U.C.8.C.8.-.-.8.-.U.r.C.p.-.2.#.&.y.U.,.&.8.8.p.p.p.2.'.G.K.C.8.8.C.p.z.p.p.-.C.p.S.z.C.U.p.-.-.",
"v C C P C ..C v y e v 6 y v / v g t y y e v d I.#X'.#X'.oX(.K.(.-.% ; 3 ; % ; % 6 p.8.r.8.8.r.p.1.8.",
"6 v v v ; P 6 6 6 6 * ; ; X P 6 4 4 - - ; 6 ; 8. XC.C.p.S.x.K.oX1.% % X X X @ ; ; p.O......./ O.....",
"/ P P / / p./ C P P P / / v -./ J R R J / P / S.!.U.U.S.x.U.x.!.8.P P C / ..P P Y C.p.z.r.8.-.8.8.1.",
"C v p. XC.'. XU.'.'. X=X#X=X#X#X*X#X*X'.*XG.U.C.C.U.S.C.z.y.N J G G P Y ..p.8.Y P P / P / ` O.!.p.p.",
"* X -.p.'.C.C.C.p.C.p.'.U.U.!.U.(.(.oXU.x.y.p.a.r.C.C.C.S.2.e t y e e 6 6 m -.e 6 6 y 6 y y y C.8.8.",
"v y 1.C.C.C.C.p.C.C.C.U.C.U.'.'.(.(.A.U.(.y.C.y.x.G.x.x.F.S.P C G P / / v G p.P Y / Y C P v C !.C.C.",
"'.'. XU.!. XU.U.C.C.C.U.C.U.C.-./ ' ' #.#...' G.'.U.U.K.(.'.U.U.z./ ..-.Y -.-.O.8.C.` P Y / P ../ ..",
"'.'.U.C.U.U.C.z.-.-.z.p.p.C.8.C G C v v t f t x.oXS.U.(.(.x.C.U.-.; y g y y ; 6 g / ; 6 ; ; 6 6 y y ",
"#X#X'.U.U.U.p.8.8.r.p.p.p.p.p.C P C v C x f f y.'.x.G.G.U.G.U.oX8.v m m C g C v C ..6 y 6 6 6 y y e ",
"'.'.'.../ -.......` / C.'.'.U.C.'.'.C.p.x.x.K.;X(.K.&XK.U.G.#.2.p.-.` 1.....S.8.p.C.8.-.1.8.r.z.p.p.",
"'.'.p.% % ; % % % % . -.C.p.C.C.I.C.C.I.(.oX.XoX&X.XoX_.(.y.f N C v g v 6 v 1.` -.-.8.` ` ..-.C.8.t.",
"U.C.p.6 % % % % X X X -.p.8.p.U.'.W.C.C.x.oXK.K.K.K..X.X X#.4 f m v y e 6 g -...../ / / ` / ..p.8.8.",
"p.C.U...P ..8.-.-.../ S.U.C.U.p.p.j.p.p.x.p.x.F.G.K.(.G.(.x.1.8.8.z.-.8.1.p.!.p.p.1.-.-.8.1.r.p.8.,.",
"6 y y v y 8.U.C.C.p.z.z.C.p.C.y 6 6 6 y y 6 6 r.p.G.G.C.8.p.U.C.U.S.C.'.U.U.p.p.S.1.v c u u d c V S ",
"6 6 6 6 ; ..C.p.8.p.8.p.p.C.p.y 6 6 6 6 6 3 ; -.8.C.C.p.-.8.p.8.z.p.8.z.z.C.C.C.z...6 e 1 e e u d v "
};
