/* XPM */
static char *f85ecb5e7e07459c85bcdf8d9d450669Jc5TxbgwjI4dpDmj[] = {
/* columns rows colors chars-per-pixel */
"50 50 248 2 ",
"   c #4B4843",
".  c #4C4944",
"X  c #4E4B46",
"o  c #4F4C47",
"O  c #504D48",
"+  c #514E49",
"@  c #524F4A",
"#  c #53504B",
"$  c #55524B",
"%  c #54514C",
"&  c #55524D",
"*  c #56534E",
"=  c #57544F",
"-  c #59564F",
";  c #585550",
":  c #585451",
">  c #595651",
",  c #5A5750",
"<  c #5A5752",
"1  c #5B5851",
"2  c #5B5853",
"3  c #5D5A53",
"4  c #5C5954",
"5  c #5C5855",
"6  c #5D5A55",
"7  c #5E5B54",
"8  c #5E5B56",
"9  c #5F5C55",
"0  c #5F5C57",
"q  c #5F5B58",
"w  c #605D56",
"e  c #615E57",
"r  c #605D58",
"t  c #615E59",
"y  c #625F58",
"u  c #615D5A",
"i  c #625F5A",
"p  c #645F5B",
"a  c #636059",
"s  c #63605B",
"d  c #64615A",
"f  c #65625B",
"g  c #64615C",
"h  c #66615D",
"j  c #65625D",
"k  c #66635C",
"l  c #65615E",
"z  c #67625E",
"x  c #66635E",
"c  c #67645D",
"v  c #67645F",
"b  c #68635F",
"n  c #68655E",
"m  c #69665F",
"M  c #686360",
"N  c #696460",
"B  c #686560",
"V  c #696461",
"C  c #696661",
"Z  c #6A6760",
"A  c #6A6562",
"S  c #6A6762",
"D  c #6A6663",
"F  c #6B6663",
"G  c #6B6764",
"H  c #6C6764",
"J  c #6B6861",
"K  c #6B6863",
"L  c #6C6962",
"P  c #6D6A63",
"I  c #6C6964",
"U  c #6D6865",
"Y  c #6E6965",
"T  c #6D6A65",
"R  c #6E6B64",
"E  c #6E6B66",
"W  c #6E6A67",
"Q  c #6F6A67",
"!  c #6F6C65",
"~  c #6F6C67",
"^  c #6F6B68",
"/  c #706B67",
"(  c #706D66",
")  c #716E67",
"_  c #706B68",
"`  c #706D68",
"'  c #716E69",
"]  c #726F68",
"[  c #726F6A",
"{  c #736E6B",
"}  c #737067",
"|  c #737069",
" . c #73706B",
".. c #74716A",
"X. c #75726B",
"o. c #74716C",
"O. c #74706D",
"+. c #75726D",
"@. c #76736C",
"#. c #76736E",
"$. c #76726F",
"%. c #77726F",
"&. c #77746D",
"*. c #77746F",
"=. c #78756E",
"-. c #777370",
";. c #787570",
":. c #797671",
">. c #7B7670",
",. c #7A7770",
"<. c #7A7772",
"1. c #7A7673",
"2. c #7B7871",
"3. c #7B7873",
"4. c #7D7A71",
"5. c #7C7972",
"6. c #7D7A73",
"7. c #7E7B72",
"8. c #7F7C73",
"9. c #7C7974",
"0. c #7D7A75",
"q. c #7E7B74",
"w. c #7D7976",
"e. c #7E7B76",
"r. c #7E7A77",
"t. c #7F7C75",
"y. c #7F7C77",
"u. c #807D74",
"i. c #817E75",
"p. c #817E77",
"a. c #827F76",
"s. c #807D78",
"d. c #827D79",
"f. c #817E79",
"g. c #827F78",
"h. c #827F7A",
"j. c #837F7C",
"k. c #838077",
"l. c #858377",
"z. c #838079",
"x. c #83807B",
"c. c #848178",
"v. c #858279",
"b. c #84817A",
"n. c #85827B",
"m. c #86837A",
"M. c #87847B",
"N. c #84817C",
"B. c #84807D",
"V. c #86817D",
"C. c #85827D",
"Z. c #87827C",
"A. c #86837C",
"S. c #85817E",
"D. c #86837E",
"F. c #87847D",
"G. c #87847F",
"H. c #88847B",
"J. c #89877B",
"K. c #88837D",
"L. c #88857C",
"P. c #89857C",
"I. c #89867D",
"U. c #8A867D",
"Y. c #89847E",
"T. c #88857E",
"R. c #89867F",
"E. c #8A877E",
"W. c #8B877E",
"Q. c #8A887C",
"!. c #8B897D",
"~. c #8B887F",
"^. c #8C887F",
"/. c #8D8B7F",
"(. c #878380",
"). c #888580",
"_. c #888481",
"`. c #898681",
"'. c #8B8680",
"]. c #8A8780",
"[. c #8B8682",
"{. c #8A8782",
"}. c #8A8683",
"|. c #8B8881",
" X c #8B8883",
".X c #8C8980",
"XX c #8D8A81",
"oX c #8E8A81",
"OX c #8D8882",
"+X c #8C8982",
"@X c #8D8A83",
"#X c #8E8B82",
"$X c #8F8B82",
"%X c #8E8C80",
"&X c #8F8D81",
"*X c #8F8C83",
"=X c #8C8984",
"-X c #8D8A85",
";X c #8E8B84",
":X c #8E8B86",
">X c #8F8C85",
",X c #8F8C87",
"<X c #908C83",
"1X c #918F83",
"2X c #908D84",
"3X c #918E85",
"4X c #928E85",
"5X c #908D86",
"6X c #918E87",
"7X c #928F86",
"8X c #908D88",
"9X c #908C89",
"0X c #918E89",
"qX c #928F88",
"wX c #938E8A",
"eX c #928F8A",
"rX c #948F8B",
"tX c #938F8C",
"yX c #929084",
"uX c #939185",
"iX c #939089",
"pX c #93908B",
"aX c #949188",
"sX c #959188",
"dX c #959289",
"fX c #94918A",
"gX c #96918B",
"hX c #95928B",
"jX c #96938A",
"kX c #94918C",
"lX c #95928D",
"zX c #96938C",
"xX c #96938E",
"cX c #97948D",
"vX c #97948F",
"bX c #98958C",
"nX c #98958E",
"mX c #99968F",
"MX c #979390",
"NX c #989590",
"BX c #999691",
"VX c #9A9790",
"CX c #9A9792",
"ZX c #9B9893",
"AX c #9C9990",
"SX c #9D9A93",
"DX c #9D9996",
"FX c #9F9C97",
/* pixels */
"s.s.s.y.G.e.s.C.G.{. Xy.T ' K T ' '  . .<.s.<.' s.' *.eXs.{.,Xs.C.{.{.C.9.f.N.y.).y.f.{.;.g g g s j ",
"G.s.{.s.C.C.e.C.C.s.C.e.T T ' ' ' T ' #.<.#.~ ' T ' <.C.{.C.{.C.9.f.C.y.N.9.{.9.9.9.N.=X+.g S I j B ",
"e.s.C.s.C.s.s.x.G.y.C.s.K C *.<.C x ' T ~ T T <.<.~ #.{.C.e.s.C.{.{.f.N.y.N.N.y.f.y.y.{.;.g S C I I ",
"e.C.y.x.C.x.x.C.x.s.=XBX#.e.G.e.<.#.T <.<.#.#.<.s. .3.eXx.s.s.C.f.N.C.(.f.y.9.f.f.f.C.,Xf.` o.+.o.+.",
"eXy.C.{.{.{.<.3.<.*.<.3.G.G.=Xy.{.,XkXpXeXeXeXpXvXpXkX=X=X=XkXeX,XC.+.;.9.;.C.{.C.f.9.9.:.;.y.N.C.NX",
"=Xo ; & & ; & & & & # ; # ; ; + s.C.x.{. Xx.C.C.s.x.{.C.,XeX=X X(.~ O * # # O O * O O X O O O # 7 (.",
"eX+ = ; 6 ; r ; r 6 2 6 = ; 0 6 e.{.=X=X=XpX,X=X XC.{.=XpXpX,XeX`.` 2 4 * ; * ; < < < < 4 ; < 7 < `.",
"{.; ; ; ; ; 0 s 0 6 6 ; 6 6 ; # s.=X{. X{.eX=X X=XG.=XG.=XC.{.{.,X .% ; * ; 2 2 ; < ; % < < < * r ,X",
"s.X & + X ; 6 ; & & 6 ; & & & o e.{.=X X=X=XXXu.T.s.{.{.=X{.eXC.`.;.  # # # # O O . O = * = # = 2 =X",
"{.s x x x x C C T ~ C x x x K K x.C.x.G.x.C.C.G.u.m.T.G.G.C.C.C.`.N.S  .~ B s B B j B B B S T ~ [ MX",
"=XeXeX=XkXeX,XkXeXkX=XBXkXpX=XeXkXpX=XeXm.XX=XXXnXaX6XnXC.e.<.3.C.`.,XeX(.f.9.9.y.9.9.eXeX(.,XeXkX=X",
"e.C.C.<.y.s.<.y.<.e.C.=X{.s.{.e.y.e.y.s.e.C.6XC.y.<.5.=XT 0 0 r 8 r s t = = 4 = 8 2 X 3.C.4 S j I r ",
"{.C.e.x.e.#.C.e.e.C.s.{.{.s.s.,XG.x.u.{.C.u.XXm.u.u.y.XXn f s r B B B B s 2 r t < 2 8 3.h.s T  .o.B ",
"C.C.s.y.y.<.*.y.#.<.{.=X X{.{.s.C.x.s.T.m.k.m.u.m.k.5.G.w r n x S B s 8 8 7 B B r s ; ;.h.s ~ ~ [ C ",
"e.#.3.e.#.e.C.<.#.#.e.C.e.G.G.C.s.C.M.m.G.T.T.~.H.l.u.XXw 3 x c s 2 8 4 2 r 8 = 4 2 % [ 3.8 S S I B ",
"*.{. XG.C.s.s.3.y.C.eX,Xe.G.{.=XC.u.G.3.x.m.k.T.XXT.u.aXu.=.( ( S B ~ S S T C [ ` ` T 9.C. . .+.;.T ",
"kXx.x. Xy.G.3.;.9.9.3.;.e.y.9.y.aX5.5.e.e.C.s.s.T.y.m.T.nXXX5.5.`.MXy.N.y.y.N.h.h.h.y.3.h.9.y.9.y.eX",
" X2 = = ; 2 2 2 ; ; ; ; & ; 2 ; G.~ f f x x 6 r r r n x ' ..n ;  .y.4 s B B s s s s s s 7 = 7 2 : y.",
").2 0 0 s 0 0 s 0 0 0 0 2 2 g 6 {.<.f K x x 6 L n C C C x #.L r ;.h.s B g s g s I g s B s t j y 2 h.",
"G.2 0 2 0 0 0 0 2 0 2 6 r 0 c s  X#.r c 6 x x f x C ' K ' ( ' C 9.h.r S S S S B g B B g m j j j s (.",
"9.& = 0 ; 2 2 2 ; ; & 2 0 6 g s (.G r q x g R f n R T T T T C x 3.f.7 8 B s 8 B 8 r g 4 t j d d 7 C.",
").~ ~ ~ K B K B B x B G G B ' T (.#.^ ' <.' ,.5...'  .~ <.T 1.-.(.`.'  . . . . . .;.;.[ P ) T ) ~ {.",
"pX X X XpXpX X,X,X,XvXkXkXeXvXkXDXMXeXkXkXeX6XkXaXaX,XnXj.e.j.j.B.y.;.y.y.r.y.3.9.9.:.Q.mXmXeX,XdXkX",
"9.3.;.3.9.y.x.x.y.G. X XeX,X X=X(._.(.C.=X6X XXXXXuXXXeXp ; u u 7 2 < = < # = 7 < 7 $ m yX{.Q.,XyX{.",
"x.x.y.x.9.3.G.x.).{.{.,X=X,X X).=X{.{.=XOX<XsX/.<XaX6XXXn w C x g B t t 7 0 7 s a d 2 K eX,XyXG.eXeX",
"G.x.y.y.G.x.x.G.C.C. XeXC.{.{.x.=XeX XC.=X<X<X<X6X^.<XXXn n x w t t 7 8 8 s 8 t a d 7 +.&X.X XeXeXyX",
"x.x.G.x.G.x. Xx.x.x.C.pX X X X,XC.{.K.C.K.OXT.T.^.<X^.OXy f f w 7 ; < < < ; 2 2 2 3 < T ,X,X,X.X,X,X",
"y.x.y.y.y.y.G.x.C.x.=XZX Xx.x.G.s.e.g.K.m.K.K.K.K.OXK.rXg...] .. . .O.[  . . .O. .*.[ 9..XM. X).C..X",
"vXy.f.x.x.G.x.G.{.(.y.9.x.y.3.e.eXs.s.j.OXOXd.>.d.K.rXrXrX{.s.C.,X,Xy.f.x.G.x.f.C.{.y.C.y.;.:.y.f.dX",
"C.c G  .K ~ K g g r g s s s K T =Xe.' L p V F _ b p b b n ' T 6 +.9.t t s C j j c B B B B 0 8 s j C.",
"x.~  .~  .G c B C B s x C C G #.C.#.#.{ F F F G F F F -.T ' #.T ;.9.7 j s j T T j B [ c B g s s 2 (.",
"{.c ~ B T G B B c g r c s K T G eX1.^ ^ { _ V F F F _ C T #.T C 9.9.2 j j s G B T T T G B g g s q ,X",
"f.C G j B t 7 8 s s 7 8 8 B 0 7 ,X3.[ ~ [ T ~ ~ C T B B S  .S ~ :.;.< 2 t 8 r 7 8 s g g 4 8 7 8 8 ,X",
"eX+.*.:.+.3.O.;.3.3.y.f.y.+.| [ FX(.:.3.f.:.;.9.9.+.O.S 3.9.;.~ (.=X3.9.9.:.3.;.;. . .[ ;.;.~ :.f.CX",
"y.f.3.f.9.h.x.x.(.).eXkX:.y.{.C.y.(.h.y.y.+.+.9.:.~ +.kX(.;.3.+.:.9.9.9.9.f.3.9.3.;.o.(.eXN.h.h.f.C.",
"G ~ s j g 7 s c B j  .y.# < < * 7 2 * & 2 < * < t 7 # f.2 = 7 # % = % < ; ; = # ; ; =  .9.8 B 8 g s ",
"T c T K C j j C T T +.9.< t 7 t 0 t 7 7 8 8 0 g 8 t 2 h.8 2 < 2 r 2 2 4 < 2 < < 2 8 4 ~ 9.j B T g s ",
"C C C c s j g c C T | y.< B s 8 2 0 t t 8 8 7 7 j j 7 f.8 < 2 2 2 8 2 r 2 = 4 2 4 r 2 o.3.s I C B j ",
"s d 3 d m y 3 7 s 7 C a.= 8 < 2 2 < ; ; & & * 7 < * * {.8   # 8 ; < < 2 < = = * = 4 = 9.3.s ` j g 8 ",
"*.| @.) ~ } | | [ ) C.,X~ T T T G ~ G ~ ;.r.3.;.;. .:.kXy.+.[ ~ [ ` S I ~ ` ` ~ ` ` S `.(.` ;.;.9.;.",
"AX1XaX,X,X&XT.1X&XdXvXbXvXZXmXyXvX,XG.pX X X). XeX X X X,X,XG. XNX,Xh.y.3.y.N.y.y.9.9.3.y.h.h.).{.CX",
"XX5.XX&Xl.u.M.~..XM.{.yXM..X Xx.,X*. .*.*.~ K ~ B x ~  .<.3.3.y.C.;.r r g g g B B B B s r s B r 7 ,X",
"6XH.~.M.H././.Q.yX&XyXQ.~.G. X&X,X:.;.*. .~ ~  .T  .<.*.<.y.y.e.C.o.g B g B I B g g B S s B I B T ,X",
"XX&X~./.uXyXl.Q..X!..X.XG.,X.X Xx.~ ~  .~ O.) ~ *.<.#.#.3.G.y.O.).;.8 B B B C ` B g B B s g I B I C.",
"T.XX1XXX&XuXXXM.G.M. X~.~.pX X). X:.*.*.~ ~ ~ G ' ~ ~ *.y.G.x.e.(.9.4 r B B C I j g g s 8 r s 8 S ,X",
"6Xl.u.u.M.k.T.M.~.M.M.k. X&XG.C.vXy.9.3.y.y.9.9.3.3.s.G.x.3.y.<.N.,X;.[ ;.;.;.` o. .o.o.;. . . .` ,X",
"m.T.s.g.k.k.k.k.k.x.,XSXx.x.G.{. Xf.G.x.x.y.9.9.s.y.G.NXkXpXpXG.kXCXkXkX).{.,X=X,X,X,XMXeX,X,X,X,XC.",
"L ..J ..m } R K R c  .x. .G { ;. .~ G G c s g 0 c s C =X).&X Xx.N.{.N.N.N.).N.h.9.h.y.N.y.y.N.3.3.:.",
"' _ ' ' T #.( ' ' G <.e.x T #.#.' e.*.~ G T ~ ~ T K k  XXX~.,XH.D.z.>XD.D.z.N.h.3.y.N.).C.f.N.C.3.9.",
"( T ' ' T ' T T #.' *.e.c C T ~ T <.O.T C K ' #.G c f  X~.M./.M.D.z.>X!.D.D.C.(.3.f.y.(.N.y.{.C.;.9."
};
