/* XPM */
static char *afdb235030094c9added0acb7da6a913QCfJNrbTC7mKtRAV[] = {
/* columns rows colors chars-per-pixel */
"50 50 156 2 ",
"   c #2E261D",
".  c #2F281E",
"X  c #352E25",
"o  c #383127",
"O  c #3D352B",
"+  c #433D33",
"@  c #483F35",
"#  c #474036",
"$  c #484137",
"%  c #4D453C",
"&  c #4E483E",
"*  c #534B3F",
"=  c #4F4B41",
"-  c #544C43",
";  c #584F45",
":  c #595046",
">  c #5C554B",
",  c #5F584E",
"<  c #61574B",
"1  c #625A4E",
"2  c #645C53",
"3  c #685F54",
"4  c #676056",
"5  c #6B6357",
"6  c #6D655B",
"7  c #6E685E",
"8  c #71675D",
"9  c #726A5D",
"0  c #786C5E",
"q  c #6E6761",
"w  c #746C62",
"e  c #796E64",
"r  c #767266",
"t  c #7B7265",
"y  c #7C746A",
"u  c #7E786D",
"i  c #80766C",
"p  c #827A6E",
"a  c #847C72",
"s  c #887F74",
"d  c #878176",
"f  c #898176",
"g  c #878078",
"h  c #8C847A",
"j  c #8E897E",
"k  c #91877D",
"l  c #92897E",
"z  c #8F8B80",
"x  c #948C82",
"c  c #998E83",
"v  c #979185",
"b  c #999185",
"n  c #9B948A",
"m  c #9E988C",
"M  c #A1968A",
"N  c #A3998C",
"B  c #A89C8E",
"V  c #A49D93",
"C  c #A99E92",
"Z  c #A6A195",
"A  c #ACA295",
"S  c #A7A098",
"D  c #ADA59B",
"F  c #AFA89C",
"G  c #B1A69B",
"H  c #B3AA9E",
"J  c #B9AD9F",
"K  c #B5ADA2",
"L  c #B9AFA3",
"P  c #B7B0A5",
"I  c #BBB2A6",
"U  c #B7B0A8",
"Y  c #BDB5AA",
"T  c #BEB9AD",
"R  c #C1B5A7",
"E  c #C1B6AA",
"W  c #C3BAAD",
"Q  c #C8BCAE",
"!  c #C5BDB2",
"~  c #C9BEB2",
"^  c #C8BFB8",
"/  c #C7C0B4",
"(  c #CBC1B5",
")  c #C7C3BA",
"_  c #CDC5BA",
"`  c #CEC8BD",
"'  c #D1C4B6",
"]  c #D1C6BB",
"[  c #D0C9BF",
"{  c #D1C9BE",
"}  c #D2CABF",
"|  c #D2C9BD",
" . c #D4CCBF",
".. c #D2C9BD",
"X. c #CECAC1",
"o. c #D1CAC0",
"O. c #D3CBC0",
"+. c #D3CBC1",
"@. c #D5CBC1",
"#. c #D4CBC2",
"$. c #D1CDC1",
"%. c #D3CDC1",
"&. c #D3CCC2",
"*. c #D5CDC2",
"=. c #D5CCC3",
"-. c #D5CFC3",
";. c #D4CDC5",
":. c #D6CDC4",
">. c #D5CEC4",
",. c #D7CFC5",
"<. c #D5CEC6",
"1. c #D4CCC2",
"2. c #D8CEC4",
"3. c #D8CFC6",
"4. c #D8CFC4",
"5. c #D4D0C5",
"6. c #D7D0C6",
"7. c #D6D2C6",
"8. c #D7D1C6",
"9. c #D8D1C7",
"0. c #D9D3C7",
"q. c #DAD2C7",
"w. c #DAD1C6",
"e. c #D7D0C8",
"r. c #DAD1C8",
"t. c #DBD3C8",
"y. c #DAD3C9",
"u. c #D8D4C9",
"i. c #DAD6CA",
"p. c #DAD6CB",
"a. c #DAD4C8",
"s. c #DDD5C8",
"d. c #DDD5CA",
"f. c #DDD7CB",
"g. c #DFD6CD",
"h. c #DCD3C9",
"j. c #DCD8CC",
"k. c #DFD9CD",
"l. c #DFDBD0",
"z. c #E0D6CA",
"x. c #E0DACE",
"c. c #E1DBCF",
"v. c #E5DBCF",
"b. c #E4DCCF",
"n. c #E2D9CD",
"m. c #E2DED2",
"M. c #E4DED2",
"N. c #E5DFD3",
"B. c #E6DFD5",
"V. c #E4DCD2",
"C. c #E7E0D6",
"Z. c #E9E3D7",
"A. c #E7E0D8",
"S. c #EBE7DB",
"D. c #EBE4D9",
"F. c #EEE8DC",
/* pixels */
"F K = O x h x V b a l V l j z z m x q 7 n n K V V C U ! K H K Y U ! H # . 2 , % > 7 r z h h v d m z ",
"X.S.n u e.X.e.5.8.8.y.y.>.7.;.$.e.$.` n ) e._ X.r.p.0.7.*.+.>.r.j.` C.a & ` 7.K T ` 5.l.C.i.u.i.p.i.",
"Y 5.m r V K K U J P J G K K K T Y U _ x D T U W T ! T Y ! T T ! Y / u.b a U / $.;.` _ ) / ` _ / ` ` ",
"! i.m 7 U U T ! W / W R T ! ! T / ! / z U ^ X.! ! / ! / ^ W U Y W ( C.v y U ) _ ) ) _ `  .` } *.` ` ",
"! f.x e K ! T U Q / ( / ( / ! T Y / ` s K T ^ _ Q Q / / ! W T L Y T m.l g I ) _ } _ _ +.{ { } _ ` ` ",
"W y.n w K ! ! ! / ( / / ` / ! ) Y P ! l U T ! ( / ( / / ~ ! ! W T T l.d g T / _ ` $.X.` ` #.} }  .) ",
"! c.n w T ! ! T / ( / / / / ! ! T / ! h K T ^ ) / Q / ( / Q ! / ! T j.h y P ! _ } ` ( =.{ 2.0.#.`  .",
"Y s.C u L ! W ! / / / / W W ^ W T / T d K ! ` ! / W ( ( / / _ ! ! T C.h a Y ) U K X.` =.{ { #...| | ",
"I v.A y U E Y ! ! E W W W W W W U ^ T a I ^ ^ ^ / / ' / / / ( ' T ^ A.a u U / ^ Y #.{ #.3.3.=.+. .` ",
"W n.N e E U E U U U H W W W T W U ^ E a E ^ ( ^ ( R H / / ' / ( ^ T F.x u T ! / ( ^ ` ( ( ' +.( ( | ",
"^ V.n t U E E ^ W Y K K Y Y ! ^ E ! E a U E Y ^ ( / W / ` ( ( / T T A.h s ) ^ ) ] X.#.{ ] X.{ ' ' | ",
"E h.M a U U E ^ E I R I E U U K Y ^ Y s C U ^ ^ / / ( ' / / / ( ^ T A.g s T ^ ^ ^ _ ! ] { +.{ ..| | ",
"I n.n y Y E ^ U W I U ! ! ^ ! E E ^ ! s U ^ U ^ _ ( ! / ' ` / _ T U A.x g ! X.^ ] _ _ ] +.{ *.{  .| ",
"E n.n y U Y U E ! ! ! ! ! ^ ! E Y ^ ^ x U ^ ^ _ _ ] _ ) ` ( ` ( ^ ^ A.g g Y ^ ^ ^ ) +.X.+.=.+.#. . .",
"V _ V a V K K K K U U K K K K K K Y Y s V F D F K K K F n Z Z Z S K X.u z U K U W I U Y Y Y G U I Y ",
"s x 3 a g k i a w e e u y e e y y y w q v s a y s h x a e x j g x a n , z V v x z h z h s k z a l v ",
"2 u q 2 3 y q 2 3 > @   X O   o X X o X = + = = , q r s 2 r = q ; q q q ; k 2 - @ + @ % 2 = = + $ & ",
"! h.B.e.;.r.r.;.X.r.>.2 @ V D K U ! ! Y Y T ^ ) 5.5.u.k.7 m ^ X.^ X.g.X.Y _ Y U K K U E K , V U P P ",
"e._ _ ] _ _ E E ! ! #.i h ) ) #.r.=.X.;.+.X.` ` _ ) T 5.s S X.^ _ _ #.#.;.<.r.r.e.g.e.r.h.V _ e.5.7.",
"! ^ ! ! ^ ) W ^ ! T { s w V L K G K K U I U U I Y Y Y ) z V V K K U U U U U U E U U E E ) x V U P I ",
"! W Q W ^ E W ^ ! ^ 2.s 6 K U Y U K K K Y Y T U Y Y H  .y n U T ^ ^ E E R U E E ^ ^ ~ W W a K ! / ( ",
"^ ^ ^ ^ ! ! _ ^ ^ ^ h.a 2 K Y U L Y Y I T Y I T T I P  .q n D T E E ^ ^ ^ ^ ^ Q ^ ^ ^ W Y e K ! T T ",
"' Q ~ ] ' ' ~ W ~ R z.a 3 K E U H W W I Y W K T I I I  .q n K U E ^ Q E E Q Q Q E ~ ^ R ^ a K Y W / ",
"~ ~ ^ ~ ' ' ~ Q ' R 2.e 1 K Y E E L L I Y W I Y T I P 8.7 v Y ! E E E Y E R Q ~ ^ ^ ^ ~ ^ s K W / / ",
"] ' ~ ' ~ ~ @.~ ~ Q z.s < G U E E K U U U E U K I J H  .r N H / ^ E R L R R E E ( W E W _ r D ( / / ",
"] ~ ~ ~ ' ~ ' ~ ~ Q z.c 1 K U E E E E E E E E E I I P  .5 m U / Q E R R R R Q Q Q E W Q _ p I ( I / ",
"~ ~ ' ~ ' ' ' Q Q R z.i < G R E E D R K U E U R P P P  .5 x P W ~ ~ R R R E ^ ~ Q W W / / p P ! / / ",
"~ ~ ~ ~ Q ' Q Q R Q 2.i @ K L ! E K U U U E U R I Y P  .6 x K ! ^ ^ E E E Q ^ ~ W / Q / / i K / / ( ",
"@.~ ^ ~ ' ~ ~ Q ^ E r.p > D U ! U ^ U E I E Y U Y H H 2.1 v I ! R E ~ Q Q Q Q ^ W Q W Q Y p J W / / ",
"' @.~ ~ ' ' ' Q ~ E @.k ; K U U K E U E E E Y U H L G ( w b K ) E E Q Q E Q W Q ~ R W / J t H T R ( ",
"~ ~ Q Q Q ' Q Q Q ~ V.c , G U U K K U E K U E ! L L K _ t c K ! ^ Q E W Q R W Q ^ R W ( R f A / / ( ",
"J G G A B l M B C n ^ i 2 U K U D K K S K K G D G G A ~ , h L Y E E E R U G U E W W E ! / l B / / ( ",
"e 8 3 3 9 : - 2 ; * : + * d r 5 r u u r r r r 5 5 5 r r O d u u d h f d a t i i i a s y a i y s d h ",
"X i a s l p f f a f n b l d z j + . = = 1 5 = 1 # # : 1 4 1 1 > * & * $ % ; + = 2 - 1 y 2 1 1 2 4 2 ",
"2 r.v.v.b.s.s.s.z.n.Z.b.l.l.7.7.r z $.$.$.7.$./ T T $.m.j.I I / H - H 8.+.+.r.e.r.g.V.V.r.#.+.) ` Z ",
"a G E U J Q J I / Q E / Y ` Y 7.z Z / / / $.( T W R R I I T T / ! 2 D W ^ ) ! ! r.=.^ #.{ ! ( ( ( ( ",
"a R ( R Q R / W W _ R / ( ( T k.z N W / W / / W R T R I T J P I ! 2 s C K K K K ^ ! E ~ W U W ^ J ( ",
"s G / / W Q R J E ~ ' ( / / / ` z z J T T T T W I W T T W T P T ! ; x K W T W Y E W W ^ W D L E W / ",
"i G ( ( R Y W / W E R / / E Y  .p v P P P R I R / I R I R J F R ( > n K I ! T T W I K R J G R E / ( ",
"s G / / Q / J / / W / W E W E  .p z F P T P J R W / R R F J Z J ) ; k H T U Y W Y W R K J A E E Q ' ",
"p J / ( Q / W R R E ( Q R R R w.t v F R Q W R W R Q R R J J A J ' : l A I I I E E E Q E K G Q R J  .",
"t A ( ( ( Q Q | / Q Q ( ( / R  .p z J W R W W W R Q R R R R R Q / & m J E Y Y E I I E E C G Q R / z.",
"t A Q Q W W Q / / / R R R Q R w.z v J Q W W R R R R R Q Q Q R Q ( & l / Y / W E E E E E B R ~ R R  .",
"t F Q ( Q R Q R W / R / ( ( ( w.F m R Q J W W Q Q R R Q R Q R R  .> l Y Y Q E W W Q E Q L Q Q R R / ",
"t J W W / ( ( ( ( ( W W Q Q R  .0 v J R R R R Q R R R Q R Q R Q  .< b I W W Y W Y Q / W R ~ Q R / I ",
"t A W R / ( Q R ( / R Q ( R R  .m N R R R Q R R R R R R Q R J R / * m I W / W / Q W Q W R R W R Q J ",
"v B Q R Q Q W R J R R Q ( Q J ' z N R R R ( ' R R J R R Q Q B R ] > l J Y W R W / W W E E R W R Y G ",
"j F Q R R Q Q R F J J J R R J ' Z m Q ( Q W Q Q Q R J R R R J Q  .5 l P E W Q / W ( W E / W W W ( J ",
"t v m l v l f l l f f l f f f B p l B B l b B B B B B A A B B A / 5 k B A A F H A F G G J J J A H ( ",
"# 5 5 t 5 1 0 0 < 5 0 < 5 t t 5 * 0 t < < 0 t t t t 0 t 0 0 0 0 5 + i 5 t 9 0 9 t t t i i p p 0 f N "
};
