/* XPM */
static char *b85f3dda8e4e495ae6f22df5eb0307a71Dqox4PNS5QtYP41[] = {
/* columns rows colors chars-per-pixel */
"50 50 168 2 ",
"   c None",
".  c #BB5422",
"X  c #BE5A23",
"o  c #B6542B",
"O  c #C15A1F",
"+  c #C35D22",
"@  c #C66324",
"#  c #C96623",
"$  c #C76923",
"%  c #CC6C24",
"&  c #C26129",
"*  c #C36828",
"=  c #CC6D29",
"-  c #D16E25",
";  c #CE7225",
":  c #CD722C",
">  c #CE792C",
",  c #D27426",
"<  c #D47B26",
"1  c #D87E27",
"2  c #D1742A",
"3  c #D47C2A",
"4  c #D97E2B",
"5  c #CB7730",
"6  c #CD7934",
"7  c #D47C32",
"8  c #D78226",
"9  c #D98427",
"0  c #DC8C27",
"q  c #D6822A",
"w  c #D9842A",
"e  c #DC8B2B",
"r  c #DC9326",
"t  c #DE932C",
"y  c #DF982C",
"u  c #D78433",
"i  c #DA8433",
"p  c #D78932",
"a  c #DB8C33",
"s  c #D58539",
"d  c #D78B3D",
"f  c #DB8E3D",
"g  c #DE9333",
"h  c #DF9932",
"j  c #DD943B",
"k  c #DD983C",
"l  c #E08F2C",
"z  c #E09526",
"x  c #E1942B",
"c  c #E29B2C",
"v  c #E19533",
"b  c #E29D33",
"n  c #E0953B",
"m  c #E29C3C",
"M  c #DFA33E",
"N  c #E7AE27",
"B  c #E4A32C",
"V  c #E8AC2B",
"C  c #E8B22C",
"Z  c #E5A334",
"A  c #E7AB33",
"S  c #E8AD35",
"D  c #E5A43B",
"F  c #E6AA3B",
"G  c #E8AC39",
"H  c #E7B037",
"J  c #EAB436",
"K  c #EBB830",
"L  c #EAB43B",
"P  c #ECBB3C",
"I  c #EDC233",
"U  c #EFC93C",
"Y  c #F0CC3E",
"T  c #DA8C46",
"R  c #DD9444",
"E  c #DC9B45",
"W  c #DC9A52",
"Q  c #E09642",
"!  c #E19B41",
"~  c #DDA048",
"^  c #DFA650",
"/  c #E5A543",
"(  c #E6AB44",
")  c #E8AD44",
"_  c #E4A54A",
"`  c #E6AC4A",
"'  c #E8AE49",
"]  c #E9B344",
"[  c #EBBB43",
"{  c #E7B04E",
"}  c #E9B34D",
"|  c #ECBD4C",
" . c #E7AB51",
".. c #E7B251",
"X. c #EAB655",
"o. c #EBBA52",
"O. c #E7B55C",
"+. c #EAB45B",
"@. c #ECBD5B",
"#. c #EBBC62",
"$. c #E6B668",
"%. c #EBBD69",
"&. c #EEC442",
"*. c #EEC34B",
"=. c #EFC949",
"-. c #F1CF47",
";. c #F0C848",
":. c #F2D24B",
">. c #EEC454",
",. c #EFC852",
"<. c #EEC45C",
"1. c #EFC95C",
"2. c #F0CC55",
"3. c #F1CD5C",
"4. c #F3D553",
"5. c #F2D45B",
"6. c #F4D95B",
"7. c #EDC166",
"8. c #EFC865",
"9. c #EEC46A",
"0. c #F1CE63",
"q. c #F1CD6C",
"w. c #F2D364",
"e. c #F4DC64",
"r. c #F2D26C",
"t. c #F4DA6C",
"y. c #EFC971",
"u. c #F0CD7B",
"i. c #F0CD79",
"p. c #F3D770",
"a. c #F3D472",
"s. c #F3D673",
"d. c #F3D374",
"f. c #F3D274",
"g. c #F4DB73",
"h. c #F5DB75",
"j. c #F4DA76",
"k. c #F5DE77",
"l. c #F6DF77",
"z. c #F4DC77",
"x. c #F5DA73",
"c. c #F3D77C",
"v. c #F3D77E",
"b. c #F3D478",
"n. c #F4DA78",
"m. c #F5DF78",
"M. c #F5DF7B",
"N. c #F6DF7B",
"B. c #F4DA7E",
"V. c #F6E07B",
"C. c #F6E07E",
"Z. c #F6E17E",
"A. c #F3D686",
"S. c #F5DD80",
"D. c #F4D886",
"F. c #F6DD85",
"G. c #F2D38C",
"H. c #F4D98B",
"J. c #F5DD88",
"K. c #F5DD8E",
"L. c #F4DC9A",
"P. c #F6E080",
"I. c #F6E182",
"U. c #F6E287",
"Y. c #F7E18D",
"T. c #F7E38C",
"R. c #F5E090",
"E. c #F6E092",
/* pixels */
"                                                                                                    ",
"                                                                                                    ",
"                                                                                                    ",
"                                                                                                    ",
"                                                                                                    ",
"                                                                                                    ",
"                                                                                                    ",
"                                                                                                    ",
"                                                                                                    ",
"                                                                                                    ",
"                                                              e.l.e.g.a.      K.S.                  ",
"                                                            n.t.I.m.,.w.d.r.| 5.g.N.                ",
"                                                        Y.g.3.t.6.t.*.A.E.H.G.y.w.V.C.m.            ",
"                                                      w.h.r.>.*.5.1.>.H o.y.o.>.w.h.N.N.            ",
"                                                  I.h.>.0.S.w.,.,.1.] } [ w.8.#.r.1.r.w.:.N.        ",
"                                                N.6.w.A.y.=.I P L L o.7.q.*.[ W D G ] ,.U           ",
"                                              6.:.c.v.r.| V c b ) ] [ A -.q.{ #._ k ` O.v *.6.      ",
"                                              [ 8.r.0.| / @.<.9.' B c e V w.~ F O.%.[ ;.( D 4.6.    ",
"                                            >.G q.| ;.o./ -.Y U 1.D x 9 9 *.../ 9.i.>.L 2.7.q.<.    ",
"                                          a.G b | @.| +.v V N B V D Z 9 , j o.F k D D ( | w...o.    ",
"                                        J.>.A G L >.) e a l l l v D b 8 % ; D F q 1 y B z K m L =.  ",
"                                    U.K.w.G c b ` ' m n w e i e b e , % @ @ : e 8 1 0 B t q : z &.  ",
"                                  t.V.>.H b D e / e e x 9 t a # $ % < < , % % , 0 8 8 0 x y : < A [ ",
"                                t.5.w.P G ] ) w e 9 9 b ! e - % O ; , , , ; ; % e j , 9 x G 6 % D A ",
"                              e.:.*.*.S A m x < 7 7 , e ( F 9 ; X ; ; $ 8 8 < # a s - < e $.6 9 m ( ",
"                            t.T.F.| S c l l l - 2 f % , 3 t e v E o X ; M 9 0 < 3 w - % < E 3 9 v +.",
"                          e.4.T.2.L D / n l 1 - = g i 9 ; ; D 9.^ 5 O > V ; 8 y q 9 : = , a + = u   ",
"                        :.&.q.b.,.A b #.i.m g 3 q 4 e < < @ p ~ 5 q ; > r e p y < 2 < + = ..W :     ",
"                h.t.x.;.J G ..) ] Z b &.J ( D w < : e < # % w ; $ $ ; 8 < M g ; + 2 9 : D I |       ",
"            L.e.&.P P Z D / e a c c G o.Z e a q Z q v < , e 8 < $ 8 8 r 8 p q ; X # < g L G f.      ",
"      D.F.f.b.[ b l Z v / v w 4 4 4 4 n a q ; e C e Z ; < M e ; 8 8 ; 8 8 ; % q k ; % b c S o.      ",
"  @.+.%.o.D v l e g +.i 9 w w < < < - 4 D q % ; Z y p ; $ t y < r ; ; ; < ; > y p * > e l G D  .    ",
"  b a ! f 4 2 % 2 v F a 9 b e < 9 < # 9 x e 4 4 b v e % # % c 3 ; < r 8 w h < 3 , @ q e h D v       ",
"  _ Q m _ Q a & @ c y Z y > w 9 9 9 2 b Z 7 4 a / b G t # # < ; ; 8 B r 2 9 = % # . q 5 g t v       ",
"} ' Z m l w w < # , t Z 8 ; 9 9 < t t / D q , - i c b h - # % e r $ ; y e 9 < < q 2 < % e v         ",
"' F x l l 9 9 w 9 9 3 ; @ < < q , e 9 t t 1 , - , e t e 1 % < 9 < ; ; < e 1 0 9 w q t u 3 T         ",
"  D v l 1 , 1 l e e % $ X , 3 , 4 4 # h G v u i a     D v 4 w 4 < 1 0 r y e x c B < a R T           ",
"  X.m v 1 , , 4 3 y < @ + % i     7 2                         n v e B B e h e 4 g j                 ",
"    ) x 4 , - , 8 g e 9 q u                                       Z / ' j i q a                     ",
"      b 4 2 - 4 e : a n                                                                             ",
"        _ Q u v R u                                                                                 ",
"                                                                                                    ",
"                                                                                                    ",
"                                                                                                    ",
"                                                                                                    ",
"                                                                                                    ",
"                                                                                                    ",
"                                                                                                    ",
"                                                                                                    ",
"                                                                                                    "
};
