/* XPM */
static char *_cfdd9e61f454af5f626cfe13c10eac51MLq2TGGOLJtC19I[] = {
/* columns rows colors chars-per-pixel */
"50 50 219 2 ",
"   c #190602",
".  c #1A1411",
"X  c #2A0501",
"o  c #250A05",
"O  c #380903",
"+  c #2F100C",
"@  c #291D19",
"#  c #361B17",
"$  c #27211E",
"%  c #3C221F",
"&  c #2F2722",
"*  c #39302B",
"=  c #3B3431",
"-  c #430902",
";  c #430B05",
":  c #4C0A02",
">  c #530D03",
",  c #5C0E03",
"<  c #571007",
"1  c #461B15",
"2  c #610F04",
"3  c #6E0D02",
"4  c #681005",
"5  c #781007",
"6  c #4D221D",
"7  c #65261D",
"8  c #442723",
"9  c #462E2B",
"0  c #542222",
"q  c #46322F",
"w  c #493834",
"e  c #583935",
"r  c #663A34",
"t  c #743430",
"y  c #4D423E",
"u  c #5A423F",
"i  c #4F4240",
"p  c #524A46",
"a  c #534D4A",
"s  c #59514D",
"d  c #565656",
"f  c #5C5856",
"g  c #565758",
"h  c #575858",
"j  c #585858",
"k  c #64564F",
"l  c #625B56",
"z  c #695953",
"x  c #615D5A",
"c  c #745C5A",
"v  c #666059",
"b  c #6B635B",
"n  c #7D6C56",
"m  c #756959",
"M  c #5F6060",
"N  c #646262",
"B  c #6B6A6A",
"V  c #766A62",
"C  c #746C69",
"Z  c #7A726C",
"A  c #797674",
"S  c #7E7C7C",
"D  c #831109",
"F  c #88100A",
"G  c #94110C",
"H  c #99110D",
"J  c #8A1414",
"K  c #971618",
"L  c #A50E15",
"P  c #B90F18",
"I  c #A11212",
"U  c #AA1215",
"Y  c #A31E1C",
"T  c #B11219",
"R  c #BA121B",
"E  c #95231D",
"W  c #B71D26",
"Q  c #882429",
"!  c #8F3537",
"~  c #A42A2C",
"^  c #B43F3F",
"/  c #C20D17",
"(  c #CC0F1A",
")  c #C31019",
"_  c #C71823",
"`  c #D11B27",
"'  c #9C481D",
"]  c #A44818",
"[  c #AA531E",
"{  c #B45A1E",
"}  c #BB5C1C",
"|  c #884036",
" . c #B15922",
".. c #9C613B",
"X. c #B96426",
"o. c #B96536",
"O. c #C15E19",
"+. c #C5651E",
"@. c #CC6D1D",
"#. c #D06F1C",
"$. c #D7771D",
"%. c #CB6D22",
"&. c #C46C28",
"*. c #CD7429",
"=. c #D17524",
"-. c #D57926",
";. c #D97D24",
":. c #D57B29",
">. c #C87837",
",. c #D17F31",
"<. c #945355",
"1. c #B94B4B",
"2. c #A25B5D",
"3. c #986845",
"4. c #86625D",
"5. c #86735A",
"6. c #977B55",
"7. c #AC6C4B",
"8. c #A5794B",
"9. c #975E61",
"0. c #8A6763",
"q. c #877764",
"w. c #927564",
"e. c #857B75",
"r. c #9B7A77",
"t. c #A86A69",
"y. c #A57F78",
"u. c #B57774",
"i. c #C8444A",
"p. c #C15659",
"a. c #D85B62",
"s. c #D26B6E",
"d. c #C47B79",
"f. c #DC8226",
"g. c #D6832A",
"h. c #DC852B",
"j. c #C88339",
"k. c #D68232",
"l. c #D98430",
"z. c #DC8835",
"x. c #D2853B",
"c. c #DC8C3C",
"v. c #DF903B",
"b. c #E28B2B",
"n. c #E4902D",
"m. c #E18F36",
"M. c #E59333",
"N. c #E3933B",
"B. c #E6993E",
"V. c #E89C3C",
"C. c #A9804D",
"Z. c #B98548",
"A. c #AB8759",
"S. c #B9925D",
"D. c #918572",
"F. c #94867E",
"G. c #A8876A",
"H. c #B8877A",
"J. c #CD8944",
"K. c #D48B45",
"L. c #DD9144",
"P. c #DB964A",
"I. c #C8955A",
"U. c #D19159",
"Y. c #E39543",
"T. c #E49944",
"R. c #E59C4B",
"E. c #E19D52",
"W. c #DEA559",
"Q. c #EAA145",
"!. c #E5A14D",
"~. c #E9A34E",
"^. c #EAA653",
"/. c #E8A656",
"(. c #EBAB5A",
"). c #C78D78",
"_. c #D1857D",
"`. c #DF977F",
"'. c #DDA460",
"]. c #E9AC66",
"[. c #EBB16B",
"{. c #E8B57A",
"}. c #B97F81",
"|. c #8B8988",
" X c #948D8D",
".X c #95918D",
"XX c #9D958F",
"oX c #939494",
"OX c #999694",
"+X c #AC9287",
"@X c #A89998",
"#X c #BAA38B",
"$X c #AAA19A",
"%X c #A8A6A6",
"&X c #B6A9A6",
"*X c #B3B0AE",
"=X c #BBB4AD",
"-X c #B7B6B5",
";X c #BBBAB9",
":X c #CF928E",
">X c #DA9483",
",X c #D0AB90",
"<X c #E2B18E",
"1X c #C7ABAB",
"2X c #C6B8B7",
"3X c #C8C0BC",
"4X c #CCC9C9",
"5X c #DBD4CC",
"6X c #DBD6D4",
"7X c #E8C7C8",
"8X c #E3DCD4",
"9X c #E1DFDD",
"0X c #E8E3DB",
"qX c #E3E3E3",
"wX c #E9EAEB",
"eX c #F1EDE8",
"rX c #EEF0F1",
"tX c #F4F2F1",
"yX c #FFFFFF",
/* pixels */
"j j j j j j j j j j j j j j j d j j j j j j j j j j d j j j j j f h h j j j j j j j j j j j j j j j ",
"j j j j j j j j j j j j j j j j j j j j j j j j j j j j j j j j h j h j j j j j j j j j j j h j j j ",
"j j j j j j j j j j j j j j j j j j j j j j j j j j j j j j j j j j j j h j j j h j j j h j h j j j ",
"j j j j j j j j j j j j j j j j j j j j j j j j j j j j j j j j j j j j j j j j f j j j h h f j j j ",
"j j j j j j j j j j j j j j j j j j j j j j j j j j j d j j j j j j j j j h f h h h j j j j j j j j ",
"j j j j j j j j j j j j j j j j j j j j j j j j j j j j j j j j j j j j j h h j j h j j j j j j j j ",
"j j j j j j j j j j j j j j j j j j j j j j j j j j j j j j j j j j j j j j h h j j j j j j j j j j ",
"j j j j j j j j j j j j j j j j j j j j j d j j j j j j j j j j j j j h j j h h j j h j j j j j j j ",
"j j j j j j j j j j j j j j j j j j h h j j j g j j d d d d h h j j j h h h h h j j j j j j j j j j ",
"j j j j j j j j j j j j j j j j j f n b j g j g d j m l h h h h d f j f h h h f j j j j j j j j j j ",
"j j j j j j j j j j j j j j j j h m ,.J.8.m x m n C.J.S.A.5.D.5.D.l h h f h h h j j j j j j j j f j ",
"j j j j j j j j j j j j j j v n q.S.N.$.h.>.I.'.P.].Q.^.(.(.Q.V.W.b h V x h h h j j j h j j j j h j ",
"j j j j j j j j j j j j h h v j.R.(.!.%.O.,./.(.^.R.N.m.^.[.z.g.6.n A.S.l j j j j d j j j j j j h h ",
"j j j j j j j j j j j x m 5.n 3.@.=.Y.K.o.E.M.b.;.c.z.$.f.v.B.I.A.P.n.Z.h j j j j j j j j j j j j h ",
"j j j j j j j j j d b J.P.v.=.X.' &.[.!.T.Y.,.*.:.m.c.:.=.-.v.B.T.N.Q.I.v h j j j j j j j h j j j j ",
"j j j j j j j j j j l ..j.X.{ [ ' E.^.c.;.-.c.K.c.;.h.R.P.R.!.L.c.!.~.[.G.j j j j j j j j j j j j j ",
"j j j j j j j j j j h f D.| 7.x.k.m.k.b.b.f.-.f.h.%.@.f.f.k.c.h.z.l.M.B.W.C h h h j j j j j j j j j ",
"j j j j j j j j j j h M .X..~./.L.{ ] &.=.;.h.k.:.%.} @.@.@.#.-.;.h.b.M.Q.Z h j j j j j j j j j j j ",
"j j j j j j j j j j h x OXC./.E.x.>.{ ]  .L.R.T.T.N.>.J.>.K.c.l.=.*.h.:.W.C h h j j j j j j j j j j ",
"j h j j j j j j j j d d |.#XL.] } l.%.] >.N.f.f.N.Q.~.Q.B.B.Q.^.B.R.>.U.+XM h h j j j j j j j j j j ",
"j j j j j j j j j j j j d V y.3.>.*.+.O.=.f.g.f.f.b.b.M.n.n.V.V.Q.{.,X0.e j h h j j j j j j j j j j ",
"j j j j j j j j j j j h d % 6 4.H.H.u.7...x.B.l.g.l.c.Y.E.].{.<X:Xt.7 - 9 h h h j j j j j j h j j j ",
"j j j j j j j j j j j h d * X   e 0.w.t.u.).>X`.:X_.>X>X_.s.1.~ J 3 > O w d g g h j j j j j j j j j ",
"j j j j j j j j j j j B oXC o . Z *X2X$X9.~ _ ` ` ` _ R T U I H F 3 > ; Z oXB g j j j j j j j j j j ",
"j j j j j j j j j j d oXyX6X# a p f OXqXqX2X<.P ( ( ) R T U I H F 2 : 1 8XyX|.g j j d j j j j j j j ",
"j j j j j j j j d j d OXyXtXe w z 2X=X5X0XeX0X4.R ( ) R T U I H D 4 : r tXyX|.d j j j j j j j j j j ",
"j j h j j j j j j j j S ;X-Xu @ k 3X6X8X8X0X9X*XE ( ) R T U I G 5 2 - r -X-XA d j j j j j j j j j j ",
"j j j j j j j j j h h j j j q o * b $X5X5X8X5XF.0 / ) R T U I G 5 , - 9 j j j j j j j j j j j j j j ",
"h j j j j j j j j j j j j j y + . s s Z f v m b 0 P ) R U U I G 4 < ; w j j j j j j j j j j j j j j ",
"j j j j h j j j j j j j j j a O   V @XF.=X=X|.=XF.L ) R T U Y E | 7 ; i j j j j j j j j j j j j j j ",
"j j j j j j j j j j j j j j d # X $ = b &XXX3X0X4.W i.i.i.d.u.H.! < ; a j d j j j j j j j j j j j j ",
"j j j j j j j j j j j j j j h 6 O @ y a C e.v %XJ a.7X:Xp.1X1.u.t : 1 a j j j j j j j j j j j j j j ",
"j j j j j j j j j j j j j j j q O O w * A .XD.@XK s.s.s.1.^ L D 4 : 1 g j j j j j j j j j j j j j j ",
"j j j j j j j j j j j j j j j y O o & & %XeX5XA r G L L L K J 5 , ; 8 g j j j j j j j j j j j j j j ",
"j j j j j j j j j j j j j j h f e o V s A 4Xx %X Xr t @X&X1X=X4.< : w j j j j j j j j j j j j g j j ",
"j j j j j j j j j j j j j j j f c 1 e.V . = $ %X;X}.Q 4XrXwX9X;Xr 1 s j j j j j j j j j j j j j j j ",
"j j j j j j d j j j j j j j j j l 8 e.@Xe.$ z =XqX=XJ }.qXqX9X3Xr.k h j j j j j j j j j j j j j j j ",
"h j j j j j h j j j j j j j j j j x l C c # c $X=X+X! Q -XwX6X%XA h j j j j j j j j j g j j j j j j ",
"j j j j j j j j j j j j j j j j g h M N c <.<.t.}.}.:X2. X%XS M j j j j j j j j j j j j j j j j j j ",
"j j j j j j j j j j j j j j j j g g g g h M v N B B B N g g g g j j j j j j j j j j j j j j j j j j ",
"j j j j j j j j j j j j j j j j j j j j j j j d j j j d j j j j j j j j j j j j j j j g j j j j j j ",
"j j j j j j j j j j j j j j j h j j j j j j j j j j j j j j j j j j j j j j j j j j j j j j j j j j ",
"j j j j d j j j j j j j j j j j j j j j j j j j j j j j d j j j j j j j j j j j j j j j j j j j j j ",
"j j j j j j j j j j j j j j j j j j j j j j j j j j j j j j j j j j j j j j j j j j j j j j j j j j ",
"j j j j j j j j j j j j j j j j j j j j j j j j j j j j j j j j j j j j j j j j j j j j j j j j j j ",
"j j j j h j j j j j j j j j j j j j j j j j j j j j j j j j j j j j j j j j j j j j j j j j j j j j ",
"j j j j j j j j j j j j j j j j j j j j d j j j j j j j j j j j j j j j j j j j j j j j j j j g j j ",
"j j j j j j j j j j j h j j j j j j j j j j j j j j j j j j j j j j j j j g j j j j j j j j j j j j ",
"j j d j j j j j j j j j j j j j j j j j j j j j d j j j j j j j j j j j j j j j j j j j j j j j j j ",
"j j j j j j j j j j j j j j j j j j j j j j j j j h j j j j j j j j j j j j j j j j j j j j j j j j "
};
