/* XPM */
static char *_ab06f3d3f1145a2fe32db777cca85d92tLHYZf5Xc88mdFW[] = {
/* columns rows colors chars-per-pixel */
"50 50 127 2 ",
"   c None",
".  c #9C3E10",
"X  c #A23F0B",
"o  c #A3430D",
"O  c #AC4C0E",
"+  c #B04F0F",
"@  c #B2520C",
"#  c #BD5F0E",
"$  c #A44513",
"%  c #A74914",
"&  c #AB4C13",
"*  c #AA4E19",
"=  c #AE5114",
"-  c #AF531C",
";  c #B25414",
":  c #B65815",
">  c #BA5D15",
",  c #B25619",
"<  c #B55A1B",
"1  c #B95E1B",
"2  c #BE600F",
"3  c #BE6115",
"4  c #BD621C",
"5  c #B65D23",
"6  c #B95E21",
"7  c #BD6423",
"8  c #B7622C",
"9  c #BC6629",
"0  c #BF692B",
"q  c #BF6C32",
"w  c #C26615",
"e  c #C66B15",
"r  c #C0661B",
"t  c #C46B1D",
"y  c #C86E1B",
"u  c #CB7216",
"i  c #CB731D",
"p  c #D17A1D",
"a  c #C36C23",
"s  c #C26C2A",
"d  c #C77126",
"f  c #CA7424",
"g  c #CE7924",
"h  c #C6712C",
"j  c #CA752B",
"k  c #CD7A2C",
"l  c #D17C24",
"z  c #D17E2B",
"x  c #C26E31",
"c  c #C06F39",
"v  c #C67332",
"b  c #C57335",
"n  c #C77634",
"m  c #C57233",
"M  c #C87530",
"N  c #C97631",
"B  c #C87635",
"V  c #C97734",
"C  c #CD7B32",
"Z  c #CF7E30",
"A  c #CA7937",
"S  c #CB7A36",
"D  c #CC7B36",
"F  c #CD7C35",
"G  c #CD7C36",
"H  c #CD7C33",
"J  c #C67639",
"K  c #C4743A",
"L  c #C7793E",
"P  c #C87839",
"I  c #CA7B3C",
"U  c #D17F30",
"Y  c #D17F30",
"T  c #CA7C40",
"R  c #CB7F43",
"E  c #CB7D42",
"W  c #D48025",
"Q  c #D58126",
"!  c #D38029",
"~  c #D3802B",
"^  c #D48129",
"/  c #D4822B",
"(  c #D7862C",
")  c #D4822C",
"_  c #D88629",
"`  c #DA892D",
"'  c #D18030",
"]  c #D38232",
"[  c #D48330",
"{  c #D78631",
"}  c #D58432",
"|  c #D18136",
" . c #D48434",
".. c #D58433",
"X. c #D88730",
"o. c #DD8E32",
"O. c #DB8D37",
"+. c #D98933",
"@. c #D0813A",
"#. c #D0813B",
"$. c #D38438",
"%. c #D2853F",
"&. c #D3853C",
"*. c #D5883F",
"=. c #DA8C38",
"-. c #DB8D3A",
";. c #D98B3C",
":. c #DE9137",
">. c #DE913B",
",. c #DD913D",
"<. c #DE933C",
"1. c #DF943E",
"2. c #CF8243",
"3. c #CE8141",
"4. c #D08441",
"5. c #D38741",
"6. c #D28747",
"7. c #D28543",
"8. c #D48841",
"9. c #D68B42",
"0. c #D1874B",
"q. c #DC9346",
"w. c #DC9347",
"e. c #DB9248",
"r. c #E09746",
"t. c #E49E4D",
"y. c #E29C4B",
/* pixels */
"                                                                                                    ",
"                                                                                                    ",
"                                                                                                    ",
"                                                                                                    ",
"                                                                                                    ",
"                                                                                                    ",
"                                                                                                    ",
"                                                                                                    ",
"                                                                                                    ",
"                                                                                                    ",
"                    8.8.M a A b s 0                                                                 ",
"              q.' k a , , O - 6 4 k M P                                                             ",
"            d z t a > a s s 7 h P C h A M                                                           ",
"        G a O : O * h } } ^ f i ~ k k z h m 4.                                                      ",
"        k 1 O X $ 9 ^ W p e e > 3 t i z j h k k B                                                   ",
"      T n 7 O - s C i e w 2 w 4 d 1 7 a a 4 t 4 a #.                                                ",
"      b a 6 : Y f l p w e > w t a 4 4 1 6 7 a r w j $.                                              ",
"    R P 6 = 5 ( i p i @ @ + : w t e t 4 > a j j f z z 9.                                            ",
"    x G M 5 6 l e e > > > r r w e e u t e a g [ U z f h 8.                                          ",
"  s x k a 6 Y l ; + r f l g a d f d y y y y f i f a j Y 4.                                          ",
"  M B h : , Y 4 O a z f f i a g ^ d t t y p l d k k l >.e.6.                                        ",
"r.l d r = 7 j O * d j f j g g 3 y g y > y e p y g l f p o.D U r.t.                                  ",
"1.i i w 1 a d + 7 d j g g -.i r y l i w g y p Y f z a l l -.} =.1.                                  ",
"  j f y 4 a a * j k j a g +.f t e u i e u u i ^ M #.h d w X.:.....,.                                ",
"  I k f * r : * j j z a d { f w l z z g y i f l =.:.d a 3 : f ^ l i g g +.  q.                      ",
"    s 1 O r : % 7 g z z d d g 1 l l X._ i t l g X._ g k k r < 4 4 4 o + t g p W                     ",
"    B 7 > : 1 7 1 k f > a a a 6 d a g g g l y y g i l f ) g f d k r ; : = : 2 u                     ",
"    4 7 3 > a k 1 a y e 1 4 a 6 d d z t d z g f y w t t a l z d a d t a 4 7 > a G                   ",
"        z f r a 4 < y l r < : 1 1 a f M a 1 1 r w d z g f 3 1 d l ^ a s a a s m I 7.0.              ",
"        M s 4 d a 6 d z e ; < a 1 < s x a 1 r w r f f z Q i w r : t a j M s a s B &.I I 2.T L       ",
"        *.z t k 1 6 f z g ; O , a , a 6 6 1 f +.z g a g [ l _ +.r r w a d s C x s ..a 5 5 7 7 q E   ",
"          8.s 5 s j r d j 1 , = % X a < 6 d d s a 6 6  ...d ) g r d z d h s x s 9 a * $ , - 0 m c K ",
"            K 8 8 3.I q 7 s a r & O a o % 9 s s h 7 6 s C k ' f t ` 7 f k 0 h C s - - % * 5 7 0 x L ",
"                            &.C w t ' a : 1 7 s a 1 1 a h h F s d r 4 a k f 0 h 1 & * . $ 5 0 8 5 c ",
"                                q.w.    [           j i a s t j h < 0 , 7 0 < H , = , = o = d 0 K   ",
"                                                        O.$.) }     C j s 7 % 4 = 7 0 4 f d s d 4.  ",
"                                                                      &.j 9 % i > 7 h g _ / a '     ",
"                                                                        K 5 7 g 4 a ;.^ i i '       ",
"                                                                          K 0 7 4 r d k k '         ",
"                                                                              9 A ~ ) k F           ",
"                                                                                                    ",
"                                                                                                    ",
"                                                                                                    ",
"                                                                                                    ",
"                                                                                                    ",
"                                                                                                    ",
"                                                                                                    ",
"                                                                                                    ",
"                                                                                                    ",
"                                                                                                    "
};
