/* XPM */
static char *_291c648571c464986a5586db3f305c1C1GFZWPz5WFPncxL[] = {
/* columns rows colors chars-per-pixel */
"50 50 132 2 ",
"   c None",
".  c #C25D22",
"X  c #C56323",
"o  c #C96524",
"O  c #CC6B25",
"+  c #C56C2C",
"@  c #CA6F28",
"#  c #D16F26",
"$  c #CE7225",
"%  c #CE7529",
"&  c #D27425",
"*  c #D47B27",
"=  c #D27629",
"-  c #D47C2A",
";  c #D87F2B",
":  c #CF7C31",
">  c #D17F32",
",  c #D17B38",
"<  c #D68127",
"1  c #D98326",
"2  c #DB8B27",
"3  c #D6822B",
"4  c #D9852B",
"5  c #D7882E",
"6  c #DB8B2C",
"7  c #DC9327",
"8  c #DE932C",
"9  c #DF992B",
"0  c #D58233",
"q  c #D98632",
"w  c #DB8C33",
"e  c #DC8D3C",
"r  c #DE9333",
"t  c #DF9A34",
"y  c #DE933B",
"u  c #DE993C",
"i  c #E1942D",
"p  c #E29B2D",
"a  c #E19533",
"s  c #E29B33",
"d  c #E0973A",
"f  c #E29D3B",
"g  c #E5A32D",
"h  c #E7AC2A",
"j  c #E5A334",
"k  c #E7A934",
"l  c #E8AC36",
"z  c #E4A33B",
"x  c #E7AA3B",
"c  c #E8AD3D",
"v  c #EAB637",
"b  c #EBBB36",
"n  c #EAB33C",
"m  c #ECBC3C",
"M  c #D79547",
"N  c #DE9444",
"B  c #DA9843",
"V  c #DA954A",
"C  c #E4A442",
"Z  c #E7AD42",
"A  c #E8AD44",
"S  c #E5AC4B",
"D  c #E8AF4B",
"F  c #E9B344",
"G  c #ECBC42",
"H  c #E9B44D",
"J  c #EBBB4C",
"K  c #E2A757",
"L  c #E5AE54",
"P  c #EAB554",
"I  c #EBBD53",
"U  c #EAB65C",
"Y  c #ECBD5C",
"T  c #ECBD65",
"R  c #EEC446",
"E  c #EEC44B",
"W  c #F0C942",
"Q  c #F0CC4C",
"!  c #EEC353",
"~  c #EFC854",
"^  c #EFC75A",
"/  c #F0CC56",
"(  c #F0CC5D",
")  c #F2D055",
"_  c #F2D35D",
"`  c #F4DA5F",
"'  c #EEC563",
"]  c #EFC46A",
"[  c #F0C861",
"{  c #F1CD61",
"}  c #F1CF60",
"|  c #F1CD62",
" . c #F0CC64",
".. c #F1CF64",
"X. c #F0C968",
"o. c #F0C969",
"O. c #F0CB69",
"+. c #F1CE6B",
"@. c #F2D365",
"#. c #F3D666",
"$. c #F4D961",
"%. c #F4D863",
"&. c #F2D269",
"*. c #F2D36B",
"=. c #F3D669",
"-. c #F4D76D",
";. c #F3D869",
":. c #F4DC6A",
">. c #F4D96D",
",. c #F4DB6D",
"<. c #F5DC6F",
"1. c #F0CB74",
"2. c #F2D371",
"3. c #F3D772",
"4. c #F3D576",
"5. c #F4DA71",
"6. c #F5DF71",
"7. c #F5DD72",
"8. c #F5DD75",
"9. c #F5DE75",
"0. c #F2D178",
"q. c #F3D57B",
"w. c #F3D67F",
"e. c #F5DB7A",
"r. c #F5DF7B",
"t. c #F6DF7A",
"y. c #F6DF7B",
"u. c #F4D87F",
"i. c #F4DD81",
"p. c #F5DA80",
"a. c #F6E186",
"s. c #F7E39C",
/* pixels */
"                                                                                                    ",
"                                                                                                    ",
"                                                                                                    ",
"                                                                                                    ",
"                                                                                                    ",
"                                                                                                    ",
"                                                                                                    ",
"                                                                                                    ",
"                                                                                                    ",
"                                                                                                    ",
"                                                                                                    ",
"                                                                                                    ",
"                            i.    3.,.9.:.                                                          ",
"                          ,.( O.u.=.{ y.5.5.                                                        ",
"                      t.t.=.o.1.0.! ( _ / ( e.                                                      ",
"                    ` ;.@. .Y ' I A ! ~ ~ &.2.( 9.                                                  ",
"                    m I x C K J { I J n v b [ q.#.,.                                                ",
"                $.R z I S L H Y R g x A D c F ^ 4.( Q                                               ",
"                { ' ! m ' ] C I p 2 9 I Q Q H H ! X.F ..                                            ",
"                H I J x z u Z S * 4 j j g h s S J I j G                                             ",
"              R j t 9 p 2 * t - o = 9 s 8 5 5 w D J k l ..s.                                        ",
"              n = 3 9 2 < 6 * o O = $ $ = w 2 i i f a s c [ 7.                                      ",
"              s O u p ; 3 w O & & & * X o - f s ; 4 4 A c m _ _                                     ",
"              z 1 M w # = 5 $ 1 2 $ X + 3 8 f - = , = i s g G ( 6.                                  ",
"              e O > - O - 1 5 ; 9 % . M P 6 $ * w ; & 1 i f x ~ a.%.                                ",
"                , S > O = = 9 5 7 * % : B 3 O < 4 = - a U Y s G O.( W                               ",
"                T R c > * . $ u 3 3 $ O $ 3 O * w ; 4 f j G j j z C l m / ) ,.                      ",
"                ] J g 8 $ : * $ < < < < $ 8 5 * a p 6 - w C i 6 3 w f f j j E w.p.                  ",
"                A z i 2 + 5 8 $ * $ $ 2 < 9 $ $ r g - # s 3 & = * 2 4 w S 6 i a D T U               ",
"                  a s 5 O X % 5 5 2 7 $ 3 - o - s s w - i 6 # 1 < 6 w i f 1 X - e d a C             ",
"                  a 5 % % $ $ * < 7 % < < O O a j a ; = s x 6 1 1 < * j 6 = # w d f C D             ",
"                    0 5 5 4 < 2 7 < $ * 1 & & 6 i 1 # = 2 i 4 - * < O $ * 1 4 1 1 6 a Z             ",
"                      N q p 9 i i p 2 1 q 3 w       e   z a = ; = - X X * 6 6 * * 4 a D             ",
"                          w 3 3 w Z s s                             % & 6 w & & = i c               ",
"                                                                      r 5 - 1 # = a                 ",
"                                                                          N d e                     ",
"                                                                                                    ",
"                                                                                                    ",
"                                                                                                    ",
"                                                                                                    ",
"                                                                                                    ",
"                                                                                                    ",
"                                                                                                    ",
"                                                                                                    ",
"                                                                                                    ",
"                                                                                                    ",
"                                                                                                    ",
"                                                                                                    ",
"                                                                                                    ",
"                                                                                                    "
};
