/* XPM */
static char *_6f7f7bc11874db9d5a3bd56d9c19e6eL6pwuMcTTkPx6JYC[] = {
/* columns rows colors chars-per-pixel */
"50 50 132 2 ",
"   c None",
".  c #C25D22",
"X  c #C56323",
"o  c #C96524",
"O  c #CC6B25",
"+  c #C56C2C",
"@  c #CA6F28",
"#  c #D16F26",
"$  c #CE7225",
"%  c #CE7529",
"&  c #D27425",
"*  c #D47B27",
"=  c #D27629",
"-  c #D47C2A",
";  c #D87F2B",
":  c #CF7C31",
">  c #D17F32",
",  c #D17B38",
"<  c #D68127",
"1  c #D98326",
"2  c #DB8B27",
"3  c #D6822B",
"4  c #D9852B",
"5  c #D7882E",
"6  c #DB8B2C",
"7  c #DC9327",
"8  c #DE932C",
"9  c #DF992B",
"0  c #D58233",
"q  c #D98632",
"w  c #DB8C33",
"e  c #DC8D3C",
"r  c #DE9333",
"t  c #DF9A34",
"y  c #DE933B",
"u  c #DE993C",
"i  c #E1942D",
"p  c #E29B2D",
"a  c #E19533",
"s  c #E29B33",
"d  c #E0973A",
"f  c #E29D3B",
"g  c #E5A32D",
"h  c #E7AC2A",
"j  c #E5A334",
"k  c #E7A934",
"l  c #E8AC36",
"z  c #E4A33B",
"x  c #E7AA3B",
"c  c #E8AD3D",
"v  c #EAB637",
"b  c #EBBB36",
"n  c #EAB33C",
"m  c #ECBC3C",
"M  c #D79547",
"N  c #DE9444",
"B  c #DA9843",
"V  c #DA954A",
"C  c #E4A442",
"Z  c #E7AD42",
"A  c #E8AD44",
"S  c #E5AC4B",
"D  c #E8AF4B",
"F  c #E9B344",
"G  c #ECBC42",
"H  c #E9B44D",
"J  c #EBBB4C",
"K  c #E2A757",
"L  c #E5AE54",
"P  c #EAB554",
"I  c #EBBD53",
"U  c #EAB65C",
"Y  c #ECBD5C",
"T  c #ECBD65",
"R  c #EEC446",
"E  c #EEC44B",
"W  c #F0C942",
"Q  c #F0CC4C",
"!  c #EEC353",
"~  c #EFC854",
"^  c #EFC75A",
"/  c #F0CC56",
"(  c #F0CC5D",
")  c #F2D055",
"_  c #F2D35D",
"`  c #F4DA5F",
"'  c #EEC563",
"]  c #EFC46A",
"[  c #F0C861",
"{  c #F1CD61",
"}  c #F1CF60",
"|  c #F1CD62",
" . c #F0CC64",
".. c #F1CF64",
"X. c #F0C968",
"o. c #F0C969",
"O. c #F0CB69",
"+. c #F1CE6B",
"@. c #F2D365",
"#. c #F3D666",
"$. c #F4D961",
"%. c #F4D863",
"&. c #F2D269",
"*. c #F2D36B",
"=. c #F3D669",
"-. c #F4D76D",
";. c #F3D869",
":. c #F4DC6A",
">. c #F4D96D",
",. c #F4DB6D",
"<. c #F5DC6F",
"1. c #F0CB74",
"2. c #F2D371",
"3. c #F3D772",
"4. c #F3D576",
"5. c #F4DA71",
"6. c #F5DF71",
"7. c #F5DD72",
"8. c #F5DD75",
"9. c #F5DE75",
"0. c #F2D178",
"q. c #F3D57B",
"w. c #F3D67F",
"e. c #F5DB7A",
"r. c #F5DF7B",
"t. c #F6DF7A",
"y. c #F6DF7B",
"u. c #F4D87F",
"i. c #F4DD81",
"p. c #F5DA80",
"a. c #F6E186",
"s. c #F7E39C",
/* pixels */
"                                                                                                    ",
"                                                                                                    ",
"                                                                                                    ",
"                                                                                                    ",
"                                                                                                    ",
"                                                                                                    ",
"                                                                                                    ",
"                                                                                                    ",
"                                                                                                    ",
"                                                                                                    ",
"                                                                                                    ",
"                                                                                                    ",
"                                                          :.9.>.3.    i.                            ",
"                                                        5.5.y.} *.p.O.( ,.                          ",
"                                                      e.( / _ ( ~ 0.1.O.=.t.t.                      ",
"                                                  9.( 2.&.~ ^ E F J ' Y  .@.;.`                     ",
"                                                7.#.q.[ b v n J I } I K C x I m                     ",
"                                              Q ( 4.^ A Z D A k g R Y D L S I z Q `                 ",
"                                            ..F o.! H H Q Q H s 2 p I C ] ' m ! ' }                 ",
"                                            F j ! J D s h g j j 4 = S c u z z J I H                 ",
"                                        s. .l k J H w 5 6 i s 8 & o - t * 2 p i u j R               ",
"                                      6.[ n s a f 6 i 2 w = $ = * O O * 2 < 7 8 ; & n               ",
"                                    _ ( n c A 4 6 - s f - o X & & & & @ 6 3 < p u O z               ",
"                                  6._ G g s i * 0 = - z 8 < + X $ 5 1 $ q = $ w V < f               ",
"                                %.a./ k f a 1 # > q * = 6 P M . % 9 < 6 3 * O - > O e               ",
"                              W ( +.G s Y U a ; ; 4 < O - B : % * 7 5 8 * % + 0 S ,                 ",
"                      3.) / m l C z k j G k f 4 * 5 * # < & o % < 5 u $ . * 3 x R T                 ",
"                  p.w.E j j f f 6 3 6 w C 6 - w p a * 5 7 & < < < < $ = : $ 8 g J ]                 ",
"              U T A s 6 4 S w 4 6 * * # 4 a & * g 8 $ $ 9 < 5 $ $ * $ 8 3 + 2 i z S                 ",
"            C r N e ; X 3 j r 8 5 ; * # 6 i * w j t - o 3 < $ 7 2 4 3 = o $ q s s                   ",
"            D C f d w O = 8 g * 1 1 1 2 z d & > t j r o O < < * p < * & % % % 6 a                   ",
"            c a 6 2 1 < < - & O * * ; 6 i 6 * # ; 8 7 * $ < & $ < 2 1 < 5 5 4 0                     ",
"            A a 4 ; * 4 6 * . o ; = ; $ r z   e       w 4 q ; 2 p i i 7 p q N                       ",
"              Z 6 * = * 6 6 & =                             s f x w 4 4 e                           ",
"                a ; # 4 0 q w                                                                       ",
"                    q d e                                                                           ",
"                                                                                                    ",
"                                                                                                    ",
"                                                                                                    ",
"                                                                                                    ",
"                                                                                                    ",
"                                                                                                    ",
"                                                                                                    ",
"                                                                                                    ",
"                                                                                                    ",
"                                                                                                    ",
"                                                                                                    ",
"                                                                                                    ",
"                                                                                                    ",
"                                                                                                    "
};
