/* XPM */
static char *_9f55b882e144de2c5ff086758292ae68MwOZrLORhrBhvjT[] = {
/* columns rows colors chars-per-pixel */
"50 50 219 2 ",
"   c None",
".  c #150805",
"X  c #1A110E",
"o  c #1C1815",
"O  c #090503",
"+  c #240904",
"@  c #2C0B05",
"#  c #230D08",
"$  c #350D06",
"%  c #3B0E06",
"&  c #350F08",
"*  c #39120B",
"=  c #281B17",
"-  c #3D1B16",
";  c #28211D",
":  c #3F211B",
">  c #2C2724",
",  c #352C28",
"<  c #39332F",
"1  c #3B3633",
"2  c #420F06",
"3  c #451209",
"4  c #4C1309",
"5  c #431007",
"6  c #54160A",
"7  c #5A180C",
"8  c #491A15",
"9  c #571B13",
"0  c #671A0E",
"q  c #6D1B10",
"w  c #6C1D1B",
"e  c #7C1E14",
"r  c #761D15",
"t  c #721A0F",
"y  c #69221E",
"u  c #532A23",
"i  c #5D342F",
"p  c #453C37",
"a  c #5D3B36",
"s  c #642B28",
"d  c #6E382A",
"f  c #7A3B35",
"g  c #7A2E29",
"h  c #4A433C",
"j  c #554139",
"k  c #72433C",
"l  c #70402A",
"z  c #4A4643",
"x  c #534C47",
"c  c #5B5753",
"v  c #5E534B",
"b  c #664B47",
"n  c #6B524A",
"m  c #635B55",
"M  c #655A58",
"N  c #765652",
"B  c #7A544D",
"V  c #66625D",
"C  c #77655F",
"Z  c #696663",
"A  c #786C66",
"S  c #7C736C",
"D  c #7E7C7B",
"F  c #841D15",
"G  c #941F18",
"H  c #8C221A",
"J  c #852016",
"K  c #94241C",
"L  c #9B241E",
"P  c #8A3D1E",
"I  c #A0211D",
"U  c #842C27",
"Y  c #9D2621",
"T  c #912920",
"R  c #9A3B33",
"E  c #A32622",
"W  c #AB2723",
"Q  c #AC2925",
"!  c #A72825",
"~  c #B42A25",
"^  c #BB2B27",
"/  c #B92B27",
"(  c #B6312D",
")  c #BD3733",
"_  c #C03633",
"`  c #8D4523",
"'  c #964C26",
"]  c #9B552A",
"[  c #915038",
"{  c #A75A2B",
"}  c #A65D34",
"|  c #B04933",
" . c #B3632E",
".. c #B56B35",
"X. c #BC7339",
"o. c #B3723B",
"O. c #AD6332",
"+. c #C27535",
"@. c #C67936",
"#. c #C97B36",
"$. c #C47B3C",
"%. c #C97E3A",
"&. c #C0773B",
"*. c #834A43",
"=. c #84584A",
"-. c #845A56",
";. c #94584F",
":. c #AA4843",
">. c #B14947",
",. c #B65A56",
"<. c #AC534E",
"1. c #95715C",
"2. c #A8774B",
"3. c #BA7B46",
"4. c #AF684D",
"5. c #876C65",
"6. c #956964",
"7. c #897467",
"8. c #827B77",
"9. c #987472",
"0. c #90746A",
"q. c #A97C79",
"w. c #B57B76",
"e. c #BD6F6B",
"r. c #C37C43",
"t. c #C77977",
"y. c #D17875",
"u. c #CD833C",
"i. c #D0873C",
"p. c #D2893E",
"a. c #B88554",
"s. c #BE844A",
"d. c #8B837C",
"f. c #9A897F",
"g. c #AD8873",
"h. c #BC8765",
"j. c #CC8441",
"k. c #C4854C",
"l. c #CC8B4B",
"z. c #CC8847",
"x. c #D38C43",
"c. c #D28E49",
"v. c #D69145",
"b. c #D99546",
"n. c #D6944C",
"m. c #D99649",
"M. c #DA9A4C",
"N. c #CA8F56",
"B. c #CB935B",
"V. c #D49554",
"C. c #DA9C53",
"Z. c #D79B59",
"A. c #DDA156",
"S. c #DDA35B",
"D. c #E1A85A",
"F. c #D59B61",
"G. c #D89F60",
"H. c #C1956D",
"J. c #DCA363",
"K. c #DBA669",
"L. c #DDA869",
"P. c #DBAA75",
"I. c #E1AA63",
"U. c #E1AD6A",
"Y. c #E4B16B",
"T. c #E6B46A",
"R. c #E4B474",
"E. c #E7BA79",
"W. c #E0AF72",
"Q. c #8D8883",
"!. c #948984",
"~. c #99938D",
"^. c #9A9794",
"/. c #A4968D",
"(. c #A19B95",
"). c #A79793",
"_. c #BD9B94",
"`. c #B39286",
"'. c #A9A29C",
"]. c #B6A297",
"[. c #AAA6A3",
"{. c #AAA7A4",
"}. c #B7ACA5",
"|. c #BAB4AE",
" X c #B9B5B3",
".X c #C88986",
"XX c #CA9C96",
"oX c #CE9390",
"OX c #CEA39C",
"+X c #D4A49D",
"@X c #D9A99B",
"#X c #D6B08A",
"$X c #E7BD84",
"%X c #E3BF98",
"&X c #D6BAA8",
"*X c #C3BBB4",
"=X c #C1BEBD",
"-X c #DAB8B6",
";X c #D8AFAD",
":X c #E1BAB9",
">X c #E9C083",
",X c #C9C4BD",
"<X c #D7C6B7",
"1X c #E1C2A7",
"2X c #C5C2C1",
"3X c #D0CAC4",
"4X c #D2CECB",
"5X c #D8D2CC",
"6X c #D5D4D3",
"7X c #DDDDDE",
"8X c #DCD8D3",
"9X c #E2DCD5",
"0X c #E5D6D5",
"qX c #EBE5DC",
"wX c #E7E2DA",
"eX c #E4E3E3",
"rX c #EAEBEB",
"tX c #EAE9E6",
"yX c #F3EFE9",
/* pixels */
"                                                                                                    ",
"                                                                                                    ",
"                                                                                                    ",
"                                                                                                    ",
"                                                                                                    ",
"                                                                                                    ",
"                                  c.I.                C.S.                                          ",
"                                J.j.i.x.M.      R.C.D.Z.V.U.S.U.E.T.T.E.                            ",
"                            E.  U.C.#.@.#.r.S.W.U.G.$XU.D.I.R.R.V.b.m.I.                            ",
"                          v.C.T.R.U.j. . .r.L.R.I.I.C.V.V.v.U.$XF.%.v.M.    T.T.                    ",
"                            @.#.r.M.l.| } L.C.m.x.%.c.c.#.#.x.C.I.c.U.  I.M.v.D.                    ",
"                  Y.D.V.x.p.X.{ +.W.$XF.K.I.x.j.i.%.Z.Z.%.#.@.+.c.G.R.R.D.m.b.U.                    ",
"                c.M.n.&.X. .P ` N.E.V.c.v.x.l.r. .j.x.v.Z.r.%.r.x.v.j.x.x.S.U.R.                    ",
"                  c.s.] { { ` 2.W.D.C.x.%.%.r.I.B.C.%.#.V.I.F.I.K.W.V.V.I.Z.I.E.>X                  ",
"                    =.l a.s.u.n.n.c.v.x.x.i.%.x.x.x.+.+.%.x.x.z.V.n.u.V.c.n.M.C.T.                  ",
"                    5.2.I.S.N.z...{ +.i.i.i.%.#.#.%. .{ #.#.+.+.X.u.%.i.+.x.x.m.M.$X                ",
"                  8X7.a.S.E.U.k.' P ]  ...j.V.J.Z.c.z.{ { ..O.&.+.@.+.u.%.v.v.M.S.$X                ",
"                    f.a.W.Z.X.s.c.o.] P o.J.Z.n.C.C.A.V.B.J.s.F.S.Z.l.%.X.%.u.#.J.                  ",
"                    2XH.V.] ' j.j.&.{ } Z.M.%.u.x.C.I.D.D.A.M.C.A.D.Y.A.A.B...h.&X                  ",
"                      ].g.l } X.$.X.....u.i.+.x.i.p.b.p.b.b.m.b.m.A.M.v.S.E.&X).a                   ",
"                      : A ).oXa.3.o.} ] X.x.v.x.i.p.v.p.b.b.b.b.C.D.W.%X1X].B 3 @                   ",
"                      @ $ u =.`._.`.g.0.1.B.S.V.l.3.k.B.G.P.P.%X1X&X+Xw.[ 0 5 % &                   ",
"                      @ @ . # b N N 6.w..XXX@X@X+XOX+X@X+XoX.Xe.<.R H J 0 6 5 % &                   ",
"                      @ . O x |.4X=X).N g E ( _ _ _ ) ( ~ W L L K K H e q 6 5 %                     ",
"                        . > z 1 Z =XtXeX2X9.U ^ ^ ^ ^ / ~ Q E Y K K H e 0 6 5 &                     ",
"                        + m m C 8.A 2XeXrXrX|.b W _ ^ ~ Q Q E Y K K H e 0 6 5 &                     ",
"                        + < < /.6X3X5X9X9XtXyX2XU ^ ^ ~ Q ! Y Y L K J r 0 6 * &                     ",
"                        @ = , /.3X6X0X9XqXqXqX6X!.H ^ ~ ~ ! E Y K K J r 7 4 % &                     ",
"                        @ # > m (.3X8X9XqXqXyX~.D 8 / ~ Q ! ! Y K K J r 7 4 % &                     ",
"                          + = ; p x '. X'.[.*X].1 6 / ~ Q ! Y Y K H J q 7 3 %                       ",
"                          $ . ; d.V x Z , z x c Z i W ~ Q ! E Y K K J q 9 3 %                       ",
"                          @ + X /.|.S 3X,X2X(.Q.9XA G ~ Q E Y Y K K U *.k 3 &                       ",
"                          @ & . < h h {.*X~.<X9XqXn E | ( >.>.,.w.w.q.f 6 5 &                       ",
"                          & $ + ; < V D ~.~.S 5X(.y _ :X.X.X<.-XOXq.}.*.9 2 &                       ",
"                            $ % ; b ; z Z V < ^.A G y.0X0X.X,.;XR R ;.g 4 * &                       ",
"                            $ 5 @ 1 z 1 {.{.D ,XC ! y.y.,.e.:.:.T F t 7 4 * &                       ",
"                            @ & # o , z 9XrXqX Xh w Y Q ! I G G G e t 7 5 %                         ",
"                            , X . c h < 6XeX^.c {.c u 9 k -.6.9.q.5.u 6 5 %                         ",
"                            0.p - S ^.> Z ^.> ^.rX~.7.w [.rXrXrXeX6X!.8 5 *                         ",
"                              j 8 d.d.> X o X z 6X X'.e 6.rXrXeXeX6X=Xn 3 a                         ",
"                              j - 8.'.[.A o m Q.6X7X3Xg U  XrXtXeX4X*Xf.n                           ",
"                                b c 8.(.M o Z 2X6X7X Xi H M 7XrX9X3X*X|.                            ",
"                                    V n a s s *.9.6.q.q.>.s {.yXeX6X                                ",
"                                            .Xt.;X+X:X:X;XXX                                        ",
"                                                                                                    ",
"                                                                                                    ",
"                                                                                                    ",
"                                                                                                    ",
"                                                                                                    ",
"                                                                                                    "
};
