/* XPM */
static char *e6b37317a62949b4d87c0c01c420e6f0RLPeXXxWdhExzdwT[] = {
/* columns rows colors chars-per-pixel */
"50 50 241 2 ",
"   c None",
".  c #0A0301",
"X  c #0C0705",
"o  c #160704",
"O  c #1A1412",
"+  c #1F1915",
"@  c #2D0701",
"#  c #280904",
"$  c #330903",
"%  c #3B0A03",
"&  c #350701",
"*  c #231D1A",
"=  c #241915",
"-  c #391914",
";  c #21110D",
":  c #29221D",
">  c #2A2420",
",  c #322A25",
"<  c #342C29",
"1  c #38312D",
"2  c #3D3633",
"3  c #430902",
"4  c #4B0A03",
"5  c #400A0B",
"6  c #530C03",
"7  c #5B0E03",
"8  c #5C080A",
"9  c #491B18",
"0  c #561410",
"q  c #670C07",
"w  c #760B07",
"e  c #641004",
"r  c #6A1005",
"t  c #731006",
"y  c #791207",
"u  c #6C1818",
"i  c #56241F",
"p  c #712A17",
"a  c #483D38",
"s  c #54322E",
"d  c #782625",
"f  c #6E312D",
"g  c #741F21",
"h  c #4A423C",
"j  c #52473F",
"k  c #6C4335",
"l  c #4C4744",
"z  c #554B48",
"x  c #5A514D",
"c  c #585452",
"v  c #665A54",
"b  c #765954",
"n  c #6B4F49",
"m  c #67615D",
"M  c #75675D",
"N  c #6C6866",
"B  c #766C67",
"V  c #7A726B",
"C  c #797473",
"Z  c #990F0C",
"A  c #85100A",
"S  c #8B100A",
"D  c #95110D",
"F  c #9B120E",
"G  c #880C13",
"H  c #990B13",
"J  c #9F1210",
"K  c #890E0E",
"L  c #AB0C13",
"P  c #A60D16",
"I  c #BA0E17",
"U  c #A31212",
"Y  c #AB1215",
"T  c #AB1A1B",
"R  c #B31219",
"E  c #BB111A",
"W  c #B11A1F",
"Q  c #A1100F",
"!  c #983C13",
"~  c #922716",
"^  c #BD1E26",
"/  c #8C3333",
"(  c #B02A2D",
")  c #8A1B20",
"_  c #C60F19",
"`  c #CD0E1A",
"'  c #C40C16",
"]  c #C31019",
"[  c #CC131D",
"{  c #D00F1B",
"}  c #CD1C26",
"|  c #CD373F",
" . c #9C461A",
".. c #AA4816",
"X. c #B14E16",
"o. c #A8521C",
"O. c #B8581B",
"+. c #8F5132",
"@. c #A95825",
"#. c #B05525",
"$. c #BB6528",
"%. c #B96835",
"&. c #CD6C1C",
"*. c #C6651C",
"=. c #D3731D",
"-. c #D97A1E",
";. c #D6751B",
":. c #D26F1A",
">. c #CA6D24",
",. c #C46926",
"<. c #CC7328",
"1. c #D37522",
"2. c #D57A24",
"3. c #D97D22",
"4. c #D47B2B",
"5. c #D17629",
"6. c #C77632",
"7. c #D27C36",
"8. c #C15E18",
"9. c #CA3E45",
"0. c #8B524D",
"q. c #BA4647",
"w. c #AE5251",
"e. c #83675C",
"r. c #9D6959",
"t. c #AF744F",
"y. c #826D64",
"u. c #847A77",
"i. c #90766E",
"p. c #AC7571",
"a. c #C9575D",
"s. c #CE424A",
"d. c #C17B42",
"f. c #CA5F63",
"g. c #D7757A",
"h. c #C96C6E",
"j. c #DD8325",
"k. c #DC842B",
"l. c #DF892C",
"z. c #DE8A34",
"x. c #DD8C3A",
"c. c #D98435",
"v. c #D6893B",
"b. c #E28C2C",
"n. c #E08726",
"m. c #E4912F",
"M. c #E18E33",
"N. c #E49234",
"B. c #E3943B",
"V. c #E7993C",
"C. c #E89C3C",
"Z. c #E79837",
"A. c #EAA03F",
"S. c #96857C",
"D. c #87817B",
"F. c #B5897B",
"G. c #DB8D43",
"H. c #DE9649",
"J. c #DA9959",
"K. c #CB8750",
"L. c #E69B44",
"P. c #E89E43",
"I. c #E49B4B",
"U. c #E19442",
"Y. c #E29C52",
"T. c #E29C5A",
"R. c #E08E42",
"E. c #EAA34B",
"W. c #EAA449",
"Q. c #ECAB53",
"!. c #ECAD5D",
"~. c #E7A456",
"^. c #EFB15A",
"/. c #F0B257",
"(. c #D89A62",
"). c #DCA46D",
"_. c #EAAC62",
"`. c #E7AC69",
"'. c #EEB364",
"]. c #EEB46B",
"[. c #F2B966",
"{. c #ECB776",
"}. c #F1BE75",
"|. c #F2C17A",
" X c #DC7B81",
".X c #8B8684",
"XX c #958A85",
"oX c #99918B",
"OX c #939191",
"+X c #A39B93",
"@X c #A49C9A",
"#X c #A89E9D",
"$X c #AA9184",
"%X c #AAA29C",
"&X c #B5A79F",
"*X c #B3ACA5",
"=X c #BDAEA9",
"-X c #BCB3AB",
";X c #BBB9B8",
":X c #A6A4A2",
">X c #D59999",
",X c #CA928E",
"<X c #C7A799",
"1X c #D9B28F",
"2X c #E8BC8A",
"3X c #D99FA1",
"4X c #DAA4A5",
"5X c #C6B4A9",
"6X c #C6BCB6",
"7X c #D8B6B4",
"8X c #CEB4AB",
"9X c #E2B6AE",
"0X c #E08E92",
"qX c #F1C489",
"wX c #CAC2BD",
"eX c #D7C4B3",
"rX c #E4C6BA",
"tX c #ECCBA7",
"yX c #E9BFC0",
"uX c #C4C3C3",
"iX c #CDCAC7",
"pX c #D4CCC6",
"aX c #DBD3CD",
"sX c #D7D1CD",
"dX c #D8D6D5",
"fX c #CFD1D1",
"gX c #E9CACA",
"hX c #E7D6C7",
"jX c #E2DCD4",
"kX c #E2DEDC",
"lX c #EBDBD7",
"zX c #EAE3DB",
"xX c #E5E0DC",
"cX c #F1E8DE",
"vX c #E4E4E4",
"bX c #EAEAEB",
"nX c #E9E6E6",
"mX c #F4EDE2",
"MX c #EEEFF0",
"NX c #F4F4F4",
"BX c #DEDFE0",
/* pixels */
"                              P.].                        ^.                                        ",
"                              1.N.E.Q.                  B.L.B.'.}.                                  ",
"                            !.4.3.n.n.M.!.      [.I.P.P.I.I.R.!.L.P.!.}.[.Q./.[.                    ",
"                            Q.W.j.;.;.3.n.N.!.T._.M.Y.{._.B.E.Q._.}.!.Q.Z.Z.C.Q.                    ",
"                    Z.E.|.}._.'.k.&.>.1.*.5.T.].].].'.].E.~.I.P.^.}.T.1.;.j.b.E.        [.          ",
"                    j.3.N.W.!.W.I.*.O.X.$.`.Q.!.P.V.P.M.3.B.n.-.P.!.qX`.k.b.Z.    '.P.W./.          ",
"                      =.=.=.=.z.L.,...#.).W.m.b.n.;.4.M.c.n.:.;.3.M.N.I.4.U.    E.E.n.b.E.          ",
"          [.!.E.L.N.V.k.O.O.>.Y.].{.K.(.'.N.n.n.n.;.5.Y.Y.R.:.3.;.:.3.B.Y.{.}.}.W.C.b.b.!.          ",
"      B.N.W.M.=.&.&.&.O.! ..4.qX`.I.Z.I.I.x.<.<.&.1.M.M.M.R.>.&.2.>.2.z.M.M.x.P.n.N.W.L.!.          ",
"      k.c.Z.H.<.<.>.O.~ p %._.!.M.b.n.3.;.7.H.T.%.,.M.3.3.P.].d.c.k.x.l.M.z.1.2.R.I.~.].{.qX        ",
"        V.c.$.o. .o.o.o.@.H.^.~.I.L.k.3.3.4.5.P.Y.T.P.-.;.-.C.Q.~.`._.].}._.G.I.!.B.B.Q.'.}.        ",
"            e.p +.t.v.k.v.U.B.M.M.n.M.b.n.3.1.N.3.3.M.1.:.1.3.b.l.z.5.H.R.j.4.~.M.z.V.V.V.Q.|.      ",
"          dXe.k ~./.B.c.v.v.=.O.2.:.n.b.-.j.3.3.3.j.>.O.X.=.3.3.=.=.*.:.j.j.5.j.&.k.b.3.N.N.W.      ",
"          pXv %.V.W.!.~.v.*... .O.>.5.&.3.3.1.5.=.1.k.5.X.8.:.&.:.<.<.*.2.=.;.n.2.l.k.N.Z.N.!.      ",
"          pXb d.c.].].^.Y.6. . .! X.O.8.5.v.~._._.I.M.b.,. .#.,.X.O.2.=.1.&.=.3.<.l.b.b.Z.V.`.      ",
"          bXu.t._.].B.$.<.v.B.%.#.! ! #.Y._.I.b.B.L.I.I.I.d.J._.K.K.~.T.Y.B.1.5.*.<.k.k.1.k.{.      ",
"            uXr.^.V.O...$.z.k.4.>. .@.J.I.N.3.3.b.M.~.Q.Q./.Q.W.C.W.Q.W.W.Q.].P.I.G.<.O.$.).hX      ",
"            uXeXJ.@.p  .,.4.4.,.X.o.%.M.b.3.=.b.b.3.M.P.N.m.Z.m.b.b.n.N.W.W.C.b.W./.T.t.7X5Xb       ",
"              y.-Xi.f @.,.7.6.6.,.*.<.2.j.3.<.b.3.j.j.n.n.b.m.m.N.Z.b.N.A.Z.Z.b.H.].tXpXi.9 $       ",
"              $ s XX5X<XJ.t.%.%.$.X.o.<.k.M.M.k.3.j.b.b.n.b.m.Z.Z.b.V.V.C.E.`.tXhX7Xp.f 3 %         ",
"              $ % 3 f i.<X7X<X(.t.0.k +.6.x.b.j.j.j.1.5.3.l.N.B.R.Y.{.2XtXgXrX,Xw.p 7 4 3 &         ",
"              $ & $ @ % 0 f e.p.<X8X6X6X8X1X2X2X1X,X$X1X2X9XrXrXgXgX7X>Xh.q.~ S w e 7 4 3 &         ",
"              $ & o . O m D.V n f d ( q.a.h.g.g.(. Xg.g.g.h.a.s.( ( T U Z Z F K y r 7 4 3 %         ",
"                @ o . l @XsXkXdXiX@Xb g H ' ` ` ` ` ` ` ` ' I R R Y Y U U J D A w e 6 4 % %         ",
"                @ o O 1 2 l OXdXnXnXvXuXi.d L { ` ` ` ` ` ] E E R Y Y U U F D A t e 6 3 % %         ",
"                $ ; B D.2 h 2 c ;XvXnXbXMXuXn G ` ` ` ` _ ] E E R Y Y U U F D A t e 6 3 %           ",
"                @ o v l v 6XwXoX+XdXkXnXbXNXnXV G { { ` _ ] E R R Y Y U F F D A t 7 6 3 %           ",
"                $ # 2 : v 5XpXaXdXjXlXlXzXmXNXbXb P { ` _ ] E E R Y Y U F F D y r 7 4 3 %           ",
"                  @ , , b 5XiXsXaXjXjXzXzXmXzXdXuXu _ ` _ ] E E R Y Y U U F D y r 7 4 3 %           ",
"                  @ ; : x #XiXsXaXjXjXjXlXzXzXC uXh G ` _ E E R R Y U U F Z S y r 7 4 % %           ",
"                  $ # : , a v %XsXjXzXzXcXmXnX;Xm 2 w ` _ ] E E R Y Y U J F S t r 6 3 % %           ",
"                  @ @ ; ; , a * m %X+Xu.u..X+X:Xc X G ` _ ] E R R Y U U F D S t e 6 4 %             ",
"                  $ $ o o x oXV : B j O < j j j N h p R _ E E E P R P U J D A w 7 6 3 %             ",
"                    $ $ . 2 =XsXV +XwX*X%X%XN m jX-Xj Y _ ] E E R P P J Q D A +.+.0 3 %             ",
"                    $ & o O S.+Xh oXxXxXaXcX-X*XmXpXi I ' I I L Y Y T ( q./ r.0.f 4 % %             ",
"                    $ % @ . = = + l %X*Xm S.rXmXmX@X0 [ | 9.^ a.f.q.4X<Xh.<Xr.r 6 4 3 %             ",
"                    $ & % o < a l :XC .XuXC B hXeXl H } 9X9X X3Xq.h.BX,Xw.pXp.0.0 4 % %             ",
"                    $ $ 3 & - M * < c N N N < oX%X5 ' s.nXgXlXa.W 7X>X( T p.r.d 7 4 % %             ",
"                      % 3 4 # z h X l D.m c , -X*Xu [ 0XgXf.yX3Xq.,Xw.U F A t e 6 4 %               ",
"                      $ % 4 $ X M j l iXjXxX%XjXoXq } s.s.[ } ( W T P U F A t 7 6 3 %               ",
"                      $ % 3 # = O = c vXnXzXzXpXl s w P E E E E L L U J S A t 7 6 3 %               ",
"                      : ; . . x v . l BXbXdX*Xl C :X< 9 8 0 g d / 0.0.0.0.i 7 7 4 % %               ",
"                      y.n O - x -XB * OXbXC > C vX;XC 0.w c uXfXdXBXvXBXdX%Xs 4 4 3 %               ",
"                        y.- i y.@Xv . O C < 2 .XMX;X#XoXG / dXMXMXvXbXxXdXiXS.5 4 5 s               ",
"                        e.- 9 S.S.y.* X X X . * fX;XfX=Xg H OXMXbXbXvXBXdXwX=Xk 4 s                 ",
"                        y.9 % D.%X#X&Xu.> < B u.BX;XbXpXf P f fXbXbXvXvXsXwX5Xi.n                   ",
"                          b s h #X&XiX+X= + #X6XkXMXNXlXs P G C bXbXvXBXsX6X5X&X                    ",
"                              m l h x < * = z #X#X@X#XXXn / P 9 ;XbXvXkXsXiX6X                      ",
"                                  D.e.0./ ) ) H w.p.w.,Xf.3X^ g C bXbXBX                            ",
"                                          4X>X>X3XyX3XgX3XlX3X7XuX                                  "
};
