/* XPM */
static char *_0bad1b1d0944e8ec0ca046e7920f25fsQfAZ93eln9gR7I6[] = {
/* columns rows colors chars-per-pixel */
"50 50 197 2 ",
"   c None",
".  c #000000",
"X  c #0A0B0E",
"o  c #050709",
"O  c #0B0F13",
"+  c #0E1216",
"@  c #13181C",
"#  c #191E21",
"$  c #1C2126",
"%  c #252A2E",
"&  c #30373D",
"*  c #363C41",
"=  c #07585E",
"-  c #0D585F",
";  c #11585F",
":  c #0B464E",
">  c #3C4246",
",  c #2E555D",
"<  c #365F5F",
"1  c #125B63",
"2  c #1F6F74",
"3  c #0F6D74",
"4  c #336F72",
"5  c #42474D",
"6  c #4A4F53",
"7  c #4F555A",
"8  c #52575B",
"9  c #6B5346",
"0  c #6F5B52",
"q  c #795F51",
"w  c #7D5D4B",
"e  c #646457",
"r  c #535F6A",
"t  c #40727B",
"y  c #507177",
"u  c #66686A",
"i  c #676E71",
"p  c #6B7677",
"a  c #8A6752",
"s  c #9E755C",
"d  c #826E66",
"f  c #857769",
"g  c #997B6A",
"h  c #A77D66",
"j  c #9A877A",
"k  c #A68169",
"l  c #AC866D",
"z  c #B4876B",
"x  c #B98E74",
"c  c #C69779",
"v  c #147F86",
"b  c #0A7B84",
"n  c #267C84",
"m  c #3C7885",
"M  c #547781",
"N  c #577D87",
"B  c #4A7881",
"V  c #6E7A84",
"C  c #747C82",
"Z  c #7C7F84",
"A  c #747F88",
"S  c #0C8992",
"D  c #0C8E96",
"F  c #3E8E95",
"G  c #269397",
"H  c #3A8E92",
"J  c #0B9DA6",
"K  c #1A9BA2",
"L  c #219EA3",
"P  c #07A1AA",
"I  c #19A8B0",
"U  c #20A5A9",
"Y  c #25AEB7",
"T  c #28B8BE",
"R  c #35AFB9",
"E  c #50928F",
"W  c #498D92",
"Q  c #7A848C",
"!  c #758088",
"~  c #6E9189",
"^  c #638D96",
"/  c #7F8A91",
"(  c #7EA19F",
")  c #719AA1",
"_  c #6D96A4",
"`  c #5AAFB3",
"'  c #5FB9BE",
"]  c #47AEB3",
"[  c #63B9BD",
"{  c #7CA7B1",
"}  c #33BBC3",
"|  c #2DBBC2",
" . c #59BDC4",
".. c #47BFC7",
"X. c #6ABCC4",
"o. c #34CBCF",
"O. c #45CBCF",
"+. c #5AC7CD",
"@. c #4DD0D4",
"#. c #46CCD1",
"$. c #63C3C9",
"%. c #6BCAD1",
"&. c #70CCD4",
"*. c #6DDBDF",
"=. c #6AD0D4",
"-. c #73DADE",
";. c #77D2D7",
":. c #82898E",
">. c #838C92",
",. c #9C8F90",
"<. c #8B9195",
"1. c #8C949B",
"2. c #949A9D",
"3. c #999E9E",
"4. c #9E9B8A",
"5. c #AC948A",
"6. c #A1938D",
"7. c #B19786",
"8. c #AA9B99",
"9. c #979DA2",
"0. c #9FA3A6",
"q. c #97B8B5",
"w. c #A3A6AA",
"e. c #A5A9AB",
"r. c #A9ACAD",
"t. c #A1A7A4",
"y. c #ABADB3",
"u. c #A6ACB1",
"i. c #AEB1B5",
"p. c #B1B2B5",
"a. c #B4B4BB",
"s. c #B7B9BA",
"d. c #B9BCBC",
"f. c #C39D84",
"g. c #CBA88E",
"h. c #DFB08F",
"j. c #C4A796",
"k. c #D7AE94",
"l. c #D9B296",
"z. c #E1B293",
"x. c #D5BAAA",
"c. c #C6AFA6",
"v. c #B5C0B0",
"b. c #E1C1AB",
"n. c #F1C9AF",
"m. c #E5C8B6",
"M. c #BDBEC1",
"N. c #B7BAC0",
"B. c #94CFD7",
"V. c #86D4D9",
"C. c #9CD4DB",
"Z. c #BFC1C2",
"A. c #B3D5D8",
"S. c #AAD2D7",
"D. c #8CD8E1",
"F. c #92D9E3",
"G. c #A3DCE5",
"H. c #B6DEE8",
"J. c #BCE6EC",
"K. c #B5E2E8",
"L. c #C3C5C5",
"P. c #C5C6C9",
"I. c #C4C8CB",
"U. c #CACCCD",
"Y. c #C9C7CE",
"T. c #CDCFD1",
"R. c #D7CED3",
"E. c #CFD1D2",
"W. c #C8D7DA",
"Q. c #D3D4D4",
"!. c #D7D6D8",
"~. c #D5D9DC",
"^. c #DBDCDD",
"/. c #DDD1D7",
"(. c #EDD3C3",
"). c #FFC9DB",
"_. c #EADED8",
"`. c #F2D7C4",
"'. c #DCDFE3",
"]. c #E2DEE1",
"[. c #FDD6E3",
"{. c #C0E7EC",
"}. c #DFE1E4",
"|. c #DCE7EE",
" X c #E3E3E4",
".X c #E6E6E8",
"XX c #E7E8E8",
"oX c #EBEBEC",
"OX c #E8E7E9",
"+X c #FCE4EC",
"@X c #F0EEEF",
"#X c #ECEDF1",
"$X c #FFEEF4",
"%X c #EFF1F1",
"&X c #F4F5F5",
"*X c #FEFEFE",
"=X c #FBF5F7",
/* pixels */
"                                                                                                    ",
"                                                                                                    ",
"                                                                                                    ",
"                                                                                                    ",
"                                                                                                    ",
"                                                                                                    ",
"                                                                                                    ",
"                                                                                                    ",
"                                                                                                    ",
"            G.C.C.C.B.{                                                                             ",
"          {.{.&.=.=.+.W M                                             !       / /                   ",
"        J.K.X.G G H G b 2 M                                         C ^.E.I.T.oXoX9.                ",
"        J.` E 4.j.g.f r 3 4                                         I.*X*X*X*X*X*XoX9.              ",
"      J.V.E j g l k d u 2 G N                                     w.+X=X&X^.^.#X[.)./.V             ",
"      K.' ~ j.c.0 9 8.,.< G y                                     /.).[.^.3.2./.+X[.&Xu.            ",
"      H.[ t.7.6.q w p a e 2                                     :.@X$X=X*Xs.t.&X*X*X*XI.            ",
"        ' v.l.k a a a s f H                                     V }.%X%X#X'.Q.=X*X*X*XU.            ",
"        X.q.n.z.h 9 h l p W                             Q >.1.9.2.p.d.v.M.d.s.s.E.&XL.e.            ",
"          W._.m.m.x.x.j.( q.(.m.                      1.oX%X&X=X*X*X*X*X*X*X*X&X%X*X^.<.            ",
"        &X*X=X&X@XOXoXXXOX(.n.k.f.j.                    }.*X*X*X*X*X*X*X*X*X*X*X*X*X*XoX1.          ",
"        %X@XOX.X].]. X]._.x.z.c g._._.`.(.            r d.*X*X*X*X*X*X*X*X*X*X*X*X*X*X*X'.          ",
"      }. X^.!.Q.U.M.a.p.y.7.z x c.E.b.l.l.            U.i.E.XX%X@X&X=X*X*X*X*X*X*X*X*X*X*Xu.        ",
"      }.!.Q.R.T.P.d.r.w.a.8.j 6.u.w.5.f.            :.&X^.r.r.s.L.Q.^. XXX&X*X*X*X*X*X*X*XQ.        ",
"      oX^.'. X!.R.Y.a.y.                            5 w.r.r.w.t.0.3.e.e.r.r.p.L.&X*X*X*X*XoX!       ",
"      #X.X.X X!.R.v.a.y.                              O + @ # % > y. X].}. X X X=X*X*X*X*X&X1.      ",
"      #X.X X X!.A.$. .)                                         * I.oX=X*X*X*X*X*X*X*X*X*X=Xe.      ",
"      #XOX.X XW.-.o.T 3                                         u  X*X*X*X*X*X*X*X*X*X*X*X=Xi.      ",
"      #XOX.X'.A.*.o.U = :                                       <.*X&X&X=X*X*X*X*X*X*X*X*X&Xi.      ",
"      |.'.'.W.S.*.#.L =                                         <.L.s.s.s.Q.*X*X*X*X*X*X*X@Xi.      ",
"      G.V.$. . .*.#.K -                                         ! ^.=X*X&XZ.U.*X*X*X*X*X*XXXr.      ",
"      F.;.} Y R -.@.K ;                                         U.*X*X*X*X&Xs.*X*X*X*X*X&X Xw.      ",
"        D.} J K =.] v ;                                       p oX*X*X*X*X=Xs.=X*X*X*X*XoX}.2.      ",
"        D...J S F ^ y ,                                       p oX*X*X*X*X&Xs.*X*X*X*X&X.X^.Q       ",
"        D.+.I S ^ y.Z 5                                       i oX*X*X*X*XXXv.*X*X*X&X X XQ.        ",
"          %.I D _ Y.p.Z                                         ^.*X*X*X*XQ.E.*X=X%X X X.XZ.        ",
"          &.| D m y.N.                                          L.*X*X*X*X0.e.XX X X X X Xr.        ",
"          &.| J 1 X                                             >.!.=X=X!.8 7 !. X}. X X^.<.        ",
"            | J 3 .                                             @ > i ! > o 6 ^. X]. X XE.          ",
"            $.] m X                                                 . . . . 8 oX%XoX.X Xd.          ",
"            Z.i.Q                                                       . . 8 &X*X*X*XoXi.          ",
"            N.9.                                                          . % 2.v.Y.Y.L.e.          ",
"                                                                              X # $ % &             ",
"                                                                                                    ",
"                                                                                                    ",
"                                                                                                    ",
"                                                                                                    ",
"                                                                                                    ",
"                                                                                                    ",
"                                                                                                    ",
"                                                                                                    "
};
