/* XPM */
static char *_1df7628ef014eb2d059458a6ecfdb40NXrmp7MaCaWbRwFv[] = {
/* columns rows colors chars-per-pixel */
"50 50 197 2 ",
"   c None",
".  c #000000",
"X  c #0A0B0E",
"o  c #050709",
"O  c #0B0F13",
"+  c #0E1216",
"@  c #13181C",
"#  c #191E21",
"$  c #1C2126",
"%  c #252A2E",
"&  c #30373D",
"*  c #363C41",
"=  c #07585E",
"-  c #0D585F",
";  c #11585F",
":  c #0B464E",
">  c #3C4246",
",  c #2E555D",
"<  c #365F5F",
"1  c #125B63",
"2  c #1F6F74",
"3  c #0F6D74",
"4  c #336F72",
"5  c #42474D",
"6  c #4A4F53",
"7  c #4F555A",
"8  c #52575B",
"9  c #6B5346",
"0  c #6F5B52",
"q  c #795F51",
"w  c #7D5D4B",
"e  c #646457",
"r  c #535F6A",
"t  c #40727B",
"y  c #507177",
"u  c #66686A",
"i  c #676E71",
"p  c #6B7677",
"a  c #8A6752",
"s  c #9E755C",
"d  c #826E66",
"f  c #857769",
"g  c #997B6A",
"h  c #A77D66",
"j  c #9A877A",
"k  c #A68169",
"l  c #AC866D",
"z  c #B4876B",
"x  c #B98E74",
"c  c #C69779",
"v  c #147F86",
"b  c #0A7B84",
"n  c #267C84",
"m  c #3C7885",
"M  c #547781",
"N  c #577D87",
"B  c #4A7881",
"V  c #6E7A84",
"C  c #747C82",
"Z  c #7C7F84",
"A  c #747F88",
"S  c #0C8992",
"D  c #0C8E96",
"F  c #3E8E95",
"G  c #269397",
"H  c #3A8E92",
"J  c #0B9DA6",
"K  c #1A9BA2",
"L  c #219EA3",
"P  c #07A1AA",
"I  c #19A8B0",
"U  c #20A5A9",
"Y  c #25AEB7",
"T  c #28B8BE",
"R  c #35AFB9",
"E  c #50928F",
"W  c #498D92",
"Q  c #7A848C",
"!  c #758088",
"~  c #6E9189",
"^  c #638D96",
"/  c #7F8A91",
"(  c #7EA19F",
")  c #719AA1",
"_  c #6D96A4",
"`  c #5AAFB3",
"'  c #5FB9BE",
"]  c #47AEB3",
"[  c #63B9BD",
"{  c #7CA7B1",
"}  c #33BBC3",
"|  c #2DBBC2",
" . c #59BDC4",
".. c #47BFC7",
"X. c #6ABCC4",
"o. c #34CBCF",
"O. c #45CBCF",
"+. c #5AC7CD",
"@. c #4DD0D4",
"#. c #46CCD1",
"$. c #63C3C9",
"%. c #6BCAD1",
"&. c #70CCD4",
"*. c #6DDBDF",
"=. c #6AD0D4",
"-. c #73DADE",
";. c #77D2D7",
":. c #82898E",
">. c #838C92",
",. c #9C8F90",
"<. c #8B9195",
"1. c #8C949B",
"2. c #949A9D",
"3. c #999E9E",
"4. c #9E9B8A",
"5. c #AC948A",
"6. c #A1938D",
"7. c #B19786",
"8. c #AA9B99",
"9. c #979DA2",
"0. c #9FA3A6",
"q. c #97B8B5",
"w. c #A3A6AA",
"e. c #A5A9AB",
"r. c #A9ACAD",
"t. c #A1A7A4",
"y. c #ABADB3",
"u. c #A6ACB1",
"i. c #AEB1B5",
"p. c #B1B2B5",
"a. c #B4B4BB",
"s. c #B7B9BA",
"d. c #B9BCBC",
"f. c #C39D84",
"g. c #CBA88E",
"h. c #DFB08F",
"j. c #C4A796",
"k. c #D7AE94",
"l. c #D9B296",
"z. c #E1B293",
"x. c #D5BAAA",
"c. c #C6AFA6",
"v. c #B5C0B0",
"b. c #E1C1AB",
"n. c #F1C9AF",
"m. c #E5C8B6",
"M. c #BDBEC1",
"N. c #B7BAC0",
"B. c #94CFD7",
"V. c #86D4D9",
"C. c #9CD4DB",
"Z. c #BFC1C2",
"A. c #B3D5D8",
"S. c #AAD2D7",
"D. c #8CD8E1",
"F. c #92D9E3",
"G. c #A3DCE5",
"H. c #B6DEE8",
"J. c #BCE6EC",
"K. c #B5E2E8",
"L. c #C3C5C5",
"P. c #C5C6C9",
"I. c #C4C8CB",
"U. c #CACCCD",
"Y. c #C9C7CE",
"T. c #CDCFD1",
"R. c #D7CED3",
"E. c #CFD1D2",
"W. c #C8D7DA",
"Q. c #D3D4D4",
"!. c #D7D6D8",
"~. c #D5D9DC",
"^. c #DBDCDD",
"/. c #DDD1D7",
"(. c #EDD3C3",
"). c #FFC9DB",
"_. c #EADED8",
"`. c #F2D7C4",
"'. c #DCDFE3",
"]. c #E2DEE1",
"[. c #FDD6E3",
"{. c #C0E7EC",
"}. c #DFE1E4",
"|. c #DCE7EE",
" X c #E3E3E4",
".X c #E6E6E8",
"XX c #E7E8E8",
"oX c #EBEBEC",
"OX c #E8E7E9",
"+X c #FCE4EC",
"@X c #F0EEEF",
"#X c #ECEDF1",
"$X c #FFEEF4",
"%X c #EFF1F1",
"&X c #F4F5F5",
"*X c #FEFEFE",
"=X c #FBF5F7",
/* pixels */
"                                                                                                    ",
"                                                                                                    ",
"                                                                                                    ",
"                                                                                                    ",
"                                                                                                    ",
"                                                                                                    ",
"                                                                                                    ",
"                                                                                                    ",
"                                                                                                    ",
"                                                                            { B.C.C.C.G.            ",
"                  Q /       !                                             M W +.%.%.;.J.{.          ",
"                9.XXXXT.I.E.^.V                                         M 2 S G F G G X.K.J.        ",
"              2.#X*X*X*X*X*X*XI.                                        4 3 4 f g.j.4.E ` J.        ",
"            V /.[.[.%X!.].&X$X+Xe.                                    M H 2 q f k l k j E V.J.      ",
"            u.=X[.[.~.2.3.^.[.)./.                                    N v < ,.8.9 0 c.8.~ [ K.      ",
"            I.*X*X*X=X0.s.*X=X$XoX>.                                    n e a p w q 5.7.t.[ H.      ",
"            U.*X*X*X*XE.].%XoX&X XV                                     H f s a a a h k.v.'         ",
"            w.L.&XU.s.s.M.v.d.d.p.9.9.<./ Q                             W p z h 9 l z.n.q.X.        ",
"            <.^.*XoX=X*X*X*X*X*X*X*X=X&X&XXX1.                      m.(.q.( j.c.x.m.m._.W.          ",
"          2.#X*X*X*X*X*X*X*X*X*X*X*X*X*X*X}.                    g.f.h.n.(.OXoXoXOX#X&X*X*X=X        ",
"          '.*X*X*X*X*X*X*X*X*X*X*X*X*X*X*Xd.r             (.`._.].g.c h.x._.].].]. X.XOXoX&X        ",
"        u.*X*X*X*X*X*X*X*X*X*X=X&X&X@XXXQ.p.U.            l.l.x.E.c.x z 7.i.i.a.M.U.Q.!.^.].}.      ",
"        Q.*X*X*X*X*X*X*X&XoX X^.E.L.s.r.r.^.&X:.            g.7.w.u.6.j 8.i.w.r.d.P.T.Q.Q.^.}.      ",
"      ! oX*X*X*X*X=XL.p.r.r.t.e.0.3.0.w.r.r.0.5                             y.a.P.T./..X^.^..X      ",
"      2.&X*X*X*X*X*X X X X'.'. Xy.> % # @ + O                               u.a.M.T.!..X.X.X#X      ",
"      0.=X*X*X*X*X*X*X*X*X*X&XoXI.*                                         )  .$.A.!..X.X.X#X      ",
"      i.=X*X*X*X*X*X*X*X*X*X*X*XXXu                                         3 T o.-.W.]..X.X#X      ",
"      i.&X*X*X*X*X*X*X*X*X*X=X&X*X<.                                      : = U o.*.A.'..X.X#X      ",
"      i.%X*X*X*X*X*X*X*XQ.s.s.s.Z.<.                                        - L #.-.S.W.'.'.|.      ",
"      u.XX*X*X*X*X*X*XU.L.oX*X*X^.!                                         - L #.-.X. .$.V.F.      ",
"      w. X=X*X*X*X*X*Xs.=X*X*X*X*XU.                                        ; D @.-.R Y } ;.F.      ",
"      2.}.oX*X*X*X*X=Xs.&X*X*X*X*XoXp                                       ; b ..=.K J } D.        ",
"      :.^. X&X*X*X*X*Xs.&X*X*X*X*XoXp                                       , y ^ F S P ..D.        ",
"        E. XXX&X*X*X*XZ.XX*X*X*X*XoXi                                       5 Z a.^ b I +.F.        ",
"        Z. X X X@X&X*XQ.Q.*X*X*X*X^.                                        Z i.Y._ S Y %.          ",
"        r. X]. X X X Xe.t.*X*X*X*XL.                                          a.y.m D | &.          ",
"        <.^. X X X X!.7 7 ~.*X=X!.>.                                            X = J | &.          ",
"          Q. X X]. X!.6 o * p i > #                                             . 3 J |             ",
"          d. X X%X@XoX7 . . . .                                                 X 4 ] X.            ",
"          i.oX*X*X*X*X8 . .                                                       / i.I.            ",
"          w.P.U.I.v.9.% .                                                           9.N.            ",
"            & % $ # O                                                                               ",
"                                                                                                    ",
"                                                                                                    ",
"                                                                                                    ",
"                                                                                                    ",
"                                                                                                    ",
"                                                                                                    ",
"                                                                                                    ",
"                                                                                                    "
};
