/* XPM */
static char *e2e4ea865d2f42d6880c0aa52d468f701ei3ByvH6oLXDktk[] = {
/* columns rows colors chars-per-pixel */
"50 50 218 2 ",
"   c None",
".  c #7F3824",
"X  c #7C4429",
"o  c #7F664D",
"O  c #7F684E",
"+  c #7D6D52",
"@  c #972916",
"#  c #892815",
"$  c #B62B17",
"%  c #A62E1B",
"&  c #8C3D27",
"*  c #B03420",
"=  c #C4361F",
"-  c #CE311A",
";  c #C73822",
":  c #DD3B24",
">  c #D33922",
",  c #E53D24",
"<  c #E93F25",
"1  c #815539",
"2  c #8A5538",
"3  c #975D3D",
"4  c #854D30",
"5  c #B44C32",
"6  c #B55338",
"7  c #D64129",
"8  c #DC442B",
"9  c #DB4B32",
"0  c #D54830",
"q  c #D8543D",
"w  c #C44B33",
"e  c #EC4127",
"r  c #E4462D",
"t  c #ED442A",
"y  c #E5482F",
"u  c #EB492F",
"i  c #E74027",
"p  c #F3462B",
"a  c #F5482E",
"s  c #F8492E",
"d  c #F8472C",
"f  c #E44C32",
"g  c #EB4B31",
"h  c #F44B31",
"j  c #E85339",
"k  c #F15137",
"l  c #82664C",
"z  c #88654B",
"x  c #9B6141",
"c  c #886F57",
"v  c #866D55",
"b  c #84745A",
"n  c #8A745C",
"m  c #88795F",
"M  c #85745B",
"N  c #96795F",
"B  c #957258",
"V  c #AA6B4A",
"C  c #A66949",
"Z  c #B47552",
"A  c #B87A56",
"S  c #BB7D5A",
"D  c #B57A57",
"F  c #AF7957",
"G  c #8C7D63",
"H  c #897660",
"J  c #9A7B61",
"K  c #AA7B61",
"L  c #B97E67",
"P  c #D35A44",
"I  c #D6624C",
"U  c #D36F59",
"Y  c #D47966",
"T  c #BE805C",
"R  c #8E8167",
"E  c #8F816B",
"W  c #94846C",
"Q  c #95856B",
"!  c #8D8877",
"~  c #968671",
"^  c #968A71",
"/  c #998B76",
"(  c #9B8E7B",
")  c #998772",
"_  c #9D927A",
"`  c #9A9077",
"'  c #A9876C",
"]  c #B88566",
"[  c #A08F77",
"{  c #A98D75",
"}  c #A3927B",
"|  c #A99B7F",
" . c #A9947F",
".. c #BE9475",
"X. c #B49278",
"o. c #B5957A",
"O. c #C1825E",
"+. c #C28560",
"@. c #CD8F6A",
"#. c #C8856A",
"$. c #D5856F",
"%. c #CE906B",
"&. c #D0936D",
"*. c #C19677",
"=. c #D18675",
"-. c #E19179",
";. c #8A9488",
":. c #9E9785",
">. c #859A94",
",. c #899A91",
"<. c #888F81",
"1. c #A39682",
"2. c #AC9C85",
"3. c #A39C8C",
"4. c #AC9E8B",
"5. c #A49887",
"6. c #B09B85",
"7. c #BC9C84",
"8. c #B09D8B",
"9. c #A79E90",
"0. c #94A39A",
"q. c #AEA085",
"w. c #ADA189",
"e. c #B1A287",
"r. c #B3A48A",
"t. c #BBA48A",
"y. c #A6A196",
"u. c #A6A296",
"i. c #BAAC96",
"p. c #BAAD98",
"a. c #B3A994",
"s. c #BCB199",
"d. c #9AADA8",
"f. c #97B6B7",
"g. c #9EB1AE",
"h. c #ABB5AD",
"j. c #A1B2AC",
"k. c #BEB6A4",
"l. c #A4B9B6",
"z. c #ACBCB8",
"x. c #D39B8B",
"c. c #CEAC8F",
"v. c #C3A388",
"b. c #D0AE8F",
"n. c #C8AE96",
"m. c #D4A994",
"M. c #C2B49D",
"N. c #CAB59B",
"B. c #D6BB9D",
"V. c #DABA9D",
"C. c #D7B598",
"Z. c #E7BA9D",
"A. c #CBBDA6",
"S. c #CDBDAE",
"D. c #C5BAA3",
"F. c #D8B7AA",
"G. c #D7B7AB",
"H. c #A4C1BF",
"J. c #D2C4AE",
"K. c #D3C9AF",
"L. c #D9C5A8",
"P. c #C8C2B4",
"I. c #D3C3B3",
"U. c #D5CBB2",
"Y. c #D9CDB4",
"T. c #DCCDBD",
"R. c #D3C6B8",
"E. c #D7D1BF",
"W. c #D9D1BE",
"Q. c #C9C1AF",
"!. c #E7C1A4",
"~. c #EAC1A4",
"^. c #E1CCAE",
"/. c #E2CEB1",
"(. c #E4D1B4",
"). c #E6DABE",
"_. c #ECD9BB",
"`. c #E5D6BB",
"'. c #99BBC0",
"]. c #A3BFC1",
"[. c #9AC3C5",
"{. c #96C1C8",
"}. c #9ACBD6",
"|. c #99CED9",
" X c #9AD1DE",
".X c #A3C2C4",
"XX c #A5C5CA",
"oX c #A8C3C5",
"OX c #B8C8C6",
"+X c #B5D6DC",
"@X c #ADCED3",
"#X c #99D2E0",
"$X c #ACDBE6",
"%X c #D7CEC1",
"&X c #DCD2C1",
"*X c #DAD6C9",
"=X c #C2D8D9",
"-X c #DFDCD1",
";X c #E9DDC1",
":X c #E3D6C5",
">X c #E2DCD3",
",X c #EDE0C3",
"<X c #F3E7CA",
"1X c #F7EBCD",
"2X c #F8EDCE",
"3X c #F3E4C7",
"4X c #E9E4D6",
"5X c #F8EED0",
"6X c #F7ECD0",
"7X c #FAF0D3",
"8X c #FBF3DB",
"9X c #C0DDE1",
"0X c #C4E5EB",
"qX c #C6EAF0",
"wX c #FCF6E1",
"eX c #FDF8E5",
"rX c #FEFBEA",
"tX c #FBF7E8",
/* pixels */
"                                                                      j k k h j                     ",
"                                                                      j t a p r                     ",
"                                                                      j h d d 9                     ",
"                                                                      f a d < r                     ",
"    y g r u r r u r g r u r r g y u r r g r u r u g 8 u r r g r g r g t < a < p g r g r g u u g     ",
"    u a t d t d a t s p d p p s t d p p d t d d p s < d p p a p s p d p < h p a p p a p d p p h     ",
"    u d t d u p a < h t a t < a t d u t d t a u y 9 , a t t h t h t p a p s t a a t a t p u p s     ",
"    p h t a t d a t s t a a p s < d p p a p t P m.G.U u p d h t s t p a p s t a a t s p d p < s f   ",
"    p u t p i p t t p < p t t u < d t t p 0 Y &X*XS.>Xx.q < d < p < p p < p < p p < p t p p t p f   ",
"    p d p d t d p t d t d p p d t a t u I G.>Xk.<.G 9.*X%XY f < s t p d < a t d d p d t p d < a j   ",
"  8 p p p p t p t t d < p u < d < p 9 =.:X*Xu.[ :.( ( 5.S.>Xm.P g p < p < s p d p t d t t p t d g   ",
"  8 p t t p t p t t p t d t p d : U G.>XS.5.N J B J J J 1.k.>X:XY 9 t a < a t < p t p t p p < d g   ",
"  f a p p d t d t p d t d u d q x.>X>XD.s.e.n ~ ! E ! m [ i.M.T.>XG.P a t d p p d t d p p s t d h   ",
"  r p t p u t d < p p t p t p $.S.i.A.A.A.i.~ f.d.0.f.! 6.A.A.A.D.S.m.p < p t t p t p u t p t p g   ",
"  u d t p d t s t p d t d u p j & B Y.U.Y.N.( oXl.d.f.<.t.Y.U.Y.7.. w d t d a p a t d p p a t d h   ",
"  u d t d p t h t d p u a t d p @ K ;X).;XL.5.@XoXd.{.:.n.;X).,Xc.# ; h t d a p s t d d p s t d h   ",
"  u s u p p p s t p p t a t p u % L <X3X1X/.4.+XXXf.}.3.B.1X3X1XC.@ ; s t p p t a t p p t a t p h   ",
"  h h < a u p s p a p t a t d p % Y 6X1X2X(.8.oXH.H.[.3.B.5X2X2XV.% ; s u d p p h p d h t d p d h   ",
"  a s < a < < s u p t t a < p t $ #.6X1X2X(.X.6.o.| 6.X.B.2X1X2XZ.* > p t p p t d t p p t d t d a   ",
"  t h < s < < a < p p t h < p p $ #.6X1X1X3X^.^./.^.^.^.,X2X2X5XZ.* : a p p p < p t p p < d t < a f ",
"  g a < a < a a t a p p s t p g - $.5X5X5X5X5X7X7X7X5X5X7X2X2X7XZ.> : a t p a < a p p d < d a t a y ",
"0 a p p a p < a < a p < a < d < > Y !.!.~.!.~.~.~.~.!.~.~.!.~.!.x.: , p t p d < d u t p < p p < a j ",
"r d a p s < d s < s p a a < d p : t 8 i y 7 y 8 8 u 7 r y 7 y 8 : t < s t p a p d p p d p s d t s g ",
"r a t < a < d s < a t p a t p t < e , < t , t , , t : e e , t , < p < a < p d t p p p d < p a t p u ",
", a p < s u d p p d t p d t d p t p < p p < p t e d e t t e p e p p < d t p a t d p p d t p d p s g ",
"g h g p s a a a t a u d p u d u p d u d p t s u p d t p p p a t d h t d u p s u a a t a u p h d s g ",
"5 5 5 5 5 5 5 5 5 5 5 5 5 5 5 5 5 5 5 5 5 5 5 5 5 5 5 5 5 5 5 5 5 5 5 5 5 5 5 5 5 5 5 5 5 6 5 5 5 6 ",
"      X c H c c c c c c c c b c c c c c c b c c c c c c c c c c c c c c c c c c c c c c n 6.z       ",
"        8.3.( ( / ~ W ~ W ~ W ~ ~ / / / / / ) ) ^ ^ ^ ` ^ / / / / ) ~ Q ~ ~ W ~ ~ ) / ( 1.i.        ",
"        i.p.4.4.} z l l l o O o z  .w.w.e.Q 1 1 1 1 1 X B w.w.w.2.n o o l l O O l ) 4.2.i.p.        ",
"        p.A.M.M.8.n >.>.;.;.>.;.B i.M.M.M.' 4 2 2 4 2 2 B M.M.M.p.N ;.>.,.! >.>.M { M.M.M.M.        ",
"        A.W.K.K.N.) ].XXj.g.XXd.J N.K.K.U.o.3 F V C D x K J.K.K.J.' d.XXz.u.].'.~ 7.U.K.W.J.        ",
"        S.4X;X).L.{ @X+Xz.z.}.f.' Y._.).).v.3 O.A Z +.V ] `.`.).`.X.z.+XOXh.XX{.( c.;X`.4XR.        ",
"        I.eX2X1X/.2.9XqXOX]. X'.X.(.1X3X1Xb.C @.O.S %.A ..3X<X<X<X7.H.qX=Xh.}.}.:.C.1X<X8X&X        ",
"        I.eX1X2X(.6.9X0XOX.X X[.X._.2X1X2Xb.C @.+.T &.A ..1X1X1X2Xo.%XqXOXl.}.|.5.V.6X1X8X&X        ",
"        S.8X2X2X(.6.9X$X.X.X#X[.X._.2X1X2Xc.C &.+.S %.A ..1X1X1X1X7.OX$XXXj.|.|.5.V.6X1X8XY.        ",
"        R.rX1X2X/.2.@X|.].[.|.[.X.).2X1X5Xb.V T T S #.Z ..2X1X1X<X*.z. XoXz.}.|.5.V.2X1XwX`.        ",
"        R.rX2X2X/.{ y.y.4.9.y.9.] _.2X2X2Xb.C T A D +.Z *.1X1X1X2Xo.3.u.9.4.u.y.' V.2X1XeXW.        ",
"        S.rX2X2X;X7.7.7.7.7.7.7.t.,X2X1X2Xc.V @.+.S &.A ..1X1X1X2XN.7.7.7.7.7.7.6.Y.2X2XeX&X        ",
"        I.eX6X2X;X&X&XW.%X&XW.W.E.,X2X1X5Xb.V @.+.S &.A ..1X1X2X<XW.%XW.&X%X%X&X%X`.1X2XeX&X        ",
"        A.8X2X1X1X<X<X<X1X<X<X<X3X1X1X1X2Xc.V @.O.S &.A ..1X1X1X1X3X<X<X<X3X1X3X<X<X1X1X5XR.        ",
"        J.tX2X1X1X1X1X1X1X1X1X1X2X1X1X1X2Xb.V @.O.T &.A ..1X1X1X1X2X1X1X2X1X1X1X1X2X1X1XeX&X        ",
"        I.rX2X1X1X1X1X1X1X1X1X1X1X1X1X1X2Xb.V &.O.T &.A ..1X1X1X1X1X2X1X1X1X1X1X1X1X1X2XwX:X        ",
"        J.rX2X2X1X1X6X1X1X1X1X1X1X1X1X2X5Xb.V O.S S O.Z ..1X1X1X1X1X1X1X1X1X1X1X1X2X1X1XeX:X        ",
"        J.tX2X2X1X1X1X1X1X2X2X1X2X2X1X,XY.o.3 x 3 3 x 3 ' Y.).2X2X2X1X1X1X1X1X1X1X1X1X1XwXT.        ",
"        { w.r.r.i.r.| r.2.r.| w.| r.r.w.2. .} } } } { } } 2.2.| q.q.r.| e.e.r.e.r.r.2.e.2.1.        ",
"        c G G M | G + Q m m b R G m c R } } } } } } } } } } Q + n R R M G R G b ` R + W G z         ",
"          R G ^ m W m b W m Q b m W 2.w.2.2.2.4.2.2.2.w.2.2.2.w.| G G R m G m ^ m Q G b R           ",
"          R M W + W R + R + R Q Q W ` [ [ ` [ [ [ [ [ ` [ [ [ [ / Q R m G R b W + R R + W           ",
"          G ` ^ W 1.^ ^ _ R _ s.i.i.s.i.i.p.p.p.p.p.p.p.p.p.i.p.p.p.p.} } R ` ^ E | ^ W _           "
};
