/* XPM */
static char *_3425d6b4b854347a0c8d68d2b3b119bEJFRqpiBjmIiUpqn[] = {
/* columns rows colors chars-per-pixel */
"50 50 169 2 ",
"   c None",
".  c #785944",
"X  c #C92126",
"o  c #E13F34",
"O  c #9F663D",
"+  c #A1663D",
"@  c #A0683F",
"#  c #A9693E",
"$  c #EC4F3C",
"%  c #F04D3B",
"&  c #EA503E",
"*  c #976C4A",
"=  c #9B6745",
"-  c #9C795E",
";  c #A46B43",
":  c #AD6D43",
">  c #A67145",
",  c #AC7345",
"<  c #A97548",
"1  c #A3714F",
"2  c #B27B4A",
"3  c #AB7754",
"4  c #AB7957",
"5  c #A67A5A",
"6  c #B67E5B",
"7  c #8F7D68",
"8  c #927761",
"9  c #9C7E66",
"0  c #9E7F68",
"q  c #937C67",
"w  c #A47E61",
"e  c #D1474B",
"r  c #CF4E58",
"t  c #EC5543",
"y  c #EC5845",
"u  c #E75849",
"i  c #EC5C4A",
"p  c #EC614F",
"a  c #EB6453",
"s  c #EB6B5B",
"d  c #EA7A6C",
"f  c #EA7567",
"g  c #E97F72",
"h  c #B68957",
"j  c #B78A58",
"k  c #BC8E58",
"l  c #BE905A",
"z  c #87857D",
"x  c #88867E",
"c  c #8D8679",
"v  c #938575",
"b  c #A1826A",
"n  c #AF8263",
"m  c #B58362",
"M  c #BA8765",
"N  c #BB8C6D",
"B  c #B58869",
"V  c #BE8F70",
"C  c #BF9477",
"Z  c #BF9579",
"A  c #C69B64",
"S  c #C99E67",
"D  c #CA9F68",
"F  c #C39761",
"G  c #C0977A",
"H  c #C29A7F",
"J  c #E98579",
"K  c #7FB5CE",
"L  c #7EBFDF",
"P  c #7FC0E1",
"I  c #878780",
"U  c #8C8B83",
"Y  c #918E83",
"T  c #8F958E",
"R  c #90978F",
"E  c #989689",
"W  c #8E9593",
"Q  c #969E96",
"!  c #9C9B95",
"~  c #9C9D9D",
"^  c #A19D9D",
"/  c #A1A197",
"(  c #A3A298",
")  c #9FA1A1",
"_  c #95A7A5",
"`  c #8AA7B2",
"'  c #8CAAB4",
"]  c #84A6B3",
"[  c #91B1B7",
"{  c #95B4B9",
"}  c #A6A5A5",
"|  c #A9A9A9",
" . c #C59D82",
".. c #E98C81",
"X. c #E99287",
"o. c #E8968C",
"O. c #E99B92",
"+. c #C9A48B",
"@. c #CCAA94",
"#. c #D1B19C",
"$. c #E9A39A",
"%. c #D7BCAA",
"&. c #EAABA3",
"*. c #ECB3AC",
"=. c #E7B1AA",
"-. c #F2B6A7",
";. c #F2BBAC",
":. c #F4B7A9",
">. c #E7B6B0",
",. c #ECBAB3",
"<. c #EABEB9",
"1. c #D6C2B4",
"2. c #D8C3B5",
"3. c #DDC9BC",
"4. c #E7C2BE",
"5. c #EEC3BD",
"6. c #8BB4C2",
"7. c #87BAD2",
"8. c #8CC5DC",
"9. c #83C4E4",
"0. c #82C7EB",
"q. c #85CAED",
"w. c #8ACEEC",
"e. c #8DCBE3",
"r. c #86CDF1",
"t. c #88CFF1",
"y. c #8ED4F3",
"u. c #95DBF6",
"i. c #96DEF9",
"p. c #90D6F3",
"a. c #C8C9C9",
"s. c #C5C6C6",
"d. c #DCDCDC",
"f. c #E7C8C5",
"g. c #E9CDC9",
"h. c #F1CAC5",
"j. c #F1CECA",
"k. c #E5D4C9",
"l. c #E2D7D0",
"z. c #E9D5D3",
"x. c #E9DAD5",
"c. c #EADEDB",
"v. c #E9E4D6",
"b. c #E7E0DD",
"n. c #EAE1DB",
"m. c #ECE9DD",
"M. c #F4E6D9",
"N. c #F5E9DC",
"B. c #E3E4E4",
"V. c #ECE5E3",
"C. c #EEE8E6",
"Z. c #E7E7E8",
"A. c #E7E8E8",
"S. c #EBEBEB",
"D. c #F3EAE2",
"F. c #F3EDEB",
"G. c #F8EBEC",
"H. c #ECF2E6",
"J. c #F9F5EA",
"K. c #F5F0ED",
"L. c #EEEFF0",
"P. c #EFF0F0",
"I. c #F3F3F2",
"U. c #F8F5F4",
"Y. c #F7F8F7",
"T. c #FAF8F7",
"R. c #F7F7F8",
"E. c #F7F9F9",
"W. c #FEFFFF",
/* pixels */
"                                                t                                                   ",
"                                              $ $ $                                                 ",
"                                            % $ $ $ $                                               ",
"                    H.N.v.m.v.            $ $ $ $ $ $ $                                             ",
"                    J.D.M.M.M.          & $ $ $ a i $ & $                                           ",
"                    J.N.M.M.N.        & $ $ $ d k.=.i $ $ $ &                                       ",
"                    J.D.M.M.M.      % $ $ $ d z.R.S.>.i $ $ $ %                                     ",
"                    J.N.M.M.N.    & & $ $ g x.E.W.W.L.<.a $ $ $ &                                   ",
"                    J.D.M.M.N.  $ $ $ $ J c.T.W.W.W.W.P.4.s $ $ $ $                                 ",
"                    J.N.N.N.;.y $ $ $ J n.E.W.W.W.W.W.W.P.g.s $ $ $ $                               ",
"                    J.D.N.:.p $ $ & ..V.W.W.I.k.%.3.F.W.W.I.g.f $ $ $ $                             ",
"                    J.J.-.i $ $ & X.V.W.W.F.H 9 7 0 V c.W.W.R.z.d $ $ $ $                           ",
"                    J.:.i % $ & o.C.W.W.W.@.7 K q.e.Y G U.W.W.E.z.g $ $ & %                         ",
"                    -.i $ $ t O.S.W.W.W.K.m ] y.y.y.7.5 n.W.W.W.W.c.J $ $ $ $                       ",
"                    y $ $ t O.F.W.W.W.W.F.n 6.y.q.q.8.w x.W.W.W.W.W.C.J & $ $ $                     ",
"                  % & $ t $.I.W.W.W.W.W.T.H U 0.y.p._ B K.W.W.W.W.W.W.F.X.& $ & $                   ",
"                $ $ $ y &.I.W.W.W.W.W.W.W.x.m v _ E 5 3.W.W.W.W.W.W.W.W.F.O.t $ $ $                 ",
"              $ $ $ y *.U.W.W.W.W.W.W.W.W.W.n.@.Z +.k.W.W.W.W.W.W.W.W.W.W.I.O.t $ $ $               ",
"          & $ $ $ i *.E.W.W.W.W.W.W.W.W.W.W.W.W.W.W.W.W.W.W.W.W.W.W.W.W.W.W.I.&.y $ $ $             ",
"        $ $ $ $ i ,.E.W.W.W.W.W.W.W.W.W.W.W.W.W.W.W.W.W.W.W.W.W.W.W.W.W.W.W.W.T.*.i $ $ $ $         ",
"      $ $ $ $ p <.W.W.W.W.W.W.W.W.W.W.W.W.W.W.W.W.W.W.W.W.W.W.W.W.W.W.W.W.W.W.W.E.,.i $ $ $ $       ",
"    & $ $ $ a 5.W.W.W.W.W.W.W.W.W.W.W.W.W.W.W.W.W.W.W.W.W.W.W.W.W.W.W.W.W.W.W.W.W.E.<.a $ & $ &     ",
"  & $ $ & a h.W.W.W.W.W.W.W.W.W.W.W.W.W.W.W.W.W.W.W.W.W.W.W.W.W.W.W.W.W.W.W.W.W.W.W.W.h.a $ $ $ &   ",
"  $ $ $ p j.W.W.W.W.W.W.W.W.W.W.W.W.W.W.W.W.W.W.W.W.W.W.W.W.W.W.W.W.W.W.W.W.W.W.W.W.W.W.h.i $ $ $   ",
"    & $   W.W.W.W.W.W.W.W.W.W.W.W.W.W.W.W.W.W.W.W.W.W.W.E.2.#.#.#.#.#.#.#.#.#.%.T.W.W.W.C.e $ &     ",
"          W.W.W.W.W.E.T.U.R.R.U.R.R.R.T.U.I.W.W.W.W.W.W.E.N * 8 8 8 8 8 8 8 * B I.W.W.W.G.r X       ",
"          W.W.W.W.W.I.2.@.@.@.@.@.@.@.@.@.d.W.W.W.W.W.W.T.N c L P L L L 9.w.R 6 I.W.W.W.W.          ",
"          W.W.W.W.W.I. .# : # # # # # # # 1.E.W.W.W.W.W.T.N x 0.q.q.q.y.i.u.Q h K.W.W.W.W.          ",
"          W.W.W.W.W.I. .# ; > > > > > , : 2.W.W.W.W.W.W.T.N I 0.t.t.y.i.y.t.W m U.W.W.W.E.          ",
"          W.W.W.W.W.I. .# < A A A S F 2 : 2.W.W.W.W.W.W.T.V - ! ! ! ( ( ! ! 0 M K.W.W.W.W.          ",
"          W.W.W.W.W.I. .# > S S S S F 2 : 2.W.W.W.W.W.W.U.G 1 0 b b 0 b b 0 1 M I.W.W.W.W.          ",
"          W.W.W.W.W.I. .# < S S S S F 2 : 2.E.W.W.W.W.W.U.N x q.w.9.P P P P R M K.W.W.W.W.          ",
"          W.W.W.W.W.I. .# < A S D S A 2 # 2.E.W.W.W.W.W.T.N U y.w.q.q.q.w.u.Q m U.W.W.W.W.          ",
"          W.W.W.W.W.U. .# < A A A A F 2 : 2.W.W.W.W.W.W.T.N I q.q.q.q.y.u.i.Q m I.W.W.W.E.          ",
"          W.W.W.W.W.I. .# , h 2 2 h 2 , : 2.W.W.W.W.W.W.T.N x 0.q.q.y.u.u.i.Q m U.W.W.W.W.          ",
"          W.W.W.W.W.I. .# # : : : : : = . %.W.W.W.W.W.W.T.N x 0.q.y.u.u.u.y.W m K.W.W.W.E.          ",
"          W.W.W.W.W.I. .# @ O O O O O ; ; 2.W.W.W.W.W.W.T.N x q.p.u.u.u.y.q.W m I.W.W.W.E.          ",
"          W.W.W.W.W.I. .# ; j j j j j < : 2.E.W.W.W.W.W.T.N I y.i.i.u.y.r.t.W m U.W.W.W.W.          ",
"          W.W.W.W.W.I. .# < S S S D A 2 : 2.E.W.W.W.W.W.T.N 7 [ { { ' ' ` ` v m K.W.W.W.W.          ",
"          W.W.W.W.W.I. .# < S S S S A 2 : 2.W.W.W.W.W.W.T. .3 4 4 4 4 4 4 4 3 C I.W.W.W.E.          ",
"          W.W.W.W.W.I. .# < A S S S A 2 : 1.E.W.W.W.W.W.T.F.C.C.N.C.C.D.C.C.C.F.W.W.W.W.W.          ",
"          W.W.W.W.W.U. .# < S S S S A 2 : 1.W.W.W.W.W.W.W.W.W.W.W.W.W.W.W.W.W.W.W.W.W.W.E.          ",
"          W.W.W.W.W.I. .# < S D S D A 2 : 2.W.W.W.W.W.W.W.W.W.W.W.W.W.W.W.W.W.W.W.W.W.W.W.          ",
"          W.W.W.W.W.I. .# < l l l l k 2 : 2.E.W.W.W.W.W.W.W.W.W.W.W.W.W.W.W.W.W.W.W.W.W.E.          ",
"          W.W.W.W.W.I. .# : , , , , , : : 1.W.W.W.W.W.W.W.W.W.W.W.W.W.W.W.W.W.W.W.W.W.W.W.          ",
"          P.I.I.I.E.P.@.6 6 6 6 6 6 6 6 6 3.R.E.I.I.P.I.P.I.I.I.I.I.L.I.I.I.I.L.I.I.I.I.L.          ",
"        ) } } } | B.I.V.b.n.b.b.b.b.b.b.c.A.I.B.| } } | } } | | | } | } } | } | } } } } } }         ",
"        ~ ~ } | | B.A.A.A.A.A.B.A.A.B.Z.B.B.B.d.| } } ~ ~ ~ ~ ~ ~ ~ ~ ~ ~ ~ ~ ~ ~ ~ ~ ~ ~ ^         ",
"        ~ ~ a.B.B.S.S.S.S.S.S.S.S.S.S.S.S.A.A.A.B.B.a.~ ~ ~ ~ ) ~ ~ ~ ~ ~ ~ ~ ~ ~ ~ ~ ~ ~ ^         ",
"        ~ ~ a.A.A.A.A.B.B.Z.B.B.B.B.B.B.B.B.B.B.d.B.s.~ ~ ~ ~ ~ ~ ~ ~ ~ ~ ~ ~ ~ ) ~ ~ ~ ~ ^         "
};
