/* XPM */
static char *b23578dd46184ed6ad5e23fb655c8b408JgfTB7oqFw1yRYB[] = {
/* columns rows colors chars-per-pixel */
"50 50 160 2 ",
"   c #6F4234",
".  c #704336",
"X  c #5E5553",
"o  c #565858",
"O  c #585858",
"+  c #66504A",
"@  c #6D5257",
"#  c #655759",
"$  c #6C565A",
"%  c #74555B",
"&  c #7A545B",
"*  c #864C3B",
"=  c #89503F",
"-  c #CD344E",
";  c #CE3450",
":  c #D03551",
">  c #EC3C5A",
",  c #FF3F61",
"<  c #8A5241",
"1  c #9D5945",
"2  c #9C5E4A",
"3  c #854D57",
"4  c #9E4554",
"5  c #9C4F5C",
"6  c #8C525D",
"7  c #93515D",
"8  c #99505D",
"9  c #A05E49",
"0  c #A04555",
"q  c #A44E5E",
"w  c #AC4D5E",
"e  c #B34D5E",
"r  c #BB4B5F",
"t  c #A0505E",
"y  c #9D614E",
"u  c #9C6D5C",
"i  c #A2614E",
"p  c #A46552",
"a  c #A66854",
"s  c #A96A57",
"d  c #A46F5D",
"f  c #A96B59",
"g  c #AA705E",
"h  c #917369",
"j  c #9C7C70",
"k  c #A17B6F",
"l  c #A27D71",
"z  c #CB445C",
"x  c #C2495F",
"c  c #CC4960",
"v  c #DB4661",
"b  c #D34861",
"n  c #EC4461",
"m  c #F44261",
"M  c #FF4162",
"N  c #FC4867",
"B  c #FB4C6A",
"V  c #F9516E",
"C  c #F85771",
"Z  c #F75D75",
"A  c #F6637B",
"S  c #9E867C",
"D  c #A7867B",
"F  c #A6877B",
"G  c #B68271",
"H  c #B58B7D",
"J  c #BA8B7B",
"K  c #F46C81",
"L  c #F27386",
"P  c #F27C8C",
"I  c #9C8D85",
"U  c #9D958F",
"Y  c #9D9D99",
"T  c #A78F85",
"R  c #AE9186",
"E  c #A1968E",
"W  c #BE9182",
"Q  c #AC9A91",
"!  c #BA9C92",
"~  c #ABA099",
"^  c #B4A39C",
"/  c #9CB7BB",
"(  c #9DB9BD",
")  c #ACA6A1",
"_  c #B2AAA5",
"`  c #B6AEAA",
"'  c #B9B2AF",
"]  c #ACBDBD",
"[  c #B9B4B1",
"{  c #B6BEBD",
"}  c #C48D93",
"|  c #C79B97",
" . c #EF8593",
".. c #EE8B97",
"X. c #ED8F9B",
"o. c #EC929D",
"O. c #EA9BA2",
"+. c #CFACA0",
"@. c #D4B4AA",
"#. c #C4BEBB",
"$. c #D6BDB4",
"%. c #EAA1A7",
"&. c #E9A5AA",
"*. c #E8ABAE",
"=. c #E6B2B3",
"-. c #E5B7B8",
";. c #E5BCBB",
":. c #C6C0BC",
">. c #DCC6BD",
",. c #DFC8BF",
"<. c #BDC2C0",
"1. c #9DD7E1",
"2. c #A1D8E0",
"3. c #AADBE3",
"4. c #B3DDE3",
"5. c #9DE5F3",
"6. c #A4E7F4",
"7. c #A7E8F3",
"8. c #ABE9F5",
"9. c #ADEBF8",
"0. c #B5EBF6",
"q. c #BBECF5",
"w. c #DFCBC3",
"e. c #DFD1CA",
"r. c #E3C5C2",
"t. c #E2CDC6",
"y. c #E0CEC8",
"u. c #E0D1CA",
"i. c #E1D3CC",
"p. c #E2D5CE",
"a. c #E4D5CE",
"s. c #E4D6D0",
"d. c #E4D7D0",
"f. c #E5D9D2",
"g. c #E7DAD5",
"h. c #E9D9D2",
"j. c #E9DDD7",
"k. c #EBDFD9",
"l. c #EDE1DB",
"z. c #EDE2DD",
"x. c #F0E5DF",
"c. c #CAE2E6",
"v. c #D3E5E6",
"b. c #CBEEF4",
"n. c #C5F1F9",
"m. c #CBF2FA",
"M. c #D3F4F9",
"N. c #EFE5E0",
"B. c #E6EAE9",
"V. c #F1E6E1",
"C. c #F1E7E1",
"Z. c #F1E8E2",
"A. c #F2E9E3",
"S. c #F2E9E4",
"D. c #F3EAE5",
"F. c #F4EBE6",
"G. c #F6EDE8",
"H. c #EFF7F7",
"J. c #EEFBFC",
"K. c #F0FBFC",
/* pixels */
"O O O O O O O O O O O O O O O O O O O o O O O O O O O O O O O o O O O O O O O O O O O O O O O O O O ",
"O O O O O O O O O O O O O O O O O O o o O O O O O O O O O O O O O O O O O O O O O O O O O O O O o O ",
"O O O O O O O O O O O O O O O O O O O O O O O O O o O O O O O O O O O O O O O O O O O O O O O O o o ",
"O O O O O O O O O O O O O O O O O O O O O O O O o o O O O O O O O O O O O O O O O O O O O O O O o o ",
"O O O O O O O O O O O O O O O O O O O O O O O o & & O O O O O O O O O O O O O O O O o o o o O O o o ",
"O O O O O O O O O O O O O O O O O O O O O O O 6 n n 7 O O O O O O O O O O O O O O O o O O X O O o X ",
"O O O O O O O O O O O O O O O O O O O O O o 6 n , , n 7 O O o O O O O O O O O O O O O O O O O O o O ",
"O O O O O O O O O O O O O O O O O O O o O 7 > M M M , n 7 O O O O O O O O O O O O O O O O O O O O O ",
"O O O O O O O O O O o o O O X O O O O O 7 n M M M M M M m 8 O O O o O O O O O O O O O O O O O O O O ",
"O O O O o O O O O O o o O O O O O O O 8 m M M M , , M M M m t O @ 4 4 4 0 0 4 % o O O O O O O O O O ",
"O O O O O O O O O O o X O O O O O O 5 m M M , M L K M , M M m q 3 - ; ; ; ; : 3 o O O O O O O O O o ",
"O O O O O O O O O O O O O O O O O 5 m M M M N P y.y...m , M M m z ; ; ; ; ; - 3 o O O O O O O O O O ",
"O O O O O O O O O O O O O O O O q m M M , N ..t.i.i.w.X.B , , , M > - ; ; ; - 3 o O O O O O O O O O ",
"O O O O O O O O O O O O O o O w , M M , N o.e.i.k.z.s.e.O.B , M M M > : ; ; - 3 o o O O O O O O O O ",
"O O O O O O O O O O O O o X w m M M , B O.e.s.N.F.D.N.f.e.O.V , M M , > ; ; ; & o O O O O O O O O O ",
"O O O O O o O O O O O o X w M M M M V &.e.s.N.D.D.D.D.N.f.s.*.C , M M , > : ; 3 o O O O O O O O O O ",
"O O O o O O O O o o o # e M M M , C *.i.f.N.D.D.D.D.D.D.C.f.e.=.Z , , M M > : 3 O O O O O O O O O O ",
"O O O O O O O o o o # r M M M , Z -.i.g.C.D.D.D.D.D.D.D.D.A.f.e.-.A , M M M > 6 O O O O O O O O O O ",
"O O O O O O o o o # r M M M M A -.e.g.C.D.D.D.D.D.D.D.D.D.D.A.j.i.;.K , M M M c # o O O O O O O O O ",
"O O O O O O o O # x , M M M K ;.p.j.A.D.D.D.D.D.D.D.D.D.D.D.D.A.j.e.r.K M M M M c $ o O O O O O O O ",
"O O O O O O o $ x M M , , L >.p.j.D.D.D.D.D.D.D.D.D.D.D.D.D.D.D.A.j.i.r.P , , , , c % o o o O O O O ",
"O O O O o o $ c M M M M  .r.u.j.A.D.D.D.D.D.D.D.D.D.D.D.D.D.D.D.D.A.k.s.y...M , M M b % o O O O O O ",
"O O O o O $ b M M , N  .t.p.l.D.D.D.D.D.D.D.D.D.D.D.D.D.D.D.D.D.D.D.D.z.s.t..., , M M b % O O O O O ",
"O O O o % b M M , N X.y.p.l.D.D.D.D.D.D.D.D.D.D.D.D.D.D.D.D.D.D.D.D.D.D.k.s.y.O.B , M , v % O O O O ",
"O O O @ v , M , B o.u.a.z.F.D.D.D.F.F.F.A.G.G.A.D.D.D.D.D.D.D.D.A.F.F.F.F.z.s.y.O.V , N , v & o O O ",
"O O O 5 , M , V %.u.f.x.F.F.D.D.D.A.F.A.G.A.A.A.D.D.D.D.D.D.D.D.F.F.A.F.D.F.C.s.i.&.V , M , q o O O ",
"O O O # x M v } u.s.x.F.D.D.D.G.D.D.A.G.A.A.A.A.D.D.D.D.A.A.D.D.F.F.F.D.D.F.A.z.f.i.| n , c @ o O O ",
"O O O O # 5 % ) h.x.F.F.D.x.x.x.C.C.C.C.C.A.A.A.D.D.D.N.C.C.C.C.C.C.C.D.C.A.F.D.N.g._ % 5 $ o O O O ",
"O O O O O O O ` x.G.F.F.h.} G l l l G G G G J u.G.A.p.J G G G G l G G G W g.F.D.D.D.[ O o o O O O O ",
"O O O O O O O [ G.F.F.F.h.f 9 u d d g f u y 2 >.G.G.t.i 2 u u d g f f 9 p s.F.D.D.D.w.O O O O O O O ",
"O O O O O O O [ G.x.x.G.h.f j 1.2.c.F.4.3.Q 9 w.F.F.y.i I 1.1.v.B.3.3.T p a.F.F.F.G.{ O o o o o O O ",
"O O O O O O O [ G.G.G.x.h.s S 5.m.K.q.8.n.^ 9 w.F.F.w.p U 6.M.J.0.8.b.R p a.F.F.F.G.:.O o o X o o o ",
"O O O O O O O [ G.G.D.F.j.s S b.J.q.7.m.m.^ 9 ,.F.F.t.i E M.K.0.8.m.m.R p a.G.A.D.G.:.O O O O O O O ",
"O O O O O O O [ G.D.D.F.h.a H H.q.7.n.m.m.~ 9 ,.F.F.t.i ! J.q.9.m.m.b.R p a.G.D.A.G.:.O O O O O O O ",
"O O O O O O O [ G.D.D.F.h.s H q.7.n.m.n.0.Y y ,.G.G.t.i ! 0.8.n.m.m.7.I p a.D.A.A.G.#.# O O O O X O ",
"O O O O O O O [ A.D.D.F.h.s S 7.n.m.m.8.5.Y 9 ,.F.G.t.i U 8.m.M.m.7.5.I p h.G.D.A.G.#.O O O O O o o ",
"O O O O O O O [ G.A.A.F.a.s k { <.#.<./ ( S 9 w.G.F.t.p D { :.<.] / / j y a.F.D.A.G.:.O O O O O o o ",
"O O O O O o O [ G.F.F.F.h.s = 9 1 2 2 2 2 1 2 r.F.G.t.i 1 y 1 9 1 2 1 1 p h.D.D.G.G.#.O O O O O O O ",
"O O o O O O O [ G.A.G.A.l.@.+.+.+.+.+.+.+.+.+.j.F.F.e.p = 1 1 1 1 1 1 1 p a.D.D.D.G.{ O O O O O O O ",
"O O o O O O O [ G.A.A.G.x.G.G.G.G.F.G.F.F.F.G.D.F.G.w.i 9 1 1 1 1 1 1 1 a h.D.D.A.G.w.O O O O O O O ",
"O O O O O O O [ G.A.A.A.A.A.G.A.D.D.D.D.D.D.D.D.A.G.y.p 1 1 1 1 1 1 1 1 a a.A.D.D.G.#.O O O O O O O ",
"O O O O O O O ' A.x.x.x.C.C.C.C.N.N.N.N.N.N.N.N.N.C.t.9 1 1 1 1 1 1 1 1 a y.D.x.N.A.#.O O O O O O O ",
"O O O O O O O _ h.a.a.a.i.a.i.p.a.a.i.a.p.a.p.a.i.s.$.p 1 1 1 1 1 1 1 1 p >.i.a.p.s.` O O O O O O O ",
"O O O O O X + h D D D D D D D D D D D D D D D D D D k * * * * * * * * * < k D D D D h + # O O O O O ",
"O O O O O + .           . . .                         .             . . .             . + O O O O O ",
"O O O O O O X X X X X X X X X X X X X X X X X X X X X X X X X X X X X X X X X X X X X X O O O O O O ",
"O O O O O O O O O O O O O O O O O O O O O O O O O O O O O O O O O O O O O O O O O O O O O O O O O O ",
"O O O O O O O O O O O O O O O O O O O O O O O O O O O O O O O O O O O O O O O O O O O O O O O O O O ",
"O O O O O O O O O O O O O O O O O O O O O O O O O O O O O O O O O O O O O O O O O O O O O O O O O O ",
"O O O O O O O O O O O O O O O O O O O O O O O O O O O O O O O O O O O O O O O O O O O O O O O O O O "
};
