/* XPM */
static char *d2258bb0e1e24c74e2991e8ec85ba95fcxWvCYFxwx3d48nm[] = {
/* columns rows colors chars-per-pixel */
"50 50 142 2 ",
"   c None",
".  c #703F30",
"X  c #724132",
"o  c #854B3A",
"O  c #9B553F",
"+  c #CD334E",
"@  c #CD3550",
"#  c #CE3B53",
"$  c #D13550",
"%  c #DA3C59",
"&  c #ED3C5A",
"*  c #F03D5C",
"=  c #FC3F5F",
"-  c #FE3F61",
";  c #8C5747",
":  c #8D5847",
">  c #9C5742",
",  c #9D5944",
"<  c #9C5E4B",
"1  c #9D624F",
"2  c #8E6659",
"3  c #9D6250",
"4  c #90685B",
"5  c #A3634E",
"6  c #A26451",
"7  c #9D7163",
"8  c #9C7769",
"9  c #AE7665",
"0  c #AE7867",
"q  c #A2786A",
"w  c #AB7B6B",
"e  c #B07766",
"r  c #B07867",
"t  c #B17D6C",
"y  c #A27F73",
"u  c #EF405F",
"i  c #FE4162",
"p  c #FA4B69",
"a  c #F9526D",
"s  c #F95671",
"d  c #F75D75",
"f  c #F85973",
"g  c #F65F78",
"h  c #F5637A",
"j  c #F46A7F",
"k  c #B4806F",
"l  c #A48177",
"z  c #B58271",
"x  c #F37285",
"c  c #F17B8B",
"v  c #9DA19E",
"b  c #ABA59F",
"n  c #9CB1B3",
"m  c #ADA6A1",
"M  c #AAB5B4",
"N  c #BBBAB7",
"B  c #BBBBB8",
"V  c #C09486",
"C  c #EF8391",
"Z  c #EE8B97",
"A  c #ED8B98",
"S  c #ED929C",
"D  c #CCA69B",
"F  c #EB9BA2",
"G  c #E9A1A7",
"H  c #E9A5AA",
"J  c #E7ABAE",
"K  c #E8A9AD",
"L  c #E6AFB2",
"P  c #E8ACB0",
"I  c #E5B4B5",
"U  c #E4BDBB",
"Y  c #E3C2BF",
"T  c #9DC4CA",
"R  c #9CCCD3",
"E  c #B4CBCD",
"W  c #A2CDD4",
"Q  c #AACED3",
"!  c #ABD0D5",
"~  c #B2D1D5",
"^  c #9CDDE8",
"/  c #A3DFE7",
"(  c #A1DFEA",
")  c #9CE7F6",
"_  c #BBE4EB",
"`  c #A1E6F3",
"'  c #AAEAF6",
"]  c #A2E8F4",
"[  c #BDEDF7",
"{  c #BEEFFA",
"}  c #BEF1FB",
"|  c #DDCCC3",
" . c #DFD2CB",
".. c #C3D5D7",
"X. c #C3D6D8",
"o. c #C4D8D9",
"O. c #D4D8D7",
"+. c #D5DBDA",
"@. c #E3C5C1",
"#. c #E3CEC7",
"$. c #E1CFC8",
"%. c #E1D2CC",
"&. c #E2D4CD",
"*. c #E3D5CF",
"=. c #E5D5CE",
"-. c #E1D2CB",
";. c #E4D7D0",
":. c #E6D9D3",
">. c #E7DAD4",
",. c #E7D9D3",
"<. c #E8DBD6",
"1. c #E8DCD6",
"2. c #E5DEDA",
"3. c #EADFD9",
"4. c #EBE0DA",
"5. c #EDE1DB",
"6. c #EDE1DA",
"7. c #EEE2DD",
"8. c #EEE4DE",
"9. c #EDE1DB",
"0. c #F0E4DF",
"q. c #D6EBEE",
"w. c #C0EEF6",
"e. c #C1F0F7",
"r. c #C6F2FA",
"t. c #CEF3FB",
"y. c #D6F5FA",
"u. c #D8F5F9",
"i. c #EFE6E0",
"p. c #F0E7E1",
"a. c #F1E6E1",
"s. c #F1E8E2",
"d. c #F2E8E3",
"f. c #F2E9E4",
"g. c #F3EAE5",
"h. c #F2EAE4",
"j. c #F3EBE6",
"k. c #F4EBE6",
"l. c #F4ECE7",
"z. c #F3EAE5",
"x. c #EEF2F0",
"c. c #F5FCFC",
/* pixels */
"                                                                                                    ",
"                                                                                                    ",
"                                                i i                                                 ",
"                                              i i i i                                               ",
"                                            i i i i i i                                             ",
"                                          i i i i i i i i                                           ",
"                                        i i i i i i i i i i                                         ",
"                                      i i i i i - - i i i i i       @ @ # @ @ @ #                   ",
"                                    i i i - = p c c i i i i i i     @ @ @ @ @ @ + #                 ",
"                                  - i i - = p A $.$.S i i i i i i & $ @ @ @ + @ + #                 ",
"                              i i i i i - p F $. .-.$.F p - i i i i & $ @ @ @ @ + #                 ",
"                            i i i i i - a G -.%.<.<.%. .G a - i i i i & $ + @ @ + #                 ",
"                          i i i i i - s K %.%.3.i.h.7. . .K s - i i - i & $ @ @ + #                 ",
"                        i i i i i - d L %.%.6.h.j.h.f.7.&. .L d = i i i i & $ + + #                 ",
"                      i i i i i - h I %.%.7.h.j.j.h.h.h.7.&. .I d - i i i - * $ + #                 ",
"                    i i i i i i j U &.&.i.g.g.h.h.j.h.h.h.8.;. .U x - i i i i * $ #                 ",
"                  i i i i i i x Y  .;.i.g.g.g.g.g.g.g.g.g.g.p.;.%.@.x - i i i i * %                 ",
"                i - i i i i c @.%.:.p.h.g.g.g.g.g.g.g.g.g.g.h.i.:. .@.c i - - i i i                 ",
"              i i i i - i C @.&.>.p.h.h.g.g.g.g.g.g.g.g.g.g.g.g.p.>.%.@.C i i i i i i               ",
"            i i i i - p A | %.>.p.g.g.h.g.g.g.g.g.g.g.g.g.g.g.g.h.h.>.%.$.A p - i i i i             ",
"          i i i i i p F $.%.<.d.g.g.g.g.g.g.g.g.g.g.g.g.g.g.g.g.g.g.p.<.-.$.S p i i i i i           ",
"        i - i i - p F $.%.3.p.h.g.g.g.g.g.g.g.g.g.g.g.g.g.g.g.g.g.g.g.d.1.-.-.F p - i i i i         ",
"      i i i i - s G $.%.4.h.h.g.g.g.g.g.g.g.g.g.g.g.g.g.g.g.g.g.g.g.g.g.h.3.=.-.K a - i i i p       ",
"    i i i i - f P %.;.3.h.g.h.g.g.g.g.g.g.g.g.g.g.g.g.g.g.g.g.g.g.g.g.h.h.h.3.%.%.L s - i i - -     ",
"  i i i i - g I -.&.7.h.h.g.g.g.g.g.g.g.g.g.g.g.g.g.g.g.g.g.g.g.g.g.g.g.g.g.g.0.%.%.I d = i i i i   ",
"i i i i i j U  .=.7.h.h.g.g.g.g.g.g.g.g.g.g.g.g.g.g.g.g.g.g.g.g.g.g.g.g.g.g.g.g.7.&. .U j i i i p i ",
"  i i - g U $.;.0.h.g.h.g.g.g.g.g.g.g.g.g.g.g.g.g.g.g.g.g.g.g.g.g.g.g.g.g.g.g.g.h.i.;.-.U h - i i   ",
"    i -   -.;.i.g.g.g.l.l.l.l.l.l.l.l.l.l.l.g.g.g.g.g.g.l.l.l.l.l.l.l.g.l.l.g.g.h.h.8.;.-.  i i     ",
"          >.i.h.g.g.d.=.#.#.#.$.#.#.#.#.$.#.=.p.g.g.g.=.#.#.#.#.#.#.#.#.#.#.=.h.h.g.h.p.:.          ",
"          d.h.h.g.g.6.z 5 5 5 5 5 5 5 5 6 5 t 0.g.g.0.t 5 6 5 5 5 5 5 5 5 6 t 7.l.h.g.h.d.          ",
"          h.h.g.g.g.6.r , 7 8 8 q t w q 7 , 9 6.g.l.3.e , 7 q 8 q t w 8 q > e 7.l.g.g.g.h.          ",
"          h.g.g.g.d.6.r 1 T ^ / q.x._ ( E 5 9 7.l.g.7.9 3 T ^ / q.x._ / E 5 e 7.j.g.g.g.h.          ",
"          h.h.l.h.h.3.r 6 R ` y.c.w.` [ o.6 9 6.g.l.6.0 3 R ` y.c.w.` { X.1 r 6.g.g.g.g.g.          ",
"          j.j.h.g.g.0.e 1 W y.c.w.) [ t.X.6 9 6.l.g.6.9 3 W y.c.w.` [ t.X.5 r 7.l.g.g.g.g.          ",
"          h.l.d.g.g.3.e 1 O.c.w.` [ t.t.X.3 9 6.h.l.7.9 6 +.c.w.` [ t.t...3 e 7.h.h.g.g.g.          ",
"          j.d.l.g.g.9.e 6 >.w.` [ t.t.r.! 3 9 6.l.g.7.9 6 2.r.` w.r.y.r.Q 3 r 7.l.h.g.g.g.          ",
"          h.l.d.g.g.0.r 6 ~ ` [ t.r.r.' R < e 6.h.l.7.9 6 ~ ] w.t.t.r.' R 3 r 7.g.g.g.g.g.          ",
"          j.h.j.g.g.3.r 1 W } t.y.r.' ` R 1 e 0.l.h.7.e 3 W } t.t.r.' ) R 3 r 7.l.g.g.g.g.          ",
"          j.h.h.g.g.3.r < m B B N M n n v < e 3.j.j.7.9 1 m B B B M n n v < 0 7.h.g.g.g.g.          ",
"          h.j.h.g.g.3.9 O > > > > > > > > > e 3.j.j.7.9 > , , , , , , , , > r 7.l.g.g.g.g.          ",
"          h.g.g.g.g.0.D V V V V V V V V V V D 0.d.l.7.0 > , , , , , , , , > r 7.j.h.g.g.g.          ",
"          h.g.g.g.g.d.g.g.d.g.g.g.g.g.g.d.h.g.g.g.l.7.r > , , , , , , , , > r 7.l.h.g.g.g.          ",
"          h.g.g.g.g.g.g.g.g.g.g.g.g.g.h.g.g.g.g.g.l.3.r > , , , , O , , , > 0 7.j.g.g.g.g.          ",
"          h.h.h.g.g.g.g.g.g.g.g.g.g.g.h.g.g.g.g.d.j.7.0 > , , , , , , , , > 0 6.j.h.g.g.l.          ",
"          6.6.4.7.6.7.3.6.6.3.0.6.6.7.4.3.7.7.7.3.7.<.9 > , , , , , , , , > 0 ;.7.6.7.6.7.          ",
"          %.&.-.-.-.%.=.-.-.-.-.-.%. .-.%.-. .%.%.%.| 9 , , , , , , , , , > 9 |  .-. .%.%.          ",
"        4 l l l l l l l l l y l l l l l l l l l l y y ; o o o o o o o o o o : y l l l l l 2         ",
"      X . . . . . . . . . . . . . . . . . . . . . . . . X X X X X X X X X X X . . X . . . X X       ",
"                                                                                                    ",
"                                                                                                    "
};
