/* XPM */
static char *_5a11db32647452fada60174a215ee07UFObZTjwMrxpT1FW[] = {
/* columns rows colors chars-per-pixel */
"50 50 193 2 ",
"   c None",
".  c #0B3C1E",
"X  c #0F431F",
"o  c #0C4521",
"O  c #095B2B",
"+  c #075728",
"@  c #124823",
"#  c #0A602E",
"$  c #12632E",
"%  c #0B6631",
"&  c #1D6F32",
"*  c #13763A",
"=  c #107C3F",
"-  c #197135",
";  c #0E7239",
":  c #22602C",
">  c #287837",
",  c #327939",
"<  c #327438",
"1  c #4A633B",
"2  c #117E40",
"3  c #9B2C17",
"4  c #BD321D",
"5  c #AA2A16",
"6  c #B53720",
"7  c #C9331D",
"8  c #D0341D",
"9  c #DC3921",
"0  c #E93E26",
"q  c #8E583B",
"w  c #885134",
"e  c #924E34",
"r  c #DC452C",
"t  c #DB492E",
"y  c #DC4A30",
"u  c #EC4127",
"i  c #E5452C",
"p  c #ED442B",
"a  c #E7482F",
"s  c #EB482E",
"d  c #F3452B",
"f  c #F5482E",
"g  c #F8462B",
"h  c #E74E35",
"j  c #EB4B32",
"k  c #F04B31",
"l  c #EC5339",
"z  c #E85138",
"x  c #9F6444",
"c  c #916A52",
"v  c #986A53",
"b  c #85765C",
"n  c #8D755D",
"m  c #8B795F",
"M  c #A46949",
"N  c #AA6D4C",
"B  c #A66548",
"V  c #AE7250",
"C  c #B27553",
"Z  c #B67A57",
"A  c #B97A57",
"S  c #BB7D5A",
"D  c #B67A5B",
"F  c #A36D56",
"G  c #8E7760",
"H  c #8B7C63",
"J  c #887A66",
"K  c #927C65",
"L  c #E45941",
"P  c #D9725B",
"I  c #DA6C58",
"U  c #CA7B63",
"Y  c #D97A68",
"T  c #E17F65",
"R  c #3B873D",
"E  c #128141",
"W  c #198442",
"Q  c #258A43",
"!  c #278B42",
"~  c #388B44",
"^  c #369345",
"/  c #449C46",
"(  c #449341",
")  c #5A8B48",
"_  c #628949",
"`  c #55A548",
"'  c #59A64C",
"]  c #5CA94D",
"[  c #8F8066",
"{  c #8F816E",
"}  c #93846C",
"|  c #9B8B74",
" . c #978D78",
".. c #99907F",
"X. c #898B7C",
"o. c #B98264",
"O. c #A28A71",
"+. c #A3947E",
"@. c #AC997E",
"#. c #AE947A",
"$. c #B1947D",
"%. c #A8836D",
"&. c #CD8E69",
"*. c #C78964",
"=. c #CD906A",
"-. c #D98878",
";. c #CC917C",
":. c #CF8F75",
">. c #898E80",
",. c #869389",
"<. c #9E9583",
"1. c #979184",
"2. c #A59781",
"3. c #A59B87",
"4. c #AA9A83",
"5. c #AE9D8B",
"6. c #A79B8A",
"7. c #B29C85",
"8. c #B19C89",
"9. c #B49780",
"0. c #A49E91",
"q. c #98A79E",
"w. c #AFA285",
"e. c #AEA18A",
"r. c #B1A287",
"t. c #B3A48A",
"y. c #B7AA8E",
"u. c #AFA999",
"i. c #A8A394",
"p. c #B2A593",
"a. c #B5A99A",
"s. c #BCAB94",
"d. c #94B0AF",
"f. c #99B8BA",
"g. c #A1B4AF",
"h. c #B9B2A4",
"j. c #A4BCBB",
"k. c #A9BAB7",
"l. c #C29281",
"z. c #D79181",
"x. c #C4AD95",
"c. c #C1B49C",
"v. c #CAB498",
"b. c #D9BE9F",
"n. c #D3B89B",
"m. c #C2A68B",
"M. c #DAAFA2",
"N. c #C5BBA7",
"B. c #DABFA0",
"V. c #D7BAAE",
"C. c #DBB7AA",
"Z. c #DABEB2",
"A. c #CDC2AA",
"S. c #DDC3A5",
"D. c #DAC8AA",
"F. c #CCC5B7",
"G. c #DACDBA",
"H. c #D7C6B5",
"J. c #DDD2B7",
"K. c #DDD2B8",
"L. c #ECC4A7",
"P. c #EEC6A8",
"I. c #E2CBAC",
"U. c #E1C7A9",
"Y. c #E2CEB0",
"T. c #E6D3B5",
"R. c #E4D9BD",
"E. c #EAD9BB",
"W. c #9BC3C9",
"Q. c #9ACBD3",
"!. c #98CED9",
"~. c #98D1DD",
"^. c #A3C2C4",
"/. c #AECACD",
"(. c #BBCECD",
"). c #B1C7C7",
"_. c #ADCCD1",
"`. c #A4CDD4",
"'. c #AAD1D6",
"]. c #BFE3EA",
"[. c #DCCEC0",
"{. c #DBD1C3",
"}. c #E3DAC2",
"|. c #ECE2C5",
" X c #F6EBCC",
".X c #F8EECF",
"XX c #F9EFD0",
"oX c #F7EFD8",
"OX c #F9F1D3",
"+X c #FBF4DB",
"@X c #F7F0DA",
"#X c #C3E3E9",
"$X c #FCF6E0",
/* pixels */
"                                                                                                    ",
"                                                                                                    ",
"                                                                                                    ",
"                                                                                                    ",
"                                                                                                    ",
"                                                                                                    ",
"                                                                                                    ",
"                                                                                                    ",
"                                                                    l l                             ",
"                                                                  l f f i                           ",
"                                                                  l f g i                           ",
"              y s i s i s i s s j p i j i p a s i s i s i j p s i d 0 d d p p j i s s h             ",
"              a f d f d d d d d d d d f u f d f p j u f d f d f d f d f d f d d f f d j             ",
"              s d d d p d d d d p d u d d d u z -.V.z.L u d d f d d u f u d d d d d d j             ",
"              s d d d d p d d d d d d f 0 j Y Z.h.6.h.Z.-.z 0 d d d u d d f d d d d d f             ",
"              p d d p d p d u d p d 0 j Y V.F.e.| | | 6.F.H.Y j 0 f u d d d d d u f u f             ",
"              p d d d d p d u f d s I M.{.A.t.G } K } G 8.N.{.C.P j u f d d d d u d d f             ",
"              d p d p d d d d d u l z.8.A.N.v.1.f.q.d.X.c.A.A.s.l.l u f d f d f d d p f             ",
"              f d d d d p f d f p f 6 F R.R.D.p._.g.f.<.D.}.R.o.3 d d f p f d f d f d f             ",
"              f p f p d d f u f s f 4 D  X XE.a._.j.Q.e.T.|. X:.5 d d f u f d f d d p f             ",
"              f u d u f d d u f d d 7 U XX XE.8.u.u.y.$.R..X.X;.4 d u d d f d f d d d d j           ",
"            r f p f u f d d p f 0 d 8 U XXXX.X}.E.E.E.E. X.XOX:.7 d u f u d u d u d u d j           ",
"            i d d f u f u d d f d g 9 I L.P.L.P.L.P.L.L.L.L.P.-.9 d d d d d d d d d d d j           ",
"            u d d d d f d f u g p d 0 i r a 9 h r a r i i i i 0 0 d d d d d d d d d d d f           ",
"            p f u f d d d g d f d g u g u g u g u d u d u d 0 d u f d d d d d d d d f d k           ",
"            y y t t t t t t t y t t t t r t t y t t r t r t r r y r r y y r y t r y t h y           ",
"        '       e v c c c c c c c c c c c c c c c c c c c c c c c c v v c c c c v %.q               ",
"      / ! ^       i.e.2.| n n G m m m | +...| n n c n n | +...| G G G G G G | +.3.p.                ",
"      Q E E ^     c.N.s.7.J ,.>.X.>.m w.s.c.@.w w w q w #.c.s.y.J ,.>.X.,.J @.x.N.c.                ",
"    ` Q E E W     H.R.G.v.0.'.j.j.W...v.Y.Y.v.x o.M o.M m.J.J.n.3._.k.g.W.<.x.J.R.N.                ",
"  ] / W 2 ; 2 Q   {.oX XD.h.#X(.^.!.e.D. X Xb.N *.Z *.Z n. X XY.p.#X{.j.!.0.U. XoXG.                ",
"] / E 2 ; O # Q _ G.@XXXI.h.]./.^.~.i.I.XXXXS.V *.o.=.Z b.XXXXT.u.].`.f.~.0.U..XoXG.                ",
"` ! E ; O O O * ) G.+XXXY.u.`.^.j.Q.i.I. X.XS.V o.A *.C B..X.XT.p.`.j.j.Q.0.U.OX+XG.                ",
"` Q = # O O O - _ [.+X.XY.9.8.8.4.4.$.T..X.XS.V *.A *.C b..X XE.$.8.8.7.4.#.Y. X+XG.                ",
"] ^ E % O O # ,   G.+X.X}.G.G.G.G.G.G.|..X.XU.V =.A &.A b..X X|.J.G.G.G.G.G.|. X+XG.      ` '       ",
"        1         G.@X.X X X X X X X X X X.XS.C =.A &.A B.XX.X X X X X X X X X X+XG.    ' R > , R   ",
"                  {.+X X X X X X.X X X X X XS.C &.A &.A B.XX.X X X.X X X X X X X+X[.    ( $ + o : ( ",
"        B         G.+XXX X X X X X X X.X X|.n.M N N N M v.|. X X X X.X X X.X X X+XG.  ` & + o . X , ",
"                  4.t.r.s.r.t.t.w.w.w.r.r.r.4.| O.O.O.O.@.4.@.r.w.w.t.r.r.y.r.w.y.+.    > O o . @ < ",
"                  n H [ } [ b H H m H G | +.@.2.@.+.@.2.+.+.| } H H H H H } [ b H                   ",
"                    H } b | m [ b } | | 4.4.4.4.4.4.4.4.4.4.4.+.| } [ H } b } H }                   ",
"                                                                                                    ",
"                                                                                                    ",
"                                                                                                    ",
"                                                                                                    ",
"                                                                                                    ",
"                                                                                                    ",
"                                                                                                    ",
"                                                                                                    ",
"                                                                                                    "
};
