/* XPM */
static char *_04fbb8bb2e14868b7d59dd150e9966dAvZf3LMxXHtAzIsn[] = {
/* columns rows colors chars-per-pixel */
"50 50 237 2 ",
"   c #050101",
".  c #040708",
"X  c #120B0B",
"o  c #19130E",
"O  c #071618",
"+  c #161618",
"@  c #28170E",
"#  c #241A14",
"$  c #2A1B12",
"%  c #281E18",
"&  c #321E11",
"*  c #26231B",
"=  c #392618",
"-  c #081C21",
";  c #1A1C23",
":  c #0E2E2E",
">  c #1A2727",
",  c #1D232B",
"<  c #00302E",
"1  c #003532",
"2  c #023A38",
"3  c #25272A",
"4  c #342F2C",
"5  c #373528",
"6  c #232A33",
"7  c #252C35",
"8  c #282D34",
"9  c #293334",
"0  c #2D323A",
"q  c #363737",
"w  c #412B1A",
"e  c #47382A",
"r  c #53342B",
"t  c #543E2D",
"y  c #4D3B35",
"u  c #00433E",
"i  c #1C433F",
"p  c #284537",
"a  c #384238",
"s  c #57422D",
"d  c #43453A",
"f  c #554031",
"g  c #5A4332",
"h  c #6D563A",
"j  c #2C3A42",
"k  c #343B43",
"l  c #3C3E42",
"z  c #034B47",
"x  c #164948",
"c  c #02524C",
"v  c #19574D",
"b  c #015754",
"n  c #015E5B",
"m  c #1A5754",
"M  c #264A4A",
"N  c #3E4244",
"B  c #3C474B",
"V  c #27524D",
"C  c #33524B",
"Z  c #275655",
"A  c #355351",
"S  c #3D5352",
"D  c #00625C",
"F  c #09625C",
"G  c #12655C",
"H  c #2C6059",
"J  c #2A5E65",
"K  c #026B67",
"L  c #01736D",
"P  c #0D756C",
"I  c #17736C",
"U  c #017672",
"Y  c #007B76",
"T  c #0B7972",
"R  c #007D79",
"E  c #2B6D6D",
"W  c #464749",
"Q  c #514E4D",
"!  c #48574E",
"~  c #484C53",
"^  c #445555",
"/  c #4B5757",
"(  c #4D535B",
")  c #555656",
"_  c #595757",
"`  c #52575B",
"'  c #595758",
"]  c #555A5A",
"[  c #585858",
"{  c #6F564D",
"}  c #685B56",
"|  c #69615D",
" . c #7A6555",
".. c #575B63",
"X. c #496463",
"o. c #4B6B6A",
"O. c #546464",
"+. c #5B6263",
"@. c #59666C",
"#. c #467777",
"$. c #597575",
"%. c #636364",
"&. c #696A6B",
"*. c #746C65",
"=. c #686C73",
"-. c #727377",
";. c #777677",
":. c #854C3F",
">. c #935949",
",. c #886559",
"<. c #A46755",
"1. c #A86A57",
"2. c #88786B",
"3. c #867974",
"4. c #997F76",
"5. c #B27A67",
"6. c #01827D",
"7. c #0E8079",
"8. c #35817F",
"9. c #4C867E",
"0. c #75847F",
"q. c #89857D",
"w. c #9B867A",
"e. c #A9897B",
"r. c #B98775",
"t. c #ABAA7A",
"y. c #C28E7B",
"u. c #C2BC72",
"i. c #D2CF7D",
"p. c #757B84",
"a. c #028681",
"s. c #048A84",
"d. c #038E8B",
"f. c #198782",
"g. c #03918D",
"h. c #0A908B",
"j. c #18928F",
"k. c #019591",
"l. c #009A95",
"z. c #0C9A95",
"x. c #029E99",
"c. c #1A9894",
"v. c #2D8B88",
"b. c #348C8B",
"n. c #39938C",
"m. c #289896",
"M. c #349695",
"N. c #01A29D",
"B. c #0DA09B",
"V. c #10A19C",
"C. c #2CA29D",
"Z. c #00A5A1",
"A. c #00A9A4",
"S. c #0CA9A5",
"D. c #01ADA9",
"F. c #1AA7A4",
"G. c #00B2AD",
"H. c #0DB3AE",
"J. c #18B1AE",
"K. c #04B7B3",
"L. c #01BAB6",
"P. c #01BDBA",
"I. c #18B8B4",
"U. c #27A9A6",
"Y. c #31ACA9",
"T. c #29B8B5",
"R. c #38BBB8",
"E. c #4B8584",
"W. c #548C87",
"Q. c #5B9686",
"!. c #4A9691",
"~. c #688B86",
"^. c #53A396",
"/. c #55A7A4",
"(. c #48BCBA",
"). c #00C0BD",
"_. c #3FC1BE",
"`. c #5DC1BF",
"'. c #01C5C2",
"]. c #01CDCA",
"[. c #09CBC8",
"{. c #15C5C2",
"}. c #01D1CE",
"|. c #1FD0CE",
" X c #04D6D4",
".X c #1AD7D5",
"XX c #32D3D1",
"oX c #3CE0DF",
"OX c #4DCFCD",
"+X c #6BC7C5",
"@X c #76D0CE",
"#X c #78D4D2",
"$X c #58E3E1",
"%X c #848685",
"&X c #8C8E8E",
"*X c #958E88",
"=X c #9A908C",
"-X c #929292",
";X c #999A99",
":X c #A8968D",
">X c #B8988B",
",X c #BD9E92",
"<X c #B4A39D",
"1X c #99A9A9",
"2X c #ACAAA9",
"3X c #B5AFA8",
"4X c #A6B6A7",
"5X c #B8B8B7",
"6X c #C79988",
"7X c #CC9E8D",
"8X c #CEA08F",
"9X c #C9A698",
"0X c #D6A999",
"qX c #D8AEA1",
"wX c #DBB5A6",
"eX c #E5B8A8",
"rX c #E6BFB1",
"tX c #CFC0B0",
"yX c #EECBBC",
"uX c #89D8D7",
"iX c #94D9D7",
"pX c #A9DBD7",
"aX c #98ECEC",
"sX c #B0E5E5",
"dX c #CFCAC8",
"fX c #DAD5D4",
"gX c #FAD7C7",
"hX c #FDD4C5",
"jX c #E2DDDC",
"kX c #C6EEEE",
"lX c #C8F0F0",
"zX c #D6F4F4",
"xX c #E8E3E2",
"cX c #F3ECEB",
"vX c #EAFAFA",
"bX c #F2FAFA",
"nX c #FEFEFE",
/* pixels */
"[ [ [ [ [ [ [ [ [ [ [ [ [ [ [ [ [ [ _ [ @.#.n.m.F.H.c.v.#.] [ [ [ [ [ ' ' ' [ [ [ [ [ [ [ [ [ [ ) [ ",
"[ [ [ [ [ [ [ [ [ [ [ [ [ [ [ [ [ [ p.C.I.).[.).L.D.Z.Z.N.j.#.] [ [ [ [ ' ' [ [ [ [ [ [ [ [ [ [ [ [ ",
"[ [ [ [ [ [ [ [ [ [ [ [ [ [ [ _ @.C.}.}.].].'.L.D.Z.Z.Z.N.Z.N.v.O.' [ [ [ [ [ [ [ [ [ [ [ [ [ [ [ [ ",
"[ [ [ [ [ [ [ [ [ [ [ [ [ [ ) O.T. X}.].].'.P.G.Z.Z.N.Z.Z.N.N.g.I ` [ [ [ [ [ [ [ [ [ [ [ [ [ [ [ [ ",
"[ [ [ [ [ [ [ [ [ [ [ [ ' ' ] R. X}.}.].'.).D.N.N.A.Z.Z.Z.Z.N.N.g.G ) [ [ [ [ [ [ [ ) [ [ [ ) [ [ [ ",
"[ [ ) [ [ [ [ [ [ [ [ [ ' ' W. X}.].}.|.XXXXXXR.T.J.S.A.N.Z.N.N.l.L V [ [ [ [ [ [ [ ] [ [ [ [ [ [ [ ",
"[ [ [ [ [ [ [ [ [ [ [ [ ' +.R. X.XoXOXXXT.I.I.T.T._._._.R.S.Z.l.a.L c S [ [ [ [ [ [ [ [ [ [ [ [ [ [ ",
"[ [ [ [ [ [ [ [ [ [ [ _ _ 9..XoXoX.X}.L.A.N.l.x.N.N.l.z.U.R.I.g.6.L b x ] [ [ [ [ [ [ [ [ [ [ [ [ [ ",
"[ [ [ [ [ [ ) [ [ [ [ [ [ /.$X.X X).S.C.^.!.n.v.D b 6.6.g.s.B.G.s.U n z / _ [ [ [ [ [ [ [ [ [ [ [ [ ",
"[ [ [ [ [ [ [ [ [ [ [ [ } ^..XG.6.n.4XyXgXgXyX*X2.w.9.7.6.6.6.N.A.Y D c ^ _ ' ' [ [ [ [ ) [ [ [ [ ) ",
"[ [ ) [ [ [ [ [ [ [ [ ) +.T.G.9.q.w.wXgXgXgXhXwX>X>X9X4X9.7.6.6.N.d.D z A ' ' ' [ ) [ [ [ [ [ [ [ [ ",
"[ [ [ [ [ [ [ [ [ [ [ ) 9.H.!.yXyX,X9XyXgXgX,X3.=X;X;.e.wX~.z.l.s.g.n c A _ ' ' [ [ [ [ [ [ [ [ [ [ ",
"[ [ [ [ [ [ [ [ [ [ _ _ !.z.4XqX2.<X=X2.wXyX*.dXxXjXfX;.t.tXJ.Z.6.d.b z V [ [ [ [ [ [ [ [ [ [ [ [ [ ",
"[ [ [ [ [ [ [ [ [ [ _ ) !.c.3Xq.dXcXxX2X| *.;XcXjXjXxX2X .qXY.N.U R c 2 M [ [ [ [ [ [ [ ) [ [ [ [ [ ",
"[ [ [ [ [ [ [ ) [ [ [ ) E.c.;X=XbXxXxXfX_ { 2XxXjXjXjX2X{ 0X/.N.K U z 2 S [ [ [ [ [ [ [ [ [ [ [ [ [ ",
"[ [ ) [ [ [ [ [ [ [ [ ) $.m.%X=XcXjXxXdX| 6Xq.dXjXjXfX*. .qXQ.6.b K 2 x [ [ [ [ ) [ [ [ [ [ [ [ [ [ ",
"[ [ [ [ [ [ [ [ [ [ [ [ ] m.Q.w.5XfXfX%X,.hX:X3.2X2X*.{ 6X0Xq.K z n c W [ [ [ [ [ [ [ [ [ [ [ [ [ [ ",
"[ [ [ [ [ [ [ [ [ [ [ [ ' 9.n.9X4.2.| { qXhXhX7X2. .,.6X0X7Xe.C 1 z J _ [ [ [ [ [ [ [ [ [ [ [ [ [ [ ",
"[ [ [ [ [ [ [ [ [ [ [ [ [ O.b.;XeX8X6XwXrXeXqX,XwX0X8X8X6Xy.1.>.d S [ [ [ [ [ [ [ [ ) [ [ ) [ [ [ [ ",
"[ [ [ [ [ [ [ [ [ [ [ [ [ [ #.9.qXeXeXrXeX>X4.6XeX0X8X6Xy.5.<.>.{ [ [ ' [ [ [ [ [ ) [ [ [ [ [ [ [ ) ",
"[ [ [ [ ' [ ' ' [ [ ' ] [ [ [ ] q.0XwXwX0X:X9XqX0X6X6Xr.5.<.>.{ ' ' ' _ ..O.o.@.O.O...] [ [ [ [ [ [ ",
"[ [ [ [ _ ] ] _ [ [ ' ' [ [ [ ) ' ;.,X0X0X8X0X8X6Xy.5.<.<.:.y Q _ _ _ O.U.{.I.K.I.I.J.U.C.v.X.' [ [ ",
"[ [ [ [ [ [ ] [ [ [ [ [ [ ) ) [ _ [ } 3.>X6X6Xy.r.1.<.>.t x c Z _ ) ) E.}.L.l.l.x.N.N.A.D.N.K ^ [ [ ",
"[ [ [ [ [ ' ' [ [ [ ' &.-X&X&X*X-X&X&X&X=X<X<X9X,X2.! V U a.K F ~.&X&X/.'.l.k.l.x.x.l.l.x.l.U A _ [ ",
"[ ) [ [ [ [ [ [ [ [ [ -XnXnXnXnXnXnXnXbXnXnXvXsX#X).N.N.N.L D z 1XnXnXaX).l.l.x.T.(.Y.Z.l.l.U A _ [ ",
"[ [ [ [ [ ) [ [ [ [ ) ;XnXnXbXdX3XxXnXbXaX$XoX{.L.H.Z.k.L D u 1 ~.nXnXaXP.l.z.uXlXvXzXpXY.l.U V _ [ ",
"[ [ [ [ [ [ [ [ [ [ [ ;.5X5X=X{ 6X8XyXpXP.L.L.K.D.l.Y D u 1 u u J 5X5X+XP.N.@XbXbXvXvXbXsXF.Y Z [ [ ",
"[ [ [ [ [ [ [ [ [ [ [ [ [ [ 5 { e.r ,.0.h.s.6.6.P D z 1 2 D U D c ) _ b.P.F.lXsXuXuXuXiXlX+XU Z [ ' ",
"[ [ [ ) [ [ ) [ ' ' [ [ [ O.G * r o W ' / ^ ^ ! ^ P c D 6.N.l.L c / _ b.L.R.zXOXT.R.OX+XkX@XY M [ [ ",
"[ [ [ [ [ [ [ [ [ [ [ [ [ b.G $ o q [ ' ' ' ] [ o.B.g.l.A.D.N.6.z S _ n.L.Y.zXsX#X@X@XuXzX+XR m [ [ ",
"[ [ [ [ [ [ [ [ [ [ [ [ +.c.p & 3 [ [ [ [ [ ' _ 9.L.A.G.K.G.D.6.c A ' M.P.x.iXbXvXzXzXlXlXU.R v ) [ ",
"[ [ [ [ [ [ [ [ [ [ [ _ #.h.5 & 5 ' [ [ [ ' ' ' #.P.D.D.N.N.N.L u S ' M.'.l.F.pXvXbXbXkX(.k.R m ` [ ",
"[ [ [ [ ' ' ` [ [ +.[ [ n.7.= $ W [ [ [ [ [ ' ..O.E J Z Z Z Z , - l ' M.L.k.k.V.(.+X`.U.k.l.6.m [ [ ",
"[ [ ) [ ' ' [ [ [ t. .! S.v = * ) [ [ [ ' ) %.=.@...~ ( ( ( W ; + l ' M.A.g.k.k.g.k.k.k.k.k.R x / [ ",
"[ [ [ [ ' ' ' ) *.i.h H N.p = = ) [ [ [ ' =.-.@...( ( ( ~ ~ 8 + X W ' #.s.R R Y R Y R R R U D V [ [ ",
"[ [ [ [ ' ' ' ) *.u.s 7.6.5 & 5 [ [ [ [ ..p.=.( ~ k j j 8 , + + + % N ~ : < < < 1 1 1 1 2 M A ) [ [ ",
"[ [ ' [ ' ] O.#.9.9.H N.P w & 5 [ [ [ ) =.p...N , ; + % # # # # = = o @ @ X             4 [ [ [ [ [ ",
"[ [ ' [ #.C.J.K.).).[.).P 5 & 5 [ ' [ [ -.=.( 3 @ @ @ @ @ @ $ $ $ @ o > > > 4 5 4 4 4 q ~ [ [ [ [ [ ",
"[ [ O.n.N.R b c F F g.).N.p = 3 ) ) ' [ p.@.k : 4 r e e e y t t e Z s.N.N.N.m.#.] [ ' ' [ ' [ [ [ [ ",
"[ [ 8.7.x 3 ; , + + - U L.T 5 = W [ ' ) p...k n y g g t t g g d T A.l.U D 6.g.N.v.+.+.[ [ ' ' [ [ [ ",
"[ [ ..^ 0 + 6 l W 7 ; - g.Z.x = q _ _ [ -.` j U H g s s t s f I A.K < O . O 2 U l.M.;X%X..[ [ [ [ [ ",
"[ [ ` ~ + W ;X;X;X&XW ; z G.a.5 e _ _ [ %.( x s.P s t s t s C Z.Y - + q ~ W ; < R x.W.%X} ` [ [ [ [ ",
"[ [ ..k , -X;.] ] %X&X7 - d.Z.m = Q } %.=.%.A T v t t r t e I N.u o ) ] %.;.-.6 b k.8.+.[ [ [ [ [ [ ",
"' ] ..0 l -X[ ' [ %.1XW + m D.a.p 5 5 a a d q p a e d 5 e a x.R O q &.[ [ [ %X+.i d.j.` [ [ [ [ [ [ ",
"[ ] ' 6 ~ ;X%.' ` =.2X~ O N m.Z.s.6.s.6.s.s.s.s.6.6.s.s.6.h.Z.n . W %.[ ' _ %X%X6 K f.O.[ [ [ [ [ [ ",
"[ ] ~ 7 0 -X-X-.p.;X%X0 ; ( @.j.h.h.g.h.h.k.h.h.d.h.z.h.g.s.s.z . N ;.] ' &.;X=., > ` ` [ [ [ [ [ [ ",
"[ [ ~ k , B ;X2X3Xp.W , 0 [ ' ..X.X.X.X.o.X.X.X.X.X.X.X.X.X.X.q X ; +.&X&X;X-.k ; q [ [ [ [ [ [ [ [ ",
"[ [ ) N 7 6 0 W ( k 6 6 / [ [ [ ' ' [ ' ' ' _ [ [ _ _ _ [ [ ] ) 0 6 8 / =...k ; 3 / [ [ [ [ [ [ [ [ ",
"[ [ [ ) B 7 6 3 , 6 0 ~ [ ' ' ] ' ' [ [ [ [ [ [ [ [ [ [ [ [ [ [ ) k 7 0 0 6 , 9 ) _ _ [ [ [ [ [ [ [ ",
"[ [ ) [ ' ~ l 0 q W [ [ [ ' [ [ ' ] [ ' [ [ [ [ [ [ [ [ [ [ [ [ [ ) N 8 , 6 W _ _ ) _ [ [ [ [ [ [ [ "
};
