/* XPM */
static char *_c1873dcf798488f92d29be76c36f528vSsyYcOn6dSEmEn4[] = {
/* columns rows colors chars-per-pixel */
"50 50 232 2 ",
"   c None",
".  c #060506",
"X  c #120907",
"o  c #19130E",
"O  c #081619",
"+  c #131416",
"@  c #12161D",
"#  c #1B1616",
"$  c #0B0F15",
"%  c #26160E",
"&  c #2B170D",
"*  c #241A14",
"=  c #2A1B11",
"-  c #231710",
";  c #331D10",
":  c #392618",
">  c #28231A",
",  c #1A1E24",
"<  c #161C22",
"1  c #081C21",
"2  c #092728",
"3  c #1C232A",
"4  c #1B2728",
"5  c #00302E",
"6  c #003532",
"7  c #013A37",
"8  c #023A38",
"9  c #183032",
"0  c #22262B",
"q  c #373526",
"w  c #232A33",
"e  c #292D34",
"r  c #282F38",
"t  c #2D333B",
"y  c #233732",
"u  c #393B38",
"i  c #362D22",
"p  c #48382A",
"a  c #543E2D",
"s  c #53352C",
"d  c #523B34",
"f  c #412B1B",
"g  c #00433E",
"h  c #1D443F",
"j  c #284537",
"k  c #384238",
"l  c #57422E",
"z  c #434639",
"x  c #5A4332",
"c  c #534133",
"v  c #6D563A",
"b  c #373C44",
"n  c #2A3C44",
"m  c #024442",
"M  c #024B46",
"N  c #024E4A",
"B  c #074A48",
"V  c #02514D",
"C  c #0B514E",
"Z  c #1A574D",
"A  c #035553",
"S  c #025E5A",
"D  c #015B55",
"F  c #175851",
"G  c #164043",
"H  c #3D424A",
"J  c #275857",
"K  c #2E4F49",
"L  c #00625C",
"P  c #12655C",
"I  c #0B5E60",
"U  c #026C66",
"Y  c #036B67",
"T  c #01736D",
"R  c #0D756C",
"E  c #007672",
"W  c #007A76",
"Q  c #007D79",
"!  c #0B7972",
"~  c #147970",
"^  c #2C6364",
"/  c #42454B",
"(  c #48484A",
")  c #474C54",
"_  c #4D535B",
"`  c #405157",
"'  c #565557",
"]  c #4B5B4E",
"[  c #685245",
"{  c #6A5953",
"}  c #6C564E",
"|  c #7A685D",
" . c #716455",
".. c #555B64",
"X. c #5D636A",
"o. c #6A686C",
"O. c #756B66",
"+. c #787677",
"@. c #6D6F76",
"#. c #854C3F",
"$. c #8B5647",
"%. c #9A5B4B",
"&. c #8A665A",
"*. c #A46755",
"=. c #A86A57",
"-. c #877975",
";. c #927B71",
":. c #B37C69",
">. c #A87461",
",. c #01827D",
"<. c #0C817A",
"1. c #45887E",
"2. c #9B867A",
"3. c #86867D",
"4. c #A9897B",
"5. c #B98776",
"6. c #C28E7B",
"7. c #C3907D",
"8. c #D2CB76",
"9. c #737A84",
"0. c #028680",
"q. c #038A84",
"w. c #008D8A",
"e. c #098883",
"r. c #02928E",
"t. c #019591",
"y. c #009A95",
"u. c #019E99",
"i. c #0A9B97",
"p. c #1A9D97",
"a. c #1E8E87",
"s. c #3A948B",
"d. c #00A29E",
"f. c #0DA09B",
"g. c #10A19C",
"h. c #01A5A1",
"j. c #01A9A5",
"k. c #02ADA9",
"l. c #0DAAA5",
"z. c #1BA9A5",
"x. c #00B2AD",
"c. c #01B5B1",
"v. c #01B9B5",
"b. c #01BDBA",
"n. c #0BBCB8",
"m. c #1CB7B3",
"M. c #1CB2AD",
"N. c #29AAA7",
"B. c #28B8B4",
"V. c #3ABCB8",
"C. c #2DB1AC",
"Z. c #30A49B",
"A. c #599489",
"S. c #51958C",
"D. c #748B8B",
"F. c #58A490",
"G. c #48BCBA",
"H. c #46ABA1",
"J. c #00C0BD",
"K. c #3FC1BE",
"L. c #5DC1BF",
"P. c #02C5C2",
"I. c #04C9C7",
"U. c #02CDCA",
"Y. c #0ACDCB",
"T. c #0AC5C3",
"R. c #03D1CE",
"E. c #03D5D3",
"W. c #0AD9D7",
"Q. c #19DAD9",
"!. c #1ECAC8",
"~. c #32D3D0",
"^. c #18E1DF",
"/. c #3CE0DF",
"(. c #26E3E1",
"). c #42DFDE",
"_. c #54C4C2",
"`. c #6BC9C6",
"'. c #76D0CE",
"]. c #7BD1CF",
"[. c #55E3E2",
"{. c #64E4E3",
"}. c #868886",
"|. c #858C93",
" X c #8E9192",
".X c #979795",
"XX c #9A8F88",
"oX c #B8988B",
"OX c #A29E98",
"+X c #BD9E92",
"@X c #AF8B80",
"#X c #80A092",
"$X c #B2A19B",
"%X c #9EA0A1",
"&X c #ABA9A9",
"*X c #A6B6A7",
"=X c #ADAEB0",
"-X c #ADB2B2",
";X c #B5B6B6",
":X c #B3AEA7",
">X c #C79A88",
",X c #C89F91",
"<X c #D19D8A",
"1X c #CEA08F",
"2X c #C9A697",
"3X c #D6A998",
"4X c #D9AFA1",
"5X c #DCB3A4",
"6X c #D7B5A6",
"7X c #E5B8A9",
"8X c #E6BFB1",
"9X c #90C5BB",
"0X c #EFCDBD",
"qX c #DBD596",
"wX c #89D8D7",
"eX c #94D9D7",
"rX c #A4E1DF",
"tX c #B4E6E6",
"yX c #A6E2E1",
"uX c #DAD5D4",
"iX c #D1CCCB",
"pX c #FDD4C5",
"aX c #FAD7C7",
"sX c #E2DDDC",
"dX c #E7D1C1",
"fX c #CAF0F0",
"gX c #D6F4F4",
"hX c #C6EEEE",
"jX c #E8E3E2",
"kX c #EAFAFA",
"lX c #F2FAFA",
"zX c #F3EEED",
/* pixels */
"                                              T.n.c.k.l.                                            ",
"                                      Q.R.I.I.J.c.k.h.h.h.l.                                        ",
"                                  Q.E.R.U.I.P.v.x.h.h.h.h.d.d.i.                                    ",
"                                ^.E.R.U.I.I.b.k.h.d.h.d.d.h.d.y.<.                                  ",
"                              (.E.R.R.U.I.J.k.h.h.d.h.h.h.h.d.d.w.Y                                 ",
"                              W.R.R.Y.!.~.~.~.V.B.m.l.h.h.d.d.d.y.T B                               ",
"                            ^.E.Q.~.).~.J.B.m.m.B.K.K.K.B.l.h.y.q.T V                               ",
"                            ^.)./.Q.Y.v.l.i.y.u.d.d.y.p.N.V.m.r.Q T D B                             ",
"                          [.[.Q.R.J.k.Z.H.S.S.<.L D ! w.q.r.f.x.w.T S M                             ",
"                          {.Q.x.,.s.*X0XaXaXdXXX&.2.A.<.Q ,.0.y.h.W L N                             ",
"                          ^.x.1.3.2.5XaXaXpXpX6XoXoX2X:X1.<.Q 0.y.r.L N                             ",
"                          n.S.0X0X>X2X0XaXpX,X+..X.X1.5.6XD.i.y.w.r.S N                             ",
"                          f.*X4X-.OXXX-.6X0XO.iXjXsXuX+.4.6Xm.d.,.w.A M B                           ",
"                          p.:X;.iXzXjX:X .O.%XzXsXsXjX&X| 6XC.j.E ,.V 8 m                           ",
"                          p.OXXXzXjXjXuX' { &XjXuXsXsX&Xv 3XH.d.Y E B 7                             ",
"                          p.D.XXzXsXsXiX{ >X3.uXsXsXuXO.&.3XF.,.A Y g 8                             ",
"                          z.A.2.;XuXuX}.&.pXoX-.&X&XO.[ ,X3X3.U N L N                               ",
"                            s.2X2.-.O.} 3XpXaX+X&.| &.>X1X<X4.K 7 m Y                               ",
"                            p..X7X,X>X4X8X8X4X>X7X4X3X1X>X6.>.$.u                                   ",
"                              A.4X7X7X8X7XoX;.,X5X3X,X>X6.:.=.%.                                    ",
"                                  4X4X7X3X@X2X4X3X>X>X7.:.*.%.$.                                    ",
"                                    4X4X3X2X3X1X>X6.:.=.%.#.a           W.W.I.P.T.I.U.I.I.n.        ",
"                                        3X,X>X7.6.=.*.#.x G V S         E.c.u.y.d.d.d.h.k.d.T       ",
"                                              :.>.| ] Z E ,.U L         P.y.t.t.u.u.y.y.y.y.T       ",
"                                                J.c.d.d.y.E L M         J.y.t.u.M.G.C.i.u.y.E C     ",
"                                          Y.U.I.n.x.h.t.E L g g B       b.y.l.].gXkXgXyXC.y.E C     ",
"                            c [ oX,X0X9XJ.b.c.c.k.y.W L g 6 6 g N       b.u.'.kXlXlXlXlXtXz.E N     ",
"                            i [ 5.s &.D.r.w.0.,.E L M 6 7 L W L N       v.N.fXtXwXwXwXeXfXL.E C     ",
"                            R , p o               U V L ,.d.y.T N       v.V.gX_.m.V._.`.hX].E C     ",
"                            P = X                 k.r.y.j.k.d.,.V       b.C.gXtX'.'.'.wXgX`.Q N     ",
"                          k.j ; o                 J.j.x.c.x.k.,.V       b.u.eXkXkXgXgXfXfXN.Q V     ",
"                          r.q ; o                 P.k.k.d.d.d.T g     W.b.y.N.yXkXkXkXfXG.y.Q V     ",
"                        W.<.f ;                   ^ ^ J J J J w @     W.v.t.y.g.G.`.L.N.y.y.,.V     ",
"                  qXv ] J.Z : %               9.X..._ _ _ _ / , $       h.r.r.y.r.r.y.r.t.y.Q B     ",
"                  qX$.Z d.j : %             9.X..._ _ _ ) / e @ +       e.W ,.W Q Q Q ,.Q T L B     ",
"                  8.l <.,.q ; -           |.X...) b n n e 0 @ @ # -     5 5 5 5 5 5 5 5 7 B         ",
"                  F.Z j.<.f ; -           9.X.H 3 # * * * * = = : : X & % X . . . . . . $           ",
"          Y.J.b.J.J.Y.J.<.: : o         |.o.) , - * % % - * % & = % o 4 4 2 + X X X X               ",
"      T.h.Q A V P L ,.J.d.j : =         D.X.b 9 i s p s p d a a p J w.d.d.d.c.                      ",
"      e.G w 3 3 < + 1 T J.<.q :         D...b S ( x a a a x x z ~ j.r.E U ,.r.d.k.                  ",
"      ` t @ 0 / ( y @ 1 t.h.Z : :       D._ n W J x c l a l a ~ j.U 5 O . O 8 W u.N.-X              ",
"      / @ ( .X=X=X X/ < B x.Q q f       @.) G 0.~ a a l a a K h.W 1 + u ( ( , 5 Q i.A. X            ",
"    X.b 0 .X         Xr 1 w.h.F :     o.@.o.K Q F l a a a a ~ u.8 + '      X+.3 A t.a.              ",
"    X.t b &X        =X/ $ I c.0.y q q k z u u k k p p q p k y.Q O u         &X..G w.j.              ",
"    _ w ) -X        ;X) @   T.h.w.<.e.e.e.q.e.e.,.,.e.e.e.w.h.S . (           }.w Y i.              ",
"    H w r .X;X    -X|.t <     h.y.r.r.r.t.i.t.r.r.r.y.y.r.t.w.B . H         ;X@.w O                 ",
"      n 3 H .X=X-X+.H w ,                                     2 $ 0 X.%X-X-X@.b @                   ",
"      t r w t / _ b w 3                                         4 w e _ o...b , @                   ",
"        r w w w 3 3 3                                             w w r t r < @                     ",
"            3 < 3                                                     3 < @                         "
};
