/* XPM */
static char *_5a3e5a1527342d8c2819d667bae419f5z1kZQRcN706BZoc[] = {
/* columns rows colors chars-per-pixel */
"50 50 237 2 ",
"   c #050101",
".  c #040708",
"X  c #120B0B",
"o  c #19130E",
"O  c #071618",
"+  c #161618",
"@  c #28170E",
"#  c #241A14",
"$  c #2A1B12",
"%  c #281E18",
"&  c #321E11",
"*  c #26231B",
"=  c #392618",
"-  c #081C21",
";  c #1A1C23",
":  c #0E2E2E",
">  c #1A2727",
",  c #1D232B",
"<  c #00302E",
"1  c #003532",
"2  c #023A38",
"3  c #25272A",
"4  c #342F2C",
"5  c #373528",
"6  c #232A33",
"7  c #252C35",
"8  c #282D34",
"9  c #293334",
"0  c #2D323A",
"q  c #363737",
"w  c #412B1A",
"e  c #47382A",
"r  c #53342B",
"t  c #543E2D",
"y  c #4D3B35",
"u  c #00433E",
"i  c #1C433F",
"p  c #284537",
"a  c #384238",
"s  c #57422D",
"d  c #43453A",
"f  c #554031",
"g  c #5A4332",
"h  c #6D563A",
"j  c #2C3A42",
"k  c #343B43",
"l  c #3C3E42",
"z  c #034B47",
"x  c #164948",
"c  c #02524C",
"v  c #19574D",
"b  c #015754",
"n  c #015E5B",
"m  c #1A5754",
"M  c #264A4A",
"N  c #3E4244",
"B  c #3C474B",
"V  c #27524D",
"C  c #33524B",
"Z  c #275655",
"A  c #355351",
"S  c #3D5352",
"D  c #00625C",
"F  c #12655C",
"G  c #2C6059",
"H  c #2A5E65",
"J  c #026B67",
"K  c #01736D",
"L  c #0D756C",
"P  c #17736C",
"I  c #017672",
"U  c #007B76",
"Y  c #0B7972",
"T  c #007D79",
"R  c #2B6D6D",
"E  c #464749",
"W  c #514E4D",
"Q  c #48574E",
"!  c #484C53",
"~  c #445555",
"^  c #4B5757",
"/  c #4D535B",
"(  c #555656",
")  c #595757",
"_  c #52575B",
"`  c #595758",
"'  c #555A5A",
"]  c #585858",
"[  c #6F564D",
"{  c #685B56",
"}  c #69615D",
"|  c #7A6555",
" . c #575B63",
".. c #496463",
"X. c #4B6B6A",
"o. c #546464",
"O. c #5B6263",
"+. c #59666C",
"@. c #467777",
"#. c #597575",
"$. c #636364",
"%. c #696A6B",
"&. c #746C65",
"*. c #686C73",
"=. c #727377",
"-. c #777677",
";. c #854C3F",
":. c #935949",
">. c #886559",
",. c #A46755",
"<. c #A86A57",
"1. c #88786B",
"2. c #867974",
"3. c #997F76",
"4. c #B27A67",
"5. c #01827D",
"6. c #0E8079",
"7. c #35817F",
"8. c #4C867E",
"9. c #75847F",
"0. c #89857D",
"q. c #9B867A",
"w. c #A9897B",
"e. c #B98775",
"r. c #ABAA7A",
"t. c #C28E7B",
"y. c #C2BC72",
"u. c #D2CF7D",
"i. c #757B84",
"p. c #028681",
"a. c #088782",
"s. c #048A84",
"d. c #038E8B",
"f. c #198782",
"g. c #03918D",
"h. c #0A908B",
"j. c #18928F",
"k. c #019591",
"l. c #009A95",
"z. c #0C9A95",
"x. c #029E99",
"c. c #1A9894",
"v. c #2D8B88",
"b. c #348C8B",
"n. c #39938C",
"m. c #289896",
"M. c #349695",
"N. c #01A29D",
"B. c #0DA09B",
"V. c #10A19C",
"C. c #2CA29D",
"Z. c #00A5A1",
"A. c #00A9A4",
"S. c #0CA9A5",
"D. c #01ADA9",
"F. c #1AA7A4",
"G. c #00B2AD",
"H. c #0DB3AE",
"J. c #18B1AE",
"K. c #04B7B3",
"L. c #01BAB6",
"P. c #01BDBA",
"I. c #18B8B4",
"U. c #27A9A6",
"Y. c #31ACA9",
"T. c #29B8B5",
"R. c #38BBB8",
"E. c #4B8584",
"W. c #548C87",
"Q. c #5B9686",
"!. c #4A9691",
"~. c #688B86",
"^. c #53A396",
"/. c #55A7A4",
"(. c #48BCBA",
"). c #00C0BD",
"_. c #3FC1BE",
"`. c #5DC1BF",
"'. c #01C5C2",
"]. c #01CDCA",
"[. c #09CBC8",
"{. c #15C5C2",
"}. c #01D1CE",
"|. c #1FD0CE",
" X c #04D6D4",
".X c #1AD7D5",
"XX c #32D3D1",
"oX c #3CE0DF",
"OX c #4DCFCD",
"+X c #6BC7C5",
"@X c #76D0CE",
"#X c #78D4D2",
"$X c #58E3E1",
"%X c #848685",
"&X c #8C8E8E",
"*X c #958E88",
"=X c #9A908C",
"-X c #929292",
";X c #999A99",
":X c #A8968D",
">X c #B8988B",
",X c #BD9E92",
"<X c #B4A39D",
"1X c #99A9A9",
"2X c #ACAAA9",
"3X c #B5AFA8",
"4X c #A6B6A7",
"5X c #B8B8B7",
"6X c #C79988",
"7X c #CC9E8D",
"8X c #CEA08F",
"9X c #C9A698",
"0X c #D6A999",
"qX c #D8AEA1",
"wX c #DBB5A6",
"eX c #E5B8A8",
"rX c #E6BFB1",
"tX c #CFC0B0",
"yX c #EECBBC",
"uX c #89D8D7",
"iX c #94D9D7",
"pX c #A9DBD7",
"aX c #98ECEC",
"sX c #B0E5E5",
"dX c #CFCAC8",
"fX c #DAD5D4",
"gX c #FAD7C7",
"hX c #FDD4C5",
"jX c #E2DDDC",
"kX c #C6EEEE",
"lX c #C8F0F0",
"zX c #D6F4F4",
"xX c #E8E3E2",
"cX c #F3ECEB",
"vX c #EAFAFA",
"bX c #F2FAFA",
"nX c #FEFEFE",
/* pixels */
"] ] ] ] ] ] ] ] ] ] ] ] ] ] ] ] ] ] ] ] o.X.v.c.H.F.m.n.@.+.' ] ] ] ] ] ] ] ) ] ] ] ] ] ] ] ] ] ( ] ",
"] ] ] ] ] ] ] ] ] ] ] ] ( ] ] ] ] ] ] R c.N.N.Z.A.L.).'.[.I.Y.@.` ) ] ] ] ] ] ] ] ] ] ] ] ] ] ] ] ] ",
"] ] ] ] ] ] ] ] ] ] ] ] ] ] ] ] ] o.v.x.Z.Z.Z.Z.Z.G.P.'.].}.}.[.Y.O.] ] ] ] ] ] ] ] ] ) ] ] ] ] ] ] ",
"] ] ] ] ] ] ] ] ] ] ] ] ] ] ] ] ' R k.N.Z.N.Z.Z.N.Z.G.P.'.[.}.}.}.T.+.] ] ] ] ] ] ] ] ] ] ] ] ] ] ] ",
"] ] ] ] ] ] ] ] ] ] ] ] ] ) ] ' F g.N.N.N.Z.Z.Z.N.Z.Z.S.P.'.[.].}. XY. .] ] ) ] ] ] ] ] ] ] ] ] ] ] ",
"] ] ( ] ] ] ] ] ] ] ] ] ] ' ' V K x.N.Z.N.Z.S.S.J.T.R.XXXXXX|.[.].}..XE.) ] ] ] ] ] ] ] ] ] ] ] ] ] ",
"] ] ] ] ] ] ] ] ] ] ] ] ] ] S c J p.l.Z.S.T._._._.T.J.I.T.{.XXoXoX.X XT.O.] ] ] ] ] ] ] ] ] ] ] ] ] ",
"] ] ] ] ] ] ] ] ] ] ] ] ] ] x b K 5.g.I.R.Y.z.l.N.N.x.l.N.Z.L.[..XoXoX.X8.) ] ] ] ] ] ] ] ] ] ] ] ] ",
"] ] ] ] ] ] ( ] ] ] ] ] ] ^ z D K s.G.S.g.p.s.T b D j.n.^.^.C.A.).}..X$X/.' ] ] ] ] ] ] ] ] ] ] ] ] ",
"] ] ] ] ] ] ] ] ] ] ] ] ] ~ z D 5.N.N.5.5.5.6.Q.w.&.q.yXgXgXyX4Xn.5.H..X/.] ] ] ] ] ] ] ] ] ] ] ( ] ",
"] ] ( ] ] ] ] ] ( ] ] ] ] A c D d.N.5.5.K 8.4X9X>X>XwXhXgXgXgXwXq.1.8.G.R.{ _ ] ] ] ] ] ] ] ] ] ] ] ",
"] ] ] ] ] ] ] ] ] ] ] ] ] C z n k.5.N.V.~.wXw.-.;X=X-.,XgXgXyX9X7XtXyX!.H.8.) ] ] ] ] ] ] ( ] ] ] ] ",
"] ] ] ] ] ] ] ] ] ] ] ( ] M z b d.5.N.J.tXw.-.fXjXxXdX1.yXeX0.=X2X2.0X4Xz.!.) ] ( ] ] ] ] ] ] ] ] ] ",
"] ] ] ] ] ] ] ] ] ] ] ] ] M 2 c 5.K A.Y.qX{ 3XxXfXjXcX;X| } 2XxXcXfX0.3Xc.!.) ] ] ] ] ] ] ] ( ] ] ] ",
"] ] ] ] ] ] ] ( ] ] ] ] ] S 2 z 5.D N.^.0X[ 2XjXjXjXxX2X[ ) fXxXxXcX:X:Xc.W.) ) ] ] ] ] ] ] ] ] ] ] ",
"] ] ( ] ] ] ] ] ] ] ] ] ] ' i u J D 5.Q.qX>.&.fXjXjXfX0.>X} dXjXxXcX=X~.c.#.( ] ] ] ] ] ] ] ] ] ] ] ",
"] ] ] ] ] ] ] ] ] ] ] ) ] ] ~ c D z J 0.0X6Xh &.2X2X0.>XhX| %XfXjX3Xq.~.m.O.] ] ] ] ] ( ] ( ] ] ] ] ",
"] ] ] ] ] ] ] ] ] ] ] ) ] ) ) Z u 2 V w.7X0X6X>.| 1.7XhXhXqX[ } -.q.9Xn.E.] ] ] ] ] ] ] ] ] ] ] ] ] ",
"] ] ] ] ] ] ] ] ' ) ] ' ] ] ] ' C a :.4.t.6X8X8X0XeX6XqXeXrXwX6X7XeX;Xv.X.) ] ] ] ] ] ] ] ] ] ] ] ] ",
"] ] ] ] ] ] ] ] ) ) ) ) ) ] ) ) ] [ :.,.4.t.7X7X0XeX>X3.6XeXeXrXeXqX8.@.] ] ] ) ] ] ] ] ] ] ] ] ] ] ",
"] ] ] ] ' ' '  .o.+.X.X.+.' ] ' ] } [ :.,.4.t.6X6XqXqX8X:X0XeXqX9X0. .` ] ] ] ] ] ] ] ] ] ] ] ] ] ] ",
"] ] ' S v.m.U.I.I.H.P.I.I.U.o.) ] ] ^ y ;.,.<.4.t.6X8X8X8X0XqX6X1.) ) ` ] ] ] ] ] ] ] ] ] ] ] ] ] ] ",
"] ` ~ K N.D.Z.Z.x.x.l.x.L.].@.( ( ^ F c 9 f :.,.<.e.t.6X6X>X2. .( ( ( ( ) ( ] ] ] ( ] ] ] ] ] ] ] ] ",
"] ` A I k.x.x.l.x.x.l.k.l.]./.-X*X9.F J 5.K v Q 2.6X9X<X<X;X&X&X&X-X&X-X&X-X*.] ] ] ] ] ] ] ( ] ] ] ",
"] ` A I l.x.B.T._.T.x.k.l.P.aXnXnX1Xc D I l.Z.x.I.#XlXvXbXnXnXnXnXnXnXnXnXbX-X) ] ] ] ] ] ] ] ] ] ] ",
"] ` Z I l.Y.sXzXzXzX@XV.l.P.aXnXnX~.1 u D I k.Z.G.P.[.XX$XaXbXnXcX3XdXnXnXnX-X] ] ] ] ] ( ] ] ] ] ] ",
"] ] Z U F.sXbXbXbXbXbX@Xx.P.+X5X5XH u 1 1 z J I l.D.G.K.L.P.pXrX8X>X[ =X5X5X-.) ] ( ] ] ] ] ] ] ] ] ",
"] ] V U `.kXiXuXuXiXsXkXU.P.b.] ^ c n T D 1 1 z n I T a.a.h.9.>.r e.[ 5 ) ) ] ] ] ] ] ] ] ] ] ] ] ] ",
"( ` Z I uXkX+X(.R.I.OXzXR.L.b.{ Q c I N.x.5.D c L ^ ~ ~ ~ ^ ' E o e * P o.( ] ] ] ] ] ] ] ] ] ] ] ] ",
") ( m T `.zXuXuX@X#XsXzXU.).M.) S c 5.N.D.A.l.d.S.X.) ] ] ] ] ) y o $ F b.] ] ] ] ] ] ] ] ] ] ] ] ] ",
") _ v T U.kXlXzXzXvXbXiXB.).M.) C c 5.D.G.L.D.D.P.@.) ) ] ] ] ] ] 3 & p c.o.] ] ] ] ] ] ] ] ] ] ] ] ",
") _ m T l.(.kXbXvXvXpXU.l.).M.) C u J N.x.Z.D.D.P.@.) ] ] ] ] ) ) 5 @ 5 h.@.) ] ( ] ] ] ] ] ] ] ] ] ",
") ' v T l.l.U.+X+X(.z.x.k.P.M.' N O : Z H A Z H R  . ._ ] ] ] ] ] E @ = 6.n.) } O.' ] ] ] ] ] ] ] ] ",
"] _ x T k.k.k.k.g.d.k.k.d.A.M.` q + ; E / / / !  .+.*.$.] ] ] ] ] ( $ = v S.Q h r.} ] ] ] ] ] ] ] ) ",
"` ) V J I U T T T T U T U a.@.] N + + 8 B / / / /  .+.i.=.) ] ] ) ) 4 & p N.G h u.} Q ] ] ] ] ] ' ) ",
"` ( ( C V 2 1 < 1 < < < < 1 E E % o + + , 8 8 k k ! / +.i. .] ] ) ) 4 = 5 g.6.s y.&.' ] ] ] ] ] ] ] ",
"` ` ] ) ] 8             X @ @ o = = # # # # # o ; , B  .i.*.) ] ] ] 4 $ e L Z.Z Q.E.@...' ( ( ] ` ] ",
"' ` ] ] ] W q q 4 4 4 5 > > * o $ $ $ $ @ @ # @ @ @ ; / *.i.` ) ] ] 4 & = L ).[.).K.H.J.C.8.] ( ) ' ",
"_ ] ] ] ] ] ] ] ] ' @.j.N.N.N.5.Z e t t t e e e r 4 , k  .i.` ` ] W * w p N.P.g.n b c b T B.M.o.] ` ",
") ] ] ] ] ] ] ] o.v.B.g.5.J I l.A.Y d g g t f g g E n j  .i. .` ] E = 5 6.L.I - + ; , > 6 i 6.7.] ] ",
"] ] ] ] ] ' %X;XM.l.T 2 O . O < K Z.P f s t t f g G U 0 / =.] ` _ e 4 x Z.d.- ; 6 E N 6 + 0 /  .` ] ",
"] ] ] ] ] O.%XW.x.T : ; E E q + - T Z.C t s s s s L p.M / %.] ` ` e 4 5.G.z ; B &X;X-X;XE - ! ' ` ' ",
"] ] ] ] ] ] O.7.l.m 6 =.-.$.O.( + 2 x.P e t t t e v 6.A $.*.$.) W = m N.d.- 8 &X%X .` -.-X3 k  .] ] ",
"] ] ] ] ] ] ' c.d.2  .%X] ] ] $.q O T l.p e e e e a p q q d a 5 5 9 5.A.H O B 1X$.` ) ` -XN 0  .] ] ",
"] ) ] ] ) ] ' f.J 7 i.&X] ) ] %.E . n Z.g.s.a.a.5.a.a.s.a.s.a.a.a.d.Z.m.E O ! 2X%.) _  .;X! 3 / ] ] ",
"' ) ] ] ] ] ' _ > 6 =.;X$.' ) =.l   z h.h.h.g.g.h.g.h.h.k.g.g.h.d.h.j.X.W ; 0 %X;X9.=.-X-X0 7 ! ] ] ",
"] ] ] ] ] ] ) ) 8 ; k =.;X&X&X} , O q ..............X...............' ] ) q 6 B -.5X2X;XE , j ! ] ] ",
") ) ' ) ] ] ] _ ( 3 ; l  .%.^ 7 6 9 ( ] ) ] ) ] ] ] ] ] ) ( ] ] ) ] ] ] ` ! 6 6 q / ! 0 6 8 N ] ] ] ",
"' ) ] ] ] ) ] ] ] ( 9 ; 8 0 8 7 k ( ] ] ] ] ] ] ] ] ] ] ] ] ] ] ] ] ] ] ] ] ! q , , 6 6 7 N ] ] ] ] ",
"] ] ] ) ' ) ] ] ] ] ) N 6 3 8 N ] ] ] ] ] ] ] ] ] ] ] ] ] ] ] ] ] ] ] ] ] ] ] ) ! q 9 l ! _ ) ) ] ] "
};
