/* XPM */
static char *_6799154d5cd4becca5dd49e8ac372c9W1k7MwYmFNF8eQuq[] = {
/* columns rows colors chars-per-pixel */
"50 50 232 2 ",
"   c None",
".  c #060506",
"X  c #120907",
"o  c #19130E",
"O  c #081619",
"+  c #131416",
"@  c #12161D",
"#  c #1B1616",
"$  c #0B0F15",
"%  c #26160E",
"&  c #2B170D",
"*  c #241A14",
"=  c #2A1B11",
"-  c #231710",
";  c #331D10",
":  c #392618",
">  c #28231A",
",  c #1A1E24",
"<  c #161C22",
"1  c #081C21",
"2  c #092728",
"3  c #1C232A",
"4  c #1B2728",
"5  c #00302E",
"6  c #003532",
"7  c #013A37",
"8  c #023A38",
"9  c #183032",
"0  c #22262B",
"q  c #373526",
"w  c #232A33",
"e  c #292D34",
"r  c #282F38",
"t  c #2D333B",
"y  c #233732",
"u  c #393B38",
"i  c #362D22",
"p  c #48382A",
"a  c #543E2D",
"s  c #53352C",
"d  c #523B34",
"f  c #412B1B",
"g  c #00433E",
"h  c #1D443F",
"j  c #284537",
"k  c #384238",
"l  c #57422E",
"z  c #434639",
"x  c #5A4332",
"c  c #534133",
"v  c #6D563A",
"b  c #373C44",
"n  c #2A3C44",
"m  c #024442",
"M  c #024B46",
"N  c #024E4A",
"B  c #074A48",
"V  c #02514D",
"C  c #0B514E",
"Z  c #1A574D",
"A  c #035553",
"S  c #025E5A",
"D  c #015B55",
"F  c #175851",
"G  c #164043",
"H  c #3D424A",
"J  c #275857",
"K  c #2E4F49",
"L  c #00625C",
"P  c #12655C",
"I  c #0B5E60",
"U  c #026C66",
"Y  c #036B67",
"T  c #01736D",
"R  c #0D756C",
"E  c #007672",
"W  c #007A76",
"Q  c #007D79",
"!  c #0B7972",
"~  c #147970",
"^  c #2C6364",
"/  c #42454B",
"(  c #48484A",
")  c #474C54",
"_  c #4D535B",
"`  c #405157",
"'  c #565557",
"]  c #4B5B4E",
"[  c #685245",
"{  c #6A5953",
"}  c #6C564E",
"|  c #7A685D",
" . c #716455",
".. c #555B64",
"X. c #5D636A",
"o. c #6A686C",
"O. c #756B66",
"+. c #787677",
"@. c #6D6F76",
"#. c #854C3F",
"$. c #8B5647",
"%. c #9A5B4B",
"&. c #8A665A",
"*. c #A46755",
"=. c #A86A57",
"-. c #877975",
";. c #927B71",
":. c #B37C69",
">. c #A87461",
",. c #01827D",
"<. c #0C817A",
"1. c #45887E",
"2. c #9B867A",
"3. c #86867D",
"4. c #A9897B",
"5. c #B98776",
"6. c #C28E7B",
"7. c #C3907D",
"8. c #D2CB76",
"9. c #737A84",
"0. c #028680",
"q. c #038A84",
"w. c #008D8A",
"e. c #098883",
"r. c #02928E",
"t. c #019591",
"y. c #009A95",
"u. c #019E99",
"i. c #0A9B97",
"p. c #1A9D97",
"a. c #1E8E87",
"s. c #3A948B",
"d. c #00A29E",
"f. c #0DA09B",
"g. c #10A19C",
"h. c #01A5A1",
"j. c #01A9A5",
"k. c #02ADA9",
"l. c #0DAAA5",
"z. c #1BA9A5",
"x. c #00B2AD",
"c. c #01B5B1",
"v. c #01B9B5",
"b. c #01BDBA",
"n. c #0BBCB8",
"m. c #1CB7B3",
"M. c #1CB2AD",
"N. c #29AAA7",
"B. c #28B8B4",
"V. c #3ABCB8",
"C. c #2DB1AC",
"Z. c #30A49B",
"A. c #599489",
"S. c #51958C",
"D. c #748B8B",
"F. c #58A490",
"G. c #48BCBA",
"H. c #46ABA1",
"J. c #00C0BD",
"K. c #3FC1BE",
"L. c #5DC1BF",
"P. c #02C5C2",
"I. c #04C9C7",
"U. c #02CDCA",
"Y. c #0ACDCB",
"T. c #0AC5C3",
"R. c #03D1CE",
"E. c #03D5D3",
"W. c #0AD9D7",
"Q. c #19DAD9",
"!. c #1ECAC8",
"~. c #32D3D0",
"^. c #18E1DF",
"/. c #3CE0DF",
"(. c #26E3E1",
"). c #42DFDE",
"_. c #54C4C2",
"`. c #6BC9C6",
"'. c #76D0CE",
"]. c #7BD1CF",
"[. c #55E3E2",
"{. c #64E4E3",
"}. c #868886",
"|. c #858C93",
" X c #8E9192",
".X c #979795",
"XX c #9A8F88",
"oX c #B8988B",
"OX c #A29E98",
"+X c #BD9E92",
"@X c #AF8B80",
"#X c #80A092",
"$X c #B2A19B",
"%X c #9EA0A1",
"&X c #ABA9A9",
"*X c #A6B6A7",
"=X c #ADAEB0",
"-X c #ADB2B2",
";X c #B5B6B6",
":X c #B3AEA7",
">X c #C79A88",
",X c #C89F91",
"<X c #D19D8A",
"1X c #CEA08F",
"2X c #C9A697",
"3X c #D6A998",
"4X c #D9AFA1",
"5X c #DCB3A4",
"6X c #D7B5A6",
"7X c #E5B8A9",
"8X c #E6BFB1",
"9X c #90C5BB",
"0X c #EFCDBD",
"qX c #DBD596",
"wX c #89D8D7",
"eX c #94D9D7",
"rX c #A4E1DF",
"tX c #B4E6E6",
"yX c #A6E2E1",
"uX c #DAD5D4",
"iX c #D1CCCB",
"pX c #FDD4C5",
"aX c #FAD7C7",
"sX c #E2DDDC",
"dX c #E7D1C1",
"fX c #CAF0F0",
"gX c #D6F4F4",
"hX c #C6EEEE",
"jX c #E8E3E2",
"kX c #EAFAFA",
"lX c #F2FAFA",
"zX c #F3EEED",
/* pixels */
"                                            l.l.c.n.T.                                              ",
"                                        l.h.h.h.k.v.J.P.I.Y.Q.                                      ",
"                                    i.h.d.h.h.h.h.k.b.P.I.U.R.E.^.                                  ",
"                                  <.t.d.d.j.d.d.h.h.x.b.P.U.U.U.E.^.                                ",
"                                Y r.d.d.h.h.h.j.j.d.d.k.J.P.I.U.U.E.(.                              ",
"                              N T y.d.d.d.d.j.l.M.B.V.~.~.~.!.Y.U.R.W.                              ",
"                              V U q.y.h.l.B.L.K.V.B.m.m.m.!.~.)./.Q.E.^.                            ",
"                            B D T ,.r.m.V.N.y.y.d.d.u.y.y.j.v.R.Q.)./.^.                            ",
"                            M L T q.x.g.r.q.q.W D L <.F.F.F.Z.k.v.U.Q.[.[.                          ",
"                            M L Q j.d.,.,.,.! A.2.&.XXdXdXaXdX*Xs.,.k.Q.{.                          ",
"                            V L r.y.,.,.T 1.&X2XoXoX6XaXpXpXaX6X2.-.1.c.(.                          ",
"                            M S r.q.y.i.#X6XXX-..X.X+.+XpXaXdX2XoX0X0XS.c.                          ",
"                          B M A r.,.d.M.6X@X+.uXsXjXiX-.0X8X-..X$X-.4X*Xf.                          ",
"                          g 8 V ,.W d.C.6X .=XjXsXsXjXOX .{ &XjXzXuX-.:Xp.                          ",
"                            8 B W L d.H.2X[ &XsXsXsXsX&X{ ' uXjXjXzXXXOXp.                          ",
"                            8 g U A ,.A.3X&.O.uXsXsXuX}.+X{ iXsXjXzXXXD.p.                          ",
"                              N L V U 3.3X<X[ o.&X&X3.oX0X&.}.uXuX;X2.A.z.                          ",
"                              Y g 8 K 4.<X1X>X&.| &.2X0XpX5X{ { +.2.2Xs.                            ",
"                                  k $.>.6.>X1X1X5X7XoX5X8X8X7X>X1X7X.Xp.                            ",
"                                    %.*.:.7.<X<X3X7X>X;.oX5X8X7X7X4XA.                              ",
"                                    $.%.*.:.6.>X<X3X4X2X5.4X5X4X5X                                  ",
"        n.I.I.U.I.T.P.I.E.W.          a #.%.=.:.5.<X<X1X3X3X3X4X                                    ",
"      T d.k.h.d.d.u.y.u.v.E.        L A h d $.*.>.6.>X>X,X3X                                        ",
"      T y.u.y.y.y.u.y.t.y.P.        L U ,.T Z ] O.=.:.                                              ",
"    F E y.y.f.C.V.B.u.y.y.b.        M L E y.d.u.x.T.                                                ",
"    N E y.C.yXgXkXgX].g.y.b.      M g g L W r.j.x.b.P.U.Y.                                          ",
"    N W z.tXlXlXkXkXkX'.u.b.      B g 6 6 m L Q t.k.x.v.J.J.9X7X,XoX[ d                             ",
"    C E L.fXeXwXwXeXtXhXz.b.      M L Q L 7 7 m L E ,.0.q.y.D.&.s 4.[ i                             ",
"    C Q wXhX`._.V.m._.gXV.v.      V T d.y.,.L V U               o s > R                             ",
"    B Q L.gXwX].'.'.tXgXC.b.      V ,.d.x.j.y.r.k.                X > P                             ",
"    V Q N.hXfXgXgXkXlXeXi.b.      V ,.k.x.v.x.k.J.                o ; j k.                          ",
"    C Q y.G.hXlXkXkXrXN.y.J.W.    g U d.u.d.k.k.P.                # = q r.                          ",
"    A ,.y.y.N._.`.G.i.y.t.b.W.    O 9 J J J J ^ ^                   = f <.Y.                        ",
"    B Q t.t.r.t.r.r.t.t.w.l.      + , / _ _ _ ) ..X.9.              = : h J.K  .qX                  ",
"    B L T Q W Q Q Q W Q W e.      + @ e / ) _ _ ....X.9.            * : j f.J v 8.                  ",
"        B 7 6 5 6 5 5 5 5 6     - o + # 0 e t b b ` _ X.D.          * ; q r.<.l 8.                  ",
"          $ . . . . . . X & & X : : * * * * * - < 3 H ..9.          # = f R h.J F.                  ",
"              X X X X # 2 0 4 o = = * = - - % % % # , _ @.|.        # ; q R P.I.J.b.b.T.Q.          ",
"                      v.d.d.d.,.J p a a d p p p s i 4 b X.|.        * f K d.b.q.L A V A ,.d.!.      ",
"                  k.d.r.,.U E t.h.~ z x x a x x x ( S n ..D.        : q T c.E 2 + , 4 4 4 h i.      ",
"              ;XN.i.Q 8 O . O 5 U j.~ c a a a x x J W b ..D.      > f Z h.r.1 @ e ( b w @ t `       ",
"             XA.i.Q 2 , / ( u + 1 Q h.K a l l l l R q.G ) @.      i i ,.x.B < /  X=X=X.X/ @ )       ",
"              a.y.A e +. X    ' + 8 u.~ a a a a a Z W K X.o.O.    f F d.w.1 r  X        .X0 b X.    ",
"              h.w.8 X.&X        u O Q y.k q p q p k j u H d k q q y 0.c.I $ / =X        &Xb t ..    ",
"              t.Y e D.          ( . Y h.r.<.q.e.,.,.e.e.e.e.e.0.e.w.d.T.  + H ;X        ;X) 0 _     ",
"                O 0 @.;X        u . m w.t.r.t.y.r.r.r.i.y.t.r.r.r.r.h.    < n |.;X    ;X.Xe t H     ",
"                  < b @.=X=X%XX.3 $ 9                                     , w H +.-X=X.X/ 3 t       ",
"                  + , u X.o._ e w 3                                         3 w b _ ) t w r t       ",
"                    @ , e t e w w                                             , 3 w w w 9 w         ",
"                        < < 3                                                     , , 3             "
};
