/* XPM */
static char *_7470ad5929b48b1cd409e90092e1988ji8XV5MbWpHN8kQo[] = {
/* columns rows colors chars-per-pixel */
"50 50 187 2 ",
"   c None",
".  c #010101",
"X  c #0D0C0C",
"o  c #0A0807",
"O  c #100D0C",
"+  c #0D1210",
"@  c #131414",
"#  c #1B1614",
"$  c #151A1A",
"%  c #1C1C1C",
"&  c #1A1818",
"*  c #231C1B",
"=  c #291F1B",
"-  c #17231F",
";  c #27211D",
":  c #2F221E",
">  c #1C1E21",
",  c #1F2022",
"<  c #232425",
"1  c #2C2322",
"2  c #252729",
"3  c #242B2A",
"4  c #2C2C2C",
"5  c #252A27",
"6  c #352A26",
"7  c #362927",
"8  c #29302D",
"9  c #26302C",
"0  c #3D312C",
"q  c #2C2E32",
"w  c #2D3133",
"e  c #2E3A35",
"r  c #2F3C38",
"t  c #343434",
"y  c #33363A",
"u  c #343C3B",
"i  c #3A3A3A",
"p  c #3A3835",
"a  c #412F27",
"s  c #43322F",
"d  c #4C3732",
"f  c #453A34",
"g  c #4D3A35",
"h  c #4E3D39",
"j  c #433935",
"k  c #533C36",
"l  c #553E39",
"z  c #38453F",
"x  c #4D413D",
"c  c #54443C",
"v  c #59423D",
"b  c #373C41",
"n  c #3B3E43",
"m  c #364641",
"M  c #3D4144",
"N  c #3A4944",
"B  c #3F444A",
"V  c #3A4C46",
"C  c #3E524B",
"Z  c #424243",
"A  c #4B4542",
"S  c #454C47",
"D  c #42464B",
"F  c #44494C",
"G  c #4B4B4B",
"H  c #4C4846",
"J  c #554C46",
"K  c #42544E",
"L  c #58524D",
"P  c #4A4D52",
"I  c #474C52",
"U  c #425750",
"Y  c #4C5255",
"T  c #445952",
"R  c #495E56",
"E  c #4F5359",
"W  c #4F5F58",
"Q  c #545454",
"!  c #52565C",
"~  c #555A5E",
"^  c #5B5A5B",
"/  c #624A42",
"(  c #655246",
")  c #66574E",
"_  c #6A5447",
"`  c #705B4E",
"'  c #755A4B",
"]  c #685E58",
"[  c #735E52",
"{  c #4D615A",
"}  c #52625B",
"|  c #6D6257",
" . c #7C6455",
".. c #7F6758",
"X. c #776154",
"o. c #575B61",
"O. c #595E63",
"+. c #5C6066",
"@. c #556A61",
"#. c #5C6C65",
"$. c #5E6369",
"%. c #526760",
"&. c #5E726A",
"*. c #656564",
"=. c #62676D",
"-. c #63686E",
";. c #6C6B6B",
":. c #6D6766",
">. c #716D6C",
",. c #62766E",
"<. c #63786F",
"1. c #656A70",
"2. c #677C73",
"3. c #687D74",
"4. c #6D7278",
"5. c #747474",
"6. c #7C7C7C",
"7. c #767778",
"8. c #835D49",
"9. c #89624E",
"0. c #8C6754",
"q. c #82695A",
"w. c #906651",
"e. c #98735E",
"r. c #846E62",
"t. c #897364",
"y. c #8E796D",
"u. c #877766",
"i. c #927666",
"p. c #9D7661",
"a. c #9B7F6E",
"s. c #947A69",
"d. c #807B79",
"f. c #957F70",
"g. c #A07963",
"h. c #6E8279",
"j. c #9F816E",
"k. c #87827F",
"l. c #9A8476",
"z. c #B1866D",
"x. c #BF8C6E",
"c. c #AD8B75",
"v. c #A68775",
"b. c #B48D76",
"n. c #AF927F",
"m. c #B6927C",
"M. c #CB9C7F",
"N. c #848484",
"B. c #8C8C8C",
"V. c #8C8682",
"C. c #9D8F87",
"Z. c #939393",
"A. c #9C9C9B",
"S. c #999593",
"D. c #A1948D",
"F. c #BB9780",
"G. c #BC9882",
"H. c #B3998B",
"J. c #B39787",
"K. c #A19D99",
"L. c #A3A3A3",
"P. c #ABABAB",
"I. c #B1ADAC",
"U. c #BDBDBD",
"Y. c #B5B3B2",
"T. c #C39C84",
"R. c #C89F85",
"E. c #C6A18A",
"W. c #CDA48A",
"Q. c #D3A98E",
"!. c #D7A486",
"~. c #D6AD92",
"^. c #DAAF94",
"/. c #E2B69A",
"(. c #E5B89C",
"). c #E8B99A",
"_. c #EBBEA1",
"`. c #F2C3A5",
"'. c #F5C7A9",
"]. c #FECDAD",
"[. c #F7C8A9",
"{. c #FFD0B0",
"}. c #FFD8BC",
"|. c #BFC0C1",
" X c #C4C5C6",
".X c #CDCDCC",
"XX c #FFDDC2",
/* pixels */
"                                            &                                                       ",
"                                    @   4 % o o < 3 < %                                             ",
"                                  % . o . . o + X O X @ <                                           ",
"                                  . . . . o X 5 2 o & X % 4 t                                       ",
"                                . * # o ; f 6 5 4 < X . . . @                                       ",
"                                6 ~.Q.G./.G.j.l.f.; . . . . .                                       ",
"                              c c j.~.^... .n.E.{.m.O . . . . .                                     ",
"                            . L k.0 p A [ /.].[.G.` o . o . . . .                                   ",
"                            i .XU.Z.|..XY.x X.m.v.0 . . . . o .                                     ",
"                          X Q .X>.k..X5.U.8 . o 0 ) = # . . .                                       ",
"                        l.l.) y.l.) A.K.5.X . . . f a.g.( . . .                                     ",
"                      s.}.XX[.'.]./.G.i.X.q.q.e.c.W.e.M.s.o .                                       ",
"                      ` /.].].]._.b.`.].].'.j.i.'.`.z.M.c                                           ",
"                        ( g.z.z.e.T./.Q.E.v.S.r.`.E.t.c 5 u u e                                     ",
"                            : / t.f.l.D.I.|.S.E.`.| e { <.2.<.,.,.#.} T M                           ",
"                              :. X X X|.I.C.m.'.M.S T R { } &.<.3.3.3.2.<.&.T e                     ",
"                              s.H.J.J.J.G.W./.].!.J i r V C T { @.2.2.2.2.h.h.&.V                   ",
"                                 .q.u.t.| j ) n.y.A 3 H *.~ C C T { &.2.2.2.<.h.h.{                 ",
"                               .~.c.X.x ^ 4 t Z i 4 4 d.P.U.,.C T C { <.2.2.2.2.h.h.#.              ",
"                            X.).].].~.` 7.A.6.5.;.Z 3 t i 6.5.z T C C { <.2.2.2.3.3.2.S             ",
"                          c E.].].G.V.Z.Q 6.I.U.L.;.Z.:.y q p 5 C K U R &.2.2.2.3.3.h.S             ",
"                        ( 0.' b.E.6.P.*.t Q ;.i 8 i *.L.5.t Q 5.N T U C @.3.3.3.3.3.2.{             ",
"                      1 ' v 8.9.w.| h.t G P.Q i B.;.t n N.P.U.L.u C T C { 3.2.2.2.2.3.~             ",
"                      * k a ; w.e.k.] < *.6.q 7..X X5.H Z.N.^ i < V T T T 2.2.2.2.3.3.K             ",
"                    @ 3 u z 8 c d.5.y Q 6.2 % 7.U.U.Q t t 4 y ^ 7.Z T T T &.3.3.3.3.&.8             ",
"                    + - 9 z r     , 5 V.:.3 i *.;.;.Q *.5.B.L.P.h.u T T K R &.<.&.@.m               ",
"                        + $ @           % & t 7.B.Z.A.A.B.6.^ Z t 8 U T T T T T T m %               ",
"                              3 ~ *.D P P n t q 4 q p i i n H ^ Z.*.u C K K V m w                   ",
"                              n 4.4.1.1.$.$.=.$.o.G Y O.;.6.B.Z.7.t     3 3                         ",
"                              n =.=.=.$.E ! ~ o.O.=.=.$.$.O.^ M D 3                                 ",
"                              n =.=.=.$.P D E O.$.O.o.o.O.+.o.o.~ 2                                 ",
"                              q $.=.=.=.! y n o.$.! +.O.o.O.O.o.M $                                 ",
"                              2 O.-.=.=.E b   Z ~ P F D B D n w >                                   ",
"                              , o.-.=.-.! n   % ~ ! b q q 2 >                                       ",
"                                E -.=.-.o.n     o.=.O.F n b $                                       ",
"                                E -.-.-.O.n     F =.=.! n b >                                       ",
"                                P -.-.=.O.n     y =.=.O.D b 2                                       ",
"                                F o.o.o.E n     2 O.=.=.I y q >                                     ",
"                                M P i y t 1       P =.=.O.D b y w 2                                 ",
"                              i *.*.j d k d =     < E =.-.$.o.I D n q >                             ",
"                        1 g / k s s l k x ^ Z         B n o.1.1.=.o.I n q <                         ",
"                      = d / v v v l k H ^                 t P O.-.-.-.O.D y @                       ",
"                      * d d s k k A Q H                       4 B O.=.O.! y 7 :                     ",
"                      i ;.>.;.:.*.Q                               4 D D w 1 l j y                   ",
"                                                                  * 1 j 7 l g G                     ",
"                                                              # h J J h d k A Z                     ",
"                                                              6 l v / l k h G                       ",
"                                                            X j g h l l L Q                         ",
"                                                              G $.^ ] o.                            ",
"                                                                                                    "
};
