/* XPM */
static char *_bc6479960c14608d913b7c36faf8c4cnVzraMy3vNF7QEjV[] = {
/* columns rows colors chars-per-pixel */
"50 50 94 2 ",
"   c #565656",
".  c #575758",
"X  c #585758",
"o  c #585858",
"O  c #5E6457",
"+  c #5F6A53",
"@  c #5E625A",
"#  c #617C43",
"$  c #61744C",
"%  c #667B4C",
"&  c #697F4C",
"*  c #606657",
"=  c #626D55",
"-  c #61655C",
";  c #646B5C",
":  c #647353",
">  c #68745C",
",  c #6B7C5A",
"<  c #6C6C6C",
"1  c gray48",
"2  c #5B8F1F",
"3  c #61971E",
"4  c #62991E",
"5  c #5B8C23",
"6  c #5E9222",
"7  c #5D8233",
"8  c #5F8138",
"9  c #608C2C",
"0  c #619522",
"q  c #649C22",
"w  c #689C27",
"e  c #67952E",
"r  c #659C2A",
"t  c #6A9E2C",
"y  c #648C33",
"u  c #63833D",
"i  c #65893B",
"p  c #698E3A",
"a  c #679332",
"s  c #689334",
"d  c #6A9D31",
"f  c #6C913C",
"g  c #6D983C",
"h  c #66A226",
"j  c #66A529",
"k  c #69A52A",
"l  c #67A82A",
"z  c #69AA2C",
"x  c #6EA631",
"c  c #6EAD32",
"v  c #71AD36",
"b  c #74A83A",
"n  c #6FB031",
"m  c #72B334",
"M  c #77B937",
"N  c #76B33C",
"B  c #7ABA3C",
"V  c #658242",
"C  c #688640",
"Z  c #6A8B44",
"A  c #6B844C",
"S  c #6F9946",
"D  c #749C4D",
"F  c #6D8554",
"G  c #6F8659",
"H  c #718959",
"J  c #748E59",
"K  c #748A5C",
"L  c #739155",
"P  c #769953",
"I  c #79A246",
"U  c #7AA942",
"Y  c #79AB47",
"T  c #79A64B",
"R  c #7AAB4A",
"E  c #7AA94D",
"W  c #7CB742",
"Q  c #7BB245",
"!  c #7CB444",
"~  c #7DB744",
"^  c #86AE52",
"/  c #83936E",
"(  c #92AF6C",
")  c gray55",
"_  c #8F8F8E",
"`  c #919092",
"'  c #959595",
"]  c #B5B7B1",
"[  c #A7C481",
"{  c #C8DAB1",
"}  c #D4E2C1",
"|  c #EAF0E1",
" . c #FDFDFE",
".. c white",
/* pixels */
"o o o o o o o o o o o o o . o o o o o o o o o o o o o o o o o o o o o o o o o o o o o o o o o o o o ",
"o o o o o X o o o o o o o o o o o o o o o o o o o o o o o o o o o o o X o o o o o o o o o o o o o o ",
"o o o o o o o o o o o o o o o o o . o o o o o o . o o o o o o o o o o o o o o o o o o o o o o o o o ",
"o o o o o o o o o o o o o o o o o o o o o o o o o o o o o   o o o o o o o o o o o o o o o o o o o o ",
"o o o o o o . o o o o o o o o o o o o o o o o o o o o o o o o o o o o o o o o o o o o o o o o o o o ",
"o o o o o o o o o o o o o o o o o o o o o o o o o o o o o o o o o o o o o o o o o o o o o o o o o o ",
"o o o o o o o o o o o o o o o o o o o o o o . o o o o o o o o o o o o o o o o o o o o o o o o o o o ",
"o o o o o o o o . o o o o o o o o o o o o o o o o o o o o o o o o o o o o o o o o o o o o o o o o o ",
". o o o o o o o o o o o . o o o o o o o o o o o o o o o o o o   o o o o o o o o X o o o o o o o o o ",
"o o o o o o o o o o o o o o o o o o o o o o o o o o o o o o o o o o o o o o o o o o o o o X o o o o ",
"o o o o o . o o o o o o o o o o o o X o o o o o o o . o o o o o o o o o o o o o o o o o o o o o o o ",
"o o o o o o o o o o o o o o o o o o o X X o o o o o o . o o o o o o o o o o o o o o o o o o o o o o ",
"o o o o o o o o o o o o o o o o o X X - * o o o o o o - * > o o o o o o o o o o o o o o o o o o o o ",
"o o o . o o o o . o o o o o o o o * , T T ; X o o o H E E Q , @ o o o o o o o o o o o o o o o o o o ",
"o o o o o o o o o o o o o o o o @ P W B B , o o o > R M M B ~ H = o o o o o o o o X o o o o o o o o ",
"o o o o o o o o o o o o o o . * P N n n v , < L K E M c l m M v t u * o o o o o o o o o X o o o o o ",
"o o o o o o o o o o o o o X . H N z z z z S D B ~ N z z m n m n j q % o o o o o o o o o o o o o o o ",
"o o o o o o o o o o o o X X ; Y z z l z z c n m m m c m n n z m z 4 i @ o o o o o o o o o o o o o o ",
"o o o o o o o o o o o o o o J N z l n z z z m z l l n n z l z z k 4 p * o o o o o o o o o o X o o o ",
"o o o o o o o o o o o o o K ~ M z n m z l z z m m n n l l z z z j 4 3 & X o o o o o o o o o o o o o ",
"o o o o o o o o o o o o - T Q R c S S j q z M c z n l j l j l j q 4 a = o . o o o o X X X X o o o o ",
"o o o o o o o o o o o o o > > ; , ; G k h n z l l l l h h q h q 3 e % X o o o o o o X o o o o o o o ",
"o o o o o o o o o o o o   . % V A Z F d h z z z z l j h h j q 4 p ; o o       o o o o o o o o o . o ",
"o o o o o o o o o o o < ` / w h j l t q l z z z l z l h h l j 4 i & 1 / ) ) < . o o o o o o o o o o ",
"o o o o o o o o o o   '  .} v n n l q h z z l l l z j 4 j z h 3 6 l U ^ |  .)   o o o o o o o o o o ",
"o o o o o o o o o o   '  .{ b k c l q j l l z l l l h 4 l j 3 2 r z l t [ | )   o o o o o o o o o o ",
"o o o o o o o o . .   ) ] I h z z m h h h q h h h q 4 h l q 2 6 l c v x w ( 1 X o o o o o o o o o o ",
"o o o o o o o o . . . o = r l l l m z q 6 6 q l h j j j 0 6 5 j z x m x q u o o o o o o o o o o o o ",
"o o o o o o o o o o o o 8 3 j k z m z k l q 6 6 l l z q q h h z c v c k 0 % o o o o o o o o o o o o ",
"o o o o o o o o o o o o $ 9 4 j l z h q 4 h h 6 q z z h 3 h l c v v c j C o o o   o o o o o o o   o ",
"o o o o o o o o o o o X o % 9 4 4 0 q 0 3 q z c z n z l 0 r c v v k h 6 # o o o o o o o o o o o o o ",
"o o o o o o o o o X o X X * 9 5 0 3 & : y h z c z z l d f r x k h 4 6 V * o o o o o o o o o o o o o ",
"o o o o o o o o o o o o o o + $ $ # @ o u h z l z k l g F s w 3 3 3 9 * o X o o o o X o o o o o o o ",
"o o o o o   o o o o o o o o X o o o o @ y j k l z z k t : ; i a 3 y % o o o o o o o o o o o o o o o ",
"o o o o o o o o o o o o o o o o o o o * 9 4 q h k k t f - o @ : 9 $ o o o o o o o o o o o o o o o o ",
"o o o o o o o o o o o o o o o o o o o O 7 0 3 3 t t t Z o X X o @ o o o o o o o o o o o o o o o o o ",
"o o o o o o o . o o o o o o o o o o o o O V 4 0 w e F = o o o o X X o o o o o o o o o o o o o o o o ",
"o o o o o o o o o o o o o o o o o o o o o * 8 u V # - o o o o o X X o o o o o o o o o o X o o o o o ",
"o o o o o o o o o o o o o o o o o o o o o o o o o o o o o o o o X X X X o o X o o o o X o o o o . o ",
"o o o . o o o o o o o o o o o o o o o o o . o o o o o o o o o o X X X X o o o o o o o o o o o o o o ",
"o o . o o o o o o o o o o o o o o o o o o o o o o o o o o o o o o o o o o o o o o o o o o o o o o o ",
"o o o o o o o o o o o o o o o o o o o   o o o o o o o o o o o o o . o o o o o o o o o o o o o o o o ",
"o o o o o o o o o o o o o o o o o o o o o o o o o o o o o o o o o o o o o o . o o o o o o o o X o o ",
"o o o o o o . o o o o o o o o o o o o o o o o o . o o o o o o o o o o o o o o o o X o o o o o o o o ",
"o o o o o o o o o o o o o o o o o o o o o o o o o o o o o o o o o o o o o o o o o o o o o o o o o o ",
"o o o o o o o o . o o o o o o o o o o o o o o o o o   o o o o o o o o o o o o o o o o o o o o o o o ",
"o o o o o o o o o o o o o o o o o o o o o o o o o o o o o o o o o o o o o o o o o . o o o o o o o o ",
"o . o o o o o o o o o o o o o o o o o o o o o o o o o o o o o   . o o o o o o o o o o o o o o o o o ",
"o o o o o o o o o o o o o o o o o o o o o o o o o o o o o o o o o o o o o o o o o o o o o o o o o o ",
"o o o o o   o o o o o o o o o o o o o o o o o o o o o o o o o o o o o o o o o o o o o o o . o o o o "
};
