/* XPM */
static char *_601d86ddcf74723c14b5ba6dd17232etCC5HbTNJiyLAWAP[] = {
/* columns rows colors chars-per-pixel */
"50 50 91 1 ",
"  c #575758",
". c #585758",
"X c #585858",
"o c #5F724A",
"O c #5E6457",
"+ c #5F6A53",
"@ c #5E625A",
"# c #617C43",
"$ c #62744D",
"% c #667A4C",
"& c #687F4A",
"* c #606657",
"= c #626D55",
"- c #60655B",
"; c #636A5B",
": c #647252",
"> c #68745C",
", c #6B7C5A",
"< c #5D911E",
"1 c #61971E",
"2 c #62991E",
"3 c #5B8C23",
"4 c #5F8B2C",
"5 c #5E9222",
"6 c #5D8233",
"7 c #5F8138",
"8 c #608C2C",
"9 c #619522",
"0 c #649C22",
"q c #689D27",
"w c #67952E",
"e c #659C2A",
"r c #6A9D2C",
"t c #648C34",
"y c #64843D",
"u c #66883C",
"i c #698E3A",
"p c #679132",
"a c #689434",
"s c #6A9C31",
"d c #6C913C",
"f c #6D983C",
"g c #66A226",
"h c #66A529",
"j c #69A52B",
"k c #67A82A",
"l c #69AA2C",
"z c #6EA631",
"x c #6EAD32",
"c c #70AD36",
"v c #71A53F",
"b c #6FB031",
"n c #6FB132",
"m c #70B132",
"M c #71B333",
"N c #71B234",
"B c #73B535",
"V c #75B736",
"C c #77B937",
"Z c #76B539",
"A c #77B23F",
"S c #77B43C",
"D c #79BA3A",
"F c #7ABA3C",
"G c #658242",
"H c #668045",
"J c #688640",
"K c #6A8744",
"L c #6A8E43",
"P c #6A8845",
"I c #68814A",
"U c #6E874E",
"Y c #6F9946",
"T c #749C4D",
"R c #6C8357",
"E c #6E8655",
"W c #718957",
"Q c #718958",
"! c #708859",
"~ c #748E59",
"^ c #748A5C",
"/ c #739155",
"( c #769953",
") c #7BAF47",
"_ c #79A64B",
"` c #7AA84B",
"' c #7AAB4A",
"] c #7AA94D",
"[ c #7CB742",
"{ c #7BB245",
"} c #7DB744",
/* pixels */
"XXXXX.XXXXXXXXXXXXXXXXXXXXXXXXXXXXXXXXXXXXXXXXXXXX",
"XXXXXXXXXXXXXXX XXXXXXXXXXXXXXXXXXXXXXXXXXXXXXXXXX",
"XXXXXXXXXX XXXXXXXXXXXXXX  XXXXXXXXXXXXXXXX XX XX ",
"XXXXXXXXXXXXXXXXXXXXXXX X XXXXX XXXX XXXXXXXXXXXXX",
"XXXXXXXXXXXXXXXXXXXXXXXXXXXXXXXXXXXXXX.XXX XXXXXXX",
"XXXXX XXXXXXX XXXXXXXXXXXXXXXXXXXXXXXXXXXXXXXXXXXX",
" XXXXXXXXXXXXXXXXXXXXXXXXXXXXXXXXXXXXXXXXXXXXXXXXX",
"XXXXXXXXXXXXXXXXX XXXXXXXXXX XXXXXXXXXXXXXXXXXXXXX",
"XXXXXXXXXXXXXXXXXXXXXXXXXXXXXXXXXXXXXXXXXXXXXX.XXX",
"XXXXXXXXXXXXXXXXXXXXXXXX XXXXXXXXXXXXXXXXX.XXXXXXX",
"XXXXXXXXXXXXXXXXXXXXXXXXXXXXXX XXXXX.XXXXXXXXXXXXX",
"XXXXXXX XXX XXXXXXXXXXXXXXXXX XXXX.XXXXXXXXXXXXXXX",
"XXXXXXXXXXXXXXXXXXX-OXXXXXX-=>XX..XX.XXXXXXXXXXXXX",
"XXXXXXXXXXXXXXXXX@,_`;XXXXQ]`),@..XXXXXXXXXXXXXX X",
"XXXXXXXXXXXX XXX@([D[,XXX>`DVD[Q=-XXXXXXXXX.XXXXXX",
"X XXXXXXXXXXXX *(AmnA,-/^]CxlmCcwu*XXXXXXXXXX.XXXX",
"XXXXXXXXXXXXXXXWBllllYTD}SlbnnBnh0%XXXXXXXXXXXXXXX",
"XXXXXXXXXXXXXX;`lllllnnBMnlMnblnl0uXXXXXXXXXXXXXX ",
"XXXXXXXXXXXXXX~Zlllnllmlllnnllllj2i*XXXXXXXXXX.XXX",
"XXXXXXXXXXXXXQ[DllMljllnnnnlllllg20IXXXXXXXXXXXXXX",
"XXXXXXXXXXXX-`{`xY_g<lnnlblhggll22p=XXXXXXXXX.XXXX",
"XXXXXXXXXXXXX>>;,;Ejgnllllkgg2g02w%XXXXXXXXXXXXXXX",
"XXXXXXXXXXXX.X%HILEsgxllklhggh0<i;XXXXXXXXXXXXXXXX",
"XXXXXXXXXXXX.$ehjlrelllllkkggkh2u&;;XXXXXXXXXXXXXX",
"XXXXXXXXXXXXX:znbl0gllklklh0gkg<5hai;XXXXXXXXXXXXX",
"XXXXXXXXXXXXX%skbl0glhllkhg2hk2<glkrPOXXXXXXXXXXXX",
"XXXXXXXXXXXX-agjlbg0ggggg00gk0<5kzNzqyXXXXXXXXXXXX",
"XXXXXXXXXXXX;rlklnn0<<2kgggh<53hlxcz0uXXXXXXX XX X",
"XXXXXXXXXXXX72gllnbgg555gllg0ghkxccj0% XXXXXXXXXXX",
"XXX.XXXXXXXX$42hllgg2gl50kkg2hkxccxguXXXXXXX XXXXX",
"XXXXXXX.XXXXX%9222<9<glxnnlj9hxccje1#XXXXXXXXXXXXX",
"XXXXXX..XXXXX@6399I:tglnlhlsdejj025y*XXXXXXXXXXXXX",
"XXXXXXXXXXXXXXo=%#XXJgllllhfUaq2228*XXX.XXXXXXXXXX",
"XXX.XXXXXXXXXXXXXXX@tgjlhlle:;up28:XXXXXXXXX.XXXXX",
"XXXXXXX XXX XXXXXXX*890gjzji-.@:t$X.XXXXXXXXXXXXXX",
"XXXXXXXXXXXXXXXXXXX*6922qrrKXX.XXXXXXXXXXXXXXXXXXX",
"XXXXXXXXXXXXXXXXXXXX@#12qsU=...XXXXXXX.XXXXXX.XXXX",
"XXXXXXXXXXX XXXXXXXXX+6uG#-X..XXXXXXXXXXXXX.XXXXXX",
"X XXXXXXXXXXXXXXXXXXXXXX.XXXXXXXXXXXXXXXXXXXXXXXXX",
"XXXXXXXXXXXXXXXXXXXXXXXX..XXXXXXXXXXXXXXXXXXXXXXXX",
"XXXXXXXXXX XXXXXXXXXXXXXXXXXXXXXXXXXXXXXXXXXXXXXXX",
"XXXX XXXXXXXXXXXXXXXXXXXXXXXXXXXXXXXXXXXXXXXXX.XX ",
"XXXXXXXXXXXXXXXXXXXX XXXXXX XXXXXXXXXXXXXXXXXXXXXX",
"XXXXXXXXXXXXXXXXXXX XXXXXXXXXXXXXXXXX XXX.XXXXXXXX",
"XXX XXXXXXXXXXXXXXXXXXXXXXXXXXXXX XXXXX XXXXXXXXXX",
"XXXXXXXXXXXXXXXXXXXXXXXXXX XXXX XXXXXXXX XXXXXXXXX",
"XXXXXX XXXXXXX XXXXX XXXXXXXXXXXXXXXXXXXXXXXXXX.XX",
"XXXXXXXXXXXXXXXXXXXXXXXXXXXXXXXXXXXXXXXXXXXXXXXXXX",
"XXXXXXXXXXXXXXXXXX XXXXXXXXXXXXXXXX XXXXXXXXXXXXXX",
"XXXXXX XXXXXXXXX  XXXXXXXXXXX XXXXXXXXXXXXXXXXX XX"
};
